<svg xmlns="http://www.w3.org/2000/svg" width="40" height="11" fill="none"><mask id="a" width="40" height="12" x="-.196" y="-.324" fill="#000" maskUnits="userSpaceOnUse"><path fill="#fff" d="M-.196-.324h40v12h-40z"/><path d="M4.44 2.296c0-.08.004-.192.012-.336.008-.144.036-.288.084-.432.048-.144.12-.268.216-.372.104-.104.252-.156.444-.156.168 0 .316.044.444.132.096.064.168.18.216.348.056.16.092.34.108.54.024.2.036.4.036.6 0 .2-.004.364-.012.492V7.78c0 .144-.008.312-.024.504a5.269 5.269 0 0 1-.084.576c-.032.192-.08.348-.144.468a.702.702 0 0 1-.12.18 2.352 2.352 0 0 1-.108.12.64.64 0 0 1-.216.144c-.072.032-.148.06-.228.084a3.029 3.029 0 0 1-.348.048h-2.52c-.192 0-.376-.016-.552-.048a1.086 1.086 0 0 1-.468-.216.8.8 0 0 1-.24-.3 2.405 2.405 0 0 1-.108-.372 2.475 2.475 0 0 1-.024-.324V2.176c0-.112.012-.236.036-.372a1.7 1.7 0 0 1 .132-.372.856.856 0 0 1 .24-.288.543.543 0 0 1 .36-.12c.4 0 .66.172.78.516.04.112.064.224.072.336l.024.336v1.812c.008.224.012.384.012.48H3.336c.216 0 .424-.004.624-.012s.352-.024.456-.048l.024-.552V2.296Zm3.228 3.828a2.373 2.373 0 0 0-.336-.024 5.011 5.011 0 0 1-.324-.036.947.947 0 0 1-.372-.096.83.83 0 0 1-.276-.216.708.708 0 0 1-.144-.324 1.11 1.11 0 0 1 .036-.42.665.665 0 0 1 .096-.204c.056-.072.108-.128.156-.168a.908.908 0 0 1 .336-.156c.128-.016.26-.02.396-.012.144.008.284.004.42-.012h.036v-.288a1.456 1.456 0 0 0 0-.36v-.252c0-.208-.004-.412-.012-.612 0-.208.004-.412.012-.612v-.504c.008-.128.02-.252.036-.372.016-.128.044-.244.084-.348A.73.73 0 0 1 7.98.832a.578.578 0 0 1 .384-.156h.024a.657.657 0 0 1 .456.18.92.92 0 0 1 .264.384c.064.152.104.312.12.48.016.16.024.304.024.432v7.32a1.895 1.895 0 0 1-.096.528.57.57 0 0 1-.396.372.985.985 0 0 1-.288.048.575.575 0 0 1-.456-.192.724.724 0 0 1-.192-.348 4.852 4.852 0 0 1-.06-.384.226.226 0 0 0-.012-.072V9.34a3.293 3.293 0 0 1-.024-.408c0-.144-.004-.288-.012-.432a2.788 2.788 0 0 1-.012-.252V7.408c0-.12-.004-.24-.012-.36V6.256a.352.352 0 0 0-.024-.132ZM4.44 8.44l-.012-2.484-2.076.012c-.008.168-.012.376-.012.624.008.248.012.456.012.624v1.236L4.44 8.44ZM17.593 6.064c-.04 0-.128-.004-.264-.012a5.683 5.683 0 0 0-.3-.012H16.8a1.62 1.62 0 0 1-.192-.036.789.789 0 0 1-.192-.024 2.369 2.369 0 0 1-.18-.06.807.807 0 0 1-.252-.204 5.918 5.918 0 0 1-.108-.156.371.371 0 0 1-.036-.168.972.972 0 0 1 .012-.336.69.69 0 0 1 .132-.288l.06-.096.084-.084c.048-.04.1-.068.156-.084.056-.024.108-.044.156-.06.088-.016.168-.024.24-.024H17.617v-.864c0-.096-.004-.184-.012-.264a2.535 2.535 0 0 1-.012-.252v-.564c0-.192.008-.384.024-.576a3 3 0 0 1 .024-.372c.024-.128.056-.248.096-.36a.778.778 0 0 1 .168-.276.515.515 0 0 1 .36-.144h.024a.77.77 0 0 1 .408.096.66.66 0 0 1 .252.24c.072.096.12.208.144.336.032.128.052.256.06.384.024.208.036.424.036.648V8.38c0 .272.004.552.012.84.008.28-.032.548-.12.804a.712.712 0 0 1-.156.252 1.1 1.1 0 0 1-.396.156.61.61 0 0 1-.12.012.6.6 0 0 1-.444-.168 1.045 1.045 0 0 1-.24-.384 2.081 2.081 0 0 1-.108-.492 4.75 4.75 0 0 1-.024-.444V7.492c.008-.192.012-.376.012-.552 0-.184-.004-.352-.012-.504v-.372Zm-4.14 2.244a3.467 3.467 0 0 1-.012-.288V3.532c0-.128-.008-.26-.024-.396a8.623 8.623 0 0 0-.036-.168c-.008-.072-.032-.116-.072-.132a.214.214 0 0 0-.144-.024.875.875 0 0 1-.144-.012.591.591 0 0 0-.168 0 .51.51 0 0 1-.156 0h-.564a3.471 3.471 0 0 1-.408 0 3.471 3.471 0 0 0-.408 0 1.456 1.456 0 0 1-.18.012 1.034 1.034 0 0 0-.168-.012c-.088 0-.18-.004-.276-.012a.53.53 0 0 1-.264-.096.596.596 0 0 1-.228-.3c-.04-.12-.06-.244-.06-.372a.939.939 0 0 1 .096-.456.421.421 0 0 1 .156-.204.422.422 0 0 1 .168-.096c.08-.032.148-.056.204-.072.168-.04.344-.06.528-.06.184-.008.364-.012.54-.012h2.088l.324.048a1.013 1.013 0 0 1 .504.168.54.54 0 0 1 .156.144.714.714 0 0 1 .12.336c.016.112.032.236.048.372.016.224.024.448.024.672v4.788c.008.112.012.248.012.408v.492c0 .168-.004.316-.012.444-.008.08-.02.164-.036.252a.934.934 0 0 1-.084.252.64.64 0 0 1-.144.216.712.712 0 0 1-.252.156 1.064 1.064 0 0 1-.408.084.864.864 0 0 1-.312-.06.416.416 0 0 1-.216-.204 1.878 1.878 0 0 1-.192-.852v-.528ZM25.166 1.06c.136.056.264.12.384.192.128.064.248.14.36.228.128.12.244.252.348.396.104.144.176.3.216.468.04.152.072.312.096.48.032.16.04.32.024.48-.008.104-.02.208-.036.312a1.248 1.248 0 0 1-.06.3 2.343 2.343 0 0 1-.336.768 1.89 1.89 0 0 1-.648.576c-.2.112-.412.196-.636.252a8.37 8.37 0 0 1-.672.12c-.08.016-.156.028-.228.036-.072 0-.148.004-.228.012a1.647 1.647 0 0 1-.204.012 15.034 15.034 0 0 0-.204-.024l-.336-.024a4.01 4.01 0 0 0-.324-.036 3.197 3.197 0 0 1-.66-.168 3.149 3.149 0 0 1-.588-.312 1.817 1.817 0 0 1-.708-.852 3.005 3.005 0 0 1-.192-1.056c0-.176.02-.36.06-.552a2.26 2.26 0 0 1 .528-1.044c.136-.16.3-.3.492-.42.144-.088.292-.16.444-.216.152-.064.312-.116.48-.156.264-.048.532-.072.804-.072.32-.016.62 0 .9.048l.216.048c.072.008.144.02.216.036.176.048.34.104.492.168Zm3.948 9.012a.494.494 0 0 1-.228.252.617.617 0 0 1-.288.096 1.02 1.02 0 0 1-.312 0 .62.62 0 0 1-.3-.144.635.635 0 0 1-.168-.252 3.908 3.908 0 0 1-.084-.288 1.558 1.558 0 0 1-.024-.252V1.768a2.48 2.48 0 0 1 .084-.636.572.572 0 0 1 .132-.228.513.513 0 0 1 .276-.156 1.9 1.9 0 0 1 .312-.024c.136 0 .26.036.372.108a.595.595 0 0 1 .24.3c.072.168.112.344.12.528l.024.54c.016.64.02 1.28.012 1.92-.008.64-.012 1.244-.012 1.812v3c0 .184-.012.372-.036.564a2.645 2.645 0 0 1-.12.576ZM21.098 7.66a1.648 1.648 0 0 1-.336-.06.788.788 0 0 1-.312-.216c-.096-.096-.144-.236-.144-.42 0-.168.048-.308.144-.42a.527.527 0 0 1 .204-.144c.088-.032.172-.056.252-.072.08-.016.148-.024.204-.024h4.824c.16 0 .328.008.504.024s.324.08.444.192c.072.072.12.148.144.228.032.08.048.168.048.264 0 .12-.028.232-.084.336a.46.46 0 0 1-.252.204 1.465 1.465 0 0 1-.444.12l-.456.024a13.227 13.227 0 0 0-.864.048H24.398l-.024 1.68c0 .12-.024.232-.072.336a.734.734 0 0 1-.204.264.785.785 0 0 1-.276.18.744.744 0 0 1-.324.048 1.277 1.277 0 0 1-.252-.048.576.576 0 0 1-.216-.12.514.514 0 0 1-.156-.204.978.978 0 0 1-.06-.372l-.036-1.776-.804-.024c-.248-.016-.54-.032-.876-.048Zm3.852-4.068a1.152 1.152 0 0 0-.108-.792.506.506 0 0 0-.096-.132.849.849 0 0 0-.12-.12.57.57 0 0 0-.144-.12 1.093 1.093 0 0 0-.192-.108 1.555 1.555 0 0 0-.204-.084 2.391 2.391 0 0 0-.624-.084c-.208 0-.4.032-.576.096a1.164 1.164 0 0 0-.456.3.951.951 0 0 0-.24.528 1.47 1.47 0 0 0-.012.42.908.908 0 0 0 .156.384c.168.216.4.376.696.48.112.04.224.068.336.084.112.008.224.008.336 0 .112-.008.224-.02.336-.036.12-.016.232-.048.336-.096a.981.981 0 0 0 .372-.3c.096-.136.164-.276.204-.42ZM33.855 8.308a3.467 3.467 0 0 1-.012-.288V6.028c-.224.008-.436.012-.636.012a47.976 47.976 0 0 1-.516-.024h-1.008c-.224 0-.456-.02-.696-.06a1.27 1.27 0 0 1-.636-.3.839.839 0 0 1-.24-.36.513.513 0 0 1 .084-.408.758.758 0 0 1 .48-.324 4.647 4.647 0 0 1 .768-.144h.036l.024.012c.024 0 .092-.004.204-.012h2.136V3.352c0-.088-.008-.2-.024-.336a8.623 8.623 0 0 0-.036-.168c-.008-.072-.032-.116-.072-.132-.04-.024-.088-.032-.144-.024a.875.875 0 0 1-.144-.012.591.591 0 0 0-.168 0 .51.51 0 0 1-.156 0h-.936a3.471 3.471 0 0 1-.408 0 3.471 3.471 0 0 0-.408 0 1.456 1.456 0 0 1-.18.012 1.034 1.034 0 0 0-.168-.012c-.088 0-.18-.004-.276-.012a.53.53 0 0 1-.264-.096.596.596 0 0 1-.228-.3c-.04-.12-.06-.244-.06-.372a.939.939 0 0 1 .096-.456.421.421 0 0 1 .156-.204.422.422 0 0 1 .168-.096c.08-.032.148-.056.204-.072.168-.04.344-.06.528-.06.184-.008.364-.012.54-.012h2.46l.324.048a1.013 1.013 0 0 1 .504.168.54.54 0 0 1 .156.144.714.714 0 0 1 .12.336c.016.112.032.236.048.372.016.224.024.448.024.672v4.908c.008.112.012.248.012.408v.492c0 .168-.004.316-.012.444-.008.08-.02.164-.036.252a.934.934 0 0 1-.084.252.64.64 0 0 1-.144.216.712.712 0 0 1-.252.156 1.064 1.064 0 0 1-.408.084.864.864 0 0 1-.312-.06.416.416 0 0 1-.216-.204 1.878 1.878 0 0 1-.192-.852v-.528Zm4.968 1.032a3.539 3.539 0 0 0-.036.288c-.008.088-.028.18-.06.276a.659.659 0 0 0-.036.084.712.712 0 0 1-.252.348.772.772 0 0 1-.612.084.628.628 0 0 1-.312-.144.635.635 0 0 1-.168-.252 3.908 3.908 0 0 1-.084-.288 1.558 1.558 0 0 1-.024-.252V1.78c0-.112.008-.224.024-.336.016-.112.04-.216.072-.312a.572.572 0 0 1 .132-.228.513.513 0 0 1 .276-.156c.096-.024.2-.036.312-.036.136 0 .26.04.372.12.12.072.204.176.252.312.072.168.112.344.12.528l.024.552v.06c.016.616.02 1.248.012 1.896-.008.648-.012 1.26-.012 1.836v3.108a.975.975 0 0 1 0 .216Z"/></mask><path fill="#FF9D3B" d="M4.44 2.296c0-.08.004-.192.012-.336.008-.144.036-.288.084-.432.048-.144.12-.268.216-.372.104-.104.252-.156.444-.156.168 0 .316.044.444.132.096.064.168.18.216.348.056.16.092.34.108.54.024.2.036.4.036.6 0 .2-.004.364-.012.492V7.78c0 .144-.008.312-.024.504a5.269 5.269 0 0 1-.084.576c-.032.192-.08.348-.144.468a.702.702 0 0 1-.12.18 2.352 2.352 0 0 1-.108.12.64.64 0 0 1-.216.144c-.072.032-.148.06-.228.084a3.029 3.029 0 0 1-.348.048h-2.52c-.192 0-.376-.016-.552-.048a1.086 1.086 0 0 1-.468-.216.8.8 0 0 1-.24-.3 2.405 2.405 0 0 1-.108-.372 2.475 2.475 0 0 1-.024-.324V2.176c0-.112.012-.236.036-.372a1.7 1.7 0 0 1 .132-.372.856.856 0 0 1 .24-.288.543.543 0 0 1 .36-.12c.4 0 .66.172.78.516.04.112.064.224.072.336l.024.336v1.812c.008.224.012.384.012.48H3.336c.216 0 .424-.004.624-.012s.352-.024.456-.048l.024-.552V2.296Zm3.228 3.828a2.373 2.373 0 0 0-.336-.024 5.011 5.011 0 0 1-.324-.036.947.947 0 0 1-.372-.096.83.83 0 0 1-.276-.216.708.708 0 0 1-.144-.324 1.11 1.11 0 0 1 .036-.42.665.665 0 0 1 .096-.204c.056-.072.108-.128.156-.168a.908.908 0 0 1 .336-.156c.128-.016.26-.02.396-.012.144.008.284.004.42-.012h.036v-.288a1.456 1.456 0 0 0 0-.36v-.252c0-.208-.004-.412-.012-.612 0-.208.004-.412.012-.612v-.504c.008-.128.02-.252.036-.372.016-.128.044-.244.084-.348A.73.73 0 0 1 7.98.832a.578.578 0 0 1 .384-.156h.024a.657.657 0 0 1 .456.18.92.92 0 0 1 .264.384c.064.152.104.312.12.48.016.16.024.304.024.432v7.32a1.895 1.895 0 0 1-.096.528.57.57 0 0 1-.396.372.985.985 0 0 1-.288.048.575.575 0 0 1-.456-.192.724.724 0 0 1-.192-.348 4.852 4.852 0 0 1-.06-.384.226.226 0 0 0-.012-.072V9.34a3.293 3.293 0 0 1-.024-.408c0-.144-.004-.288-.012-.432a2.788 2.788 0 0 1-.012-.252V7.408c0-.12-.004-.24-.012-.36V6.256a.352.352 0 0 0-.024-.132ZM4.44 8.44l-.012-2.484-2.076.012c-.008.168-.012.376-.012.624.008.248.012.456.012.624v1.236L4.44 8.44ZM17.593 6.064c-.04 0-.128-.004-.264-.012a5.683 5.683 0 0 0-.3-.012H16.8a1.62 1.62 0 0 1-.192-.036.789.789 0 0 1-.192-.024 2.369 2.369 0 0 1-.18-.06.807.807 0 0 1-.252-.204 5.918 5.918 0 0 1-.108-.156.371.371 0 0 1-.036-.168.972.972 0 0 1 .012-.336.69.69 0 0 1 .132-.288l.06-.096.084-.084c.048-.04.1-.068.156-.084.056-.024.108-.044.156-.06.088-.016.168-.024.24-.024H17.617v-.864c0-.096-.004-.184-.012-.264a2.535 2.535 0 0 1-.012-.252v-.564c0-.192.008-.384.024-.576a3 3 0 0 1 .024-.372c.024-.128.056-.248.096-.36a.778.778 0 0 1 .168-.276.515.515 0 0 1 .36-.144h.024a.77.77 0 0 1 .408.096.66.66 0 0 1 .252.24c.072.096.12.208.144.336.032.128.052.256.06.384.024.208.036.424.036.648V8.38c0 .272.004.552.012.84.008.28-.032.548-.12.804a.712.712 0 0 1-.156.252 1.1 1.1 0 0 1-.396.156.61.61 0 0 1-.12.012.6.6 0 0 1-.444-.168 1.045 1.045 0 0 1-.24-.384 2.081 2.081 0 0 1-.108-.492 4.75 4.75 0 0 1-.024-.444V7.492c.008-.192.012-.376.012-.552 0-.184-.004-.352-.012-.504v-.372Zm-4.14 2.244a3.467 3.467 0 0 1-.012-.288V3.532c0-.128-.008-.26-.024-.396a8.623 8.623 0 0 0-.036-.168c-.008-.072-.032-.116-.072-.132a.214.214 0 0 0-.144-.024.875.875 0 0 1-.144-.012.591.591 0 0 0-.168 0 .51.51 0 0 1-.156 0h-.564a3.471 3.471 0 0 1-.408 0 3.471 3.471 0 0 0-.408 0 1.456 1.456 0 0 1-.18.012 1.034 1.034 0 0 0-.168-.012c-.088 0-.18-.004-.276-.012a.53.53 0 0 1-.264-.096.596.596 0 0 1-.228-.3c-.04-.12-.06-.244-.06-.372a.939.939 0 0 1 .096-.456.421.421 0 0 1 .156-.204.422.422 0 0 1 .168-.096c.08-.032.148-.056.204-.072.168-.04.344-.06.528-.06.184-.008.364-.012.54-.012h2.088l.324.048a1.013 1.013 0 0 1 .504.168.54.54 0 0 1 .156.144.714.714 0 0 1 .12.336c.016.112.032.236.048.372.016.224.024.448.024.672v4.788c.008.112.012.248.012.408v.492c0 .168-.004.316-.012.444-.008.08-.02.164-.036.252a.934.934 0 0 1-.084.252.64.64 0 0 1-.144.216.712.712 0 0 1-.252.156 1.064 1.064 0 0 1-.408.084.864.864 0 0 1-.312-.06.416.416 0 0 1-.216-.204 1.878 1.878 0 0 1-.192-.852v-.528ZM25.166 1.06c.136.056.264.12.384.192.128.064.248.14.36.228.128.12.244.252.348.396.104.144.176.3.216.468.04.152.072.312.096.48.032.16.04.32.024.48-.008.104-.02.208-.036.312a1.248 1.248 0 0 1-.06.3 2.343 2.343 0 0 1-.336.768 1.89 1.89 0 0 1-.648.576c-.2.112-.412.196-.636.252a8.37 8.37 0 0 1-.672.12c-.08.016-.156.028-.228.036-.072 0-.148.004-.228.012a1.647 1.647 0 0 1-.204.012 15.034 15.034 0 0 0-.204-.024l-.336-.024a4.01 4.01 0 0 0-.324-.036 3.197 3.197 0 0 1-.66-.168 3.149 3.149 0 0 1-.588-.312 1.817 1.817 0 0 1-.708-.852 3.005 3.005 0 0 1-.192-1.056c0-.176.02-.36.06-.552a2.26 2.26 0 0 1 .528-1.044c.136-.16.3-.3.492-.42.144-.088.292-.16.444-.216.152-.064.312-.116.48-.156.264-.048.532-.072.804-.072.32-.016.62 0 .9.048l.216.048c.072.008.144.02.216.036.176.048.34.104.492.168Zm3.948 9.012a.494.494 0 0 1-.228.252.617.617 0 0 1-.288.096 1.02 1.02 0 0 1-.312 0 .62.62 0 0 1-.3-.144.635.635 0 0 1-.168-.252 3.908 3.908 0 0 1-.084-.288 1.558 1.558 0 0 1-.024-.252V1.768a2.48 2.48 0 0 1 .084-.636.572.572 0 0 1 .132-.228.513.513 0 0 1 .276-.156 1.9 1.9 0 0 1 .312-.024c.136 0 .26.036.372.108a.595.595 0 0 1 .24.3c.072.168.112.344.12.528l.024.54c.016.64.02 1.28.012 1.92-.008.64-.012 1.244-.012 1.812v3c0 .184-.012.372-.036.564a2.645 2.645 0 0 1-.12.576ZM21.098 7.66a1.648 1.648 0 0 1-.336-.06.788.788 0 0 1-.312-.216c-.096-.096-.144-.236-.144-.42 0-.168.048-.308.144-.42a.527.527 0 0 1 .204-.144c.088-.032.172-.056.252-.072.08-.016.148-.024.204-.024h4.824c.16 0 .328.008.504.024s.324.08.444.192c.072.072.12.148.144.228.032.08.048.168.048.264 0 .12-.028.232-.084.336a.46.46 0 0 1-.252.204 1.465 1.465 0 0 1-.444.12l-.456.024a13.227 13.227 0 0 0-.864.048H24.398l-.024 1.68c0 .12-.024.232-.072.336a.734.734 0 0 1-.204.264.785.785 0 0 1-.276.18.744.744 0 0 1-.324.048 1.277 1.277 0 0 1-.252-.048.576.576 0 0 1-.216-.12.514.514 0 0 1-.156-.204.978.978 0 0 1-.06-.372l-.036-1.776-.804-.024c-.248-.016-.54-.032-.876-.048Zm3.852-4.068a1.152 1.152 0 0 0-.108-.792.506.506 0 0 0-.096-.132.849.849 0 0 0-.12-.12.57.57 0 0 0-.144-.12 1.093 1.093 0 0 0-.192-.108 1.555 1.555 0 0 0-.204-.084 2.391 2.391 0 0 0-.624-.084c-.208 0-.4.032-.576.096a1.164 1.164 0 0 0-.456.3.951.951 0 0 0-.24.528 1.47 1.47 0 0 0-.012.42.908.908 0 0 0 .156.384c.168.216.4.376.696.48.112.04.224.068.336.084.112.008.224.008.336 0 .112-.008.224-.02.336-.036.12-.016.232-.048.336-.096a.981.981 0 0 0 .372-.3c.096-.136.164-.276.204-.42ZM33.855 8.308a3.467 3.467 0 0 1-.012-.288V6.028c-.224.008-.436.012-.636.012a47.976 47.976 0 0 1-.516-.024h-1.008c-.224 0-.456-.02-.696-.06a1.27 1.27 0 0 1-.636-.3.839.839 0 0 1-.24-.36.513.513 0 0 1 .084-.408.758.758 0 0 1 .48-.324 4.647 4.647 0 0 1 .768-.144h.036l.024.012c.024 0 .092-.004.204-.012h2.136V3.352c0-.088-.008-.2-.024-.336a8.623 8.623 0 0 0-.036-.168c-.008-.072-.032-.116-.072-.132-.04-.024-.088-.032-.144-.024a.875.875 0 0 1-.144-.012.591.591 0 0 0-.168 0 .51.51 0 0 1-.156 0h-.936a3.471 3.471 0 0 1-.408 0 3.471 3.471 0 0 0-.408 0 1.456 1.456 0 0 1-.18.012 1.034 1.034 0 0 0-.168-.012c-.088 0-.18-.004-.276-.012a.53.53 0 0 1-.264-.096.596.596 0 0 1-.228-.3c-.04-.12-.06-.244-.06-.372a.939.939 0 0 1 .096-.456.421.421 0 0 1 .156-.204.422.422 0 0 1 .168-.096c.08-.032.148-.056.204-.072.168-.04.344-.06.528-.06.184-.008.364-.012.54-.012h2.46l.324.048a1.013 1.013 0 0 1 .504.168.54.54 0 0 1 .156.144.714.714 0 0 1 .12.336c.016.112.032.236.048.372.016.224.024.448.024.672v4.908c.008.112.012.248.012.408v.492c0 .168-.004.316-.012.444-.008.08-.02.164-.036.252a.934.934 0 0 1-.084.252.64.64 0 0 1-.144.216.712.712 0 0 1-.252.156 1.064 1.064 0 0 1-.408.084.864.864 0 0 1-.312-.06.416.416 0 0 1-.216-.204 1.878 1.878 0 0 1-.192-.852v-.528Zm4.968 1.032a3.539 3.539 0 0 0-.036.288c-.008.088-.028.18-.06.276a.659.659 0 0 0-.036.084.712.712 0 0 1-.252.348.772.772 0 0 1-.612.084.628.628 0 0 1-.312-.144.635.635 0 0 1-.168-.252 3.908 3.908 0 0 1-.084-.288 1.558 1.558 0 0 1-.024-.252V1.78c0-.112.008-.224.024-.336.016-.112.04-.216.072-.312a.572.572 0 0 1 .132-.228.513.513 0 0 1 .276-.156c.096-.024.2-.036.312-.036.136 0 .26.04.372.12.12.072.204.176.252.312.072.168.112.344.12.528l.024.552v.06c.016.616.02 1.248.012 1.896-.008.648-.012 1.26-.012 1.836v3.108a.975.975 0 0 1 0 .216Z"/><path stroke="#000" d="M4.44 2.296c0-.08.004-.192.012-.336.008-.144.036-.288.084-.432.048-.144.12-.268.216-.372.104-.104.252-.156.444-.156.168 0 .316.044.444.132.096.064.168.18.216.348.056.16.092.34.108.54.024.2.036.4.036.6 0 .2-.004.364-.012.492V7.78c0 .144-.008.312-.024.504a5.269 5.269 0 0 1-.084.576c-.032.192-.08.348-.144.468a.702.702 0 0 1-.12.18 2.352 2.352 0 0 1-.108.12.64.64 0 0 1-.216.144c-.072.032-.148.06-.228.084a3.029 3.029 0 0 1-.348.048h-2.52c-.192 0-.376-.016-.552-.048a1.086 1.086 0 0 1-.468-.216.8.8 0 0 1-.24-.3 2.405 2.405 0 0 1-.108-.372 2.475 2.475 0 0 1-.024-.324V2.176c0-.112.012-.236.036-.372a1.7 1.7 0 0 1 .132-.372.856.856 0 0 1 .24-.288.543.543 0 0 1 .36-.12c.4 0 .66.172.78.516.04.112.064.224.072.336l.024.336v1.812c.008.224.012.384.012.48H3.336c.216 0 .424-.004.624-.012s.352-.024.456-.048l.024-.552V2.296Zm3.228 3.828a2.373 2.373 0 0 0-.336-.024 5.011 5.011 0 0 1-.324-.036.947.947 0 0 1-.372-.096.83.83 0 0 1-.276-.216.708.708 0 0 1-.144-.324 1.11 1.11 0 0 1 .036-.42.665.665 0 0 1 .096-.204c.056-.072.108-.128.156-.168a.908.908 0 0 1 .336-.156c.128-.016.26-.02.396-.012.144.008.284.004.42-.012h.036v-.288a1.456 1.456 0 0 0 0-.36v-.252c0-.208-.004-.412-.012-.612 0-.208.004-.412.012-.612v-.504c.008-.128.02-.252.036-.372.016-.128.044-.244.084-.348A.73.73 0 0 1 7.98.832a.578.578 0 0 1 .384-.156h.024a.657.657 0 0 1 .456.18.92.92 0 0 1 .264.384c.064.152.104.312.12.48.016.16.024.304.024.432v7.32a1.895 1.895 0 0 1-.096.528.57.57 0 0 1-.396.372.985.985 0 0 1-.288.048.575.575 0 0 1-.456-.192.724.724 0 0 1-.192-.348 4.852 4.852 0 0 1-.06-.384.226.226 0 0 0-.012-.072V9.34a3.293 3.293 0 0 1-.024-.408c0-.144-.004-.288-.012-.432a2.788 2.788 0 0 1-.012-.252V7.408c0-.12-.004-.24-.012-.36V6.256a.352.352 0 0 0-.024-.132ZM4.44 8.44l-.012-2.484-2.076.012c-.008.168-.012.376-.012.624.008.248.012.456.012.624v1.236L4.44 8.44ZM17.593 6.064c-.04 0-.128-.004-.264-.012a5.683 5.683 0 0 0-.3-.012H16.8a1.62 1.62 0 0 1-.192-.036.789.789 0 0 1-.192-.024 2.369 2.369 0 0 1-.18-.06.807.807 0 0 1-.252-.204 5.918 5.918 0 0 1-.108-.156.371.371 0 0 1-.036-.168.972.972 0 0 1 .012-.336.69.69 0 0 1 .132-.288l.06-.096.084-.084c.048-.04.1-.068.156-.084.056-.024.108-.044.156-.06.088-.016.168-.024.24-.024H17.617v-.864c0-.096-.004-.184-.012-.264a2.535 2.535 0 0 1-.012-.252v-.564c0-.192.008-.384.024-.576a3 3 0 0 1 .024-.372c.024-.128.056-.248.096-.36a.778.778 0 0 1 .168-.276.515.515 0 0 1 .36-.144h.024a.77.77 0 0 1 .408.096.66.66 0 0 1 .252.24c.072.096.12.208.144.336.032.128.052.256.06.384.024.208.036.424.036.648V8.38c0 .272.004.552.012.84.008.28-.032.548-.12.804a.712.712 0 0 1-.156.252 1.1 1.1 0 0 1-.396.156.61.61 0 0 1-.12.012.6.6 0 0 1-.444-.168 1.045 1.045 0 0 1-.24-.384 2.081 2.081 0 0 1-.108-.492 4.75 4.75 0 0 1-.024-.444V7.492c.008-.192.012-.376.012-.552 0-.184-.004-.352-.012-.504v-.372Zm-4.14 2.244a3.467 3.467 0 0 1-.012-.288V3.532c0-.128-.008-.26-.024-.396a8.623 8.623 0 0 0-.036-.168c-.008-.072-.032-.116-.072-.132a.214.214 0 0 0-.144-.024.875.875 0 0 1-.144-.012.591.591 0 0 0-.168 0 .51.51 0 0 1-.156 0h-.564a3.471 3.471 0 0 1-.408 0 3.471 3.471 0 0 0-.408 0 1.456 1.456 0 0 1-.18.012 1.034 1.034 0 0 0-.168-.012c-.088 0-.18-.004-.276-.012a.53.53 0 0 1-.264-.096.596.596 0 0 1-.228-.3c-.04-.12-.06-.244-.06-.372a.939.939 0 0 1 .096-.456.421.421 0 0 1 .156-.204.422.422 0 0 1 .168-.096c.08-.032.148-.056.204-.072.168-.04.344-.06.528-.06.184-.008.364-.012.54-.012h2.088l.324.048a1.013 1.013 0 0 1 .504.168.54.54 0 0 1 .156.144.714.714 0 0 1 .12.336c.016.112.032.236.048.372.016.224.024.448.024.672v4.788c.008.112.012.248.012.408v.492c0 .168-.004.316-.012.444-.008.08-.02.164-.036.252a.934.934 0 0 1-.084.252.64.64 0 0 1-.144.216.712.712 0 0 1-.252.156 1.064 1.064 0 0 1-.408.084.864.864 0 0 1-.312-.06.416.416 0 0 1-.216-.204 1.878 1.878 0 0 1-.192-.852v-.528ZM25.166 1.06c.136.056.264.12.384.192.128.064.248.14.36.228.128.12.244.252.348.396.104.144.176.3.216.468.04.152.072.312.096.48.032.16.04.32.024.48-.008.104-.02.208-.036.312a1.248 1.248 0 0 1-.06.3 2.343 2.343 0 0 1-.336.768 1.89 1.89 0 0 1-.648.576c-.2.112-.412.196-.636.252a8.37 8.37 0 0 1-.672.12c-.08.016-.156.028-.228.036-.072 0-.148.004-.228.012a1.647 1.647 0 0 1-.204.012 15.034 15.034 0 0 0-.204-.024l-.336-.024a4.01 4.01 0 0 0-.324-.036 3.197 3.197 0 0 1-.66-.168 3.149 3.149 0 0 1-.588-.312 1.817 1.817 0 0 1-.708-.852 3.005 3.005 0 0 1-.192-1.056c0-.176.02-.36.06-.552a2.26 2.26 0 0 1 .528-1.044c.136-.16.3-.3.492-.42.144-.088.292-.16.444-.216.152-.064.312-.116.48-.156.264-.048.532-.072.804-.072.32-.016.62 0 .9.048l.216.048c.072.008.144.02.216.036.176.048.34.104.492.168Zm3.948 9.012a.494.494 0 0 1-.228.252.617.617 0 0 1-.288.096 1.02 1.02 0 0 1-.312 0 .62.62 0 0 1-.3-.144.635.635 0 0 1-.168-.252 3.908 3.908 0 0 1-.084-.288 1.558 1.558 0 0 1-.024-.252V1.768a2.48 2.48 0 0 1 .084-.636.572.572 0 0 1 .132-.228.513.513 0 0 1 .276-.156 1.9 1.9 0 0 1 .312-.024c.136 0 .26.036.372.108a.595.595 0 0 1 .24.3c.072.168.112.344.12.528l.024.54c.016.64.02 1.28.012 1.92-.008.64-.012 1.244-.012 1.812v3c0 .184-.012.372-.036.564a2.645 2.645 0 0 1-.12.576ZM21.098 7.66a1.648 1.648 0 0 1-.336-.06.788.788 0 0 1-.312-.216c-.096-.096-.144-.236-.144-.42 0-.168.048-.308.144-.42a.527.527 0 0 1 .204-.144c.088-.032.172-.056.252-.072.08-.016.148-.024.204-.024h4.824c.16 0 .328.008.504.024s.324.08.444.192c.072.072.12.148.144.228.032.08.048.168.048.264 0 .12-.028.232-.084.336a.46.46 0 0 1-.252.204 1.465 1.465 0 0 1-.444.12l-.456.024a13.227 13.227 0 0 0-.864.048H24.398l-.024 1.68c0 .12-.024.232-.072.336a.734.734 0 0 1-.204.264.785.785 0 0 1-.276.18.744.744 0 0 1-.324.048 1.277 1.277 0 0 1-.252-.048.576.576 0 0 1-.216-.12.514.514 0 0 1-.156-.204.978.978 0 0 1-.06-.372l-.036-1.776-.804-.024c-.248-.016-.54-.032-.876-.048Zm3.852-4.068a1.152 1.152 0 0 0-.108-.792.506.506 0 0 0-.096-.132.849.849 0 0 0-.12-.12.57.57 0 0 0-.144-.12 1.093 1.093 0 0 0-.192-.108 1.555 1.555 0 0 0-.204-.084 2.391 2.391 0 0 0-.624-.084c-.208 0-.4.032-.576.096a1.164 1.164 0 0 0-.456.3.951.951 0 0 0-.24.528 1.47 1.47 0 0 0-.012.42.908.908 0 0 0 .156.384c.168.216.4.376.696.48.112.04.224.068.336.084.112.008.224.008.336 0 .112-.008.224-.02.336-.036.12-.016.232-.048.336-.096a.981.981 0 0 0 .372-.3c.096-.136.164-.276.204-.42ZM33.855 8.308a3.467 3.467 0 0 1-.012-.288V6.028c-.224.008-.436.012-.636.012a47.976 47.976 0 0 1-.516-.024h-1.008c-.224 0-.456-.02-.696-.06a1.27 1.27 0 0 1-.636-.3.839.839 0 0 1-.24-.36.513.513 0 0 1 .084-.408.758.758 0 0 1 .48-.324 4.647 4.647 0 0 1 .768-.144h.036l.024.012c.024 0 .092-.004.204-.012h2.136V3.352c0-.088-.008-.2-.024-.336a8.623 8.623 0 0 0-.036-.168c-.008-.072-.032-.116-.072-.132-.04-.024-.088-.032-.144-.024a.875.875 0 0 1-.144-.012.591.591 0 0 0-.168 0 .51.51 0 0 1-.156 0h-.936a3.471 3.471 0 0 1-.408 0 3.471 3.471 0 0 0-.408 0 1.456 1.456 0 0 1-.18.012 1.034 1.034 0 0 0-.168-.012c-.088 0-.18-.004-.276-.012a.53.53 0 0 1-.264-.096.596.596 0 0 1-.228-.3c-.04-.12-.06-.244-.06-.372a.939.939 0 0 1 .096-.456.421.421 0 0 1 .156-.204.422.422 0 0 1 .168-.096c.08-.032.148-.056.204-.072.168-.04.344-.06.528-.06.184-.008.364-.012.54-.012h2.46l.324.048a1.013 1.013 0 0 1 .504.168.54.54 0 0 1 .156.144.714.714 0 0 1 .12.336c.016.112.032.236.048.372.016.224.024.448.024.672v4.908c.008.112.012.248.012.408v.492c0 .168-.004.316-.012.444-.008.08-.02.164-.036.252a.934.934 0 0 1-.084.252.64.64 0 0 1-.144.216.712.712 0 0 1-.252.156 1.064 1.064 0 0 1-.408.084.864.864 0 0 1-.312-.06.416.416 0 0 1-.216-.204 1.878 1.878 0 0 1-.192-.852v-.528Zm4.968 1.032a3.539 3.539 0 0 0-.036.288c-.008.088-.028.18-.06.276a.659.659 0 0 0-.036.084.712.712 0 0 1-.252.348.772.772 0 0 1-.612.084.628.628 0 0 1-.312-.144.635.635 0 0 1-.168-.252 3.908 3.908 0 0 1-.084-.288 1.558 1.558 0 0 1-.024-.252V1.78c0-.112.008-.224.024-.336.016-.112.04-.216.072-.312a.572.572 0 0 1 .132-.228.513.513 0 0 1 .276-.156c.096-.024.2-.036.312-.036.136 0 .26.04.372.12.12.072.204.176.252.312.072.168.112.344.12.528l.024.552v.06c.016.616.02 1.248.012 1.896-.008.648-.012 1.26-.012 1.836v3.108a.975.975 0 0 1 0 .216Z" mask="url(#a)"/></svg>