<svg width="40" height="12" viewBox="0 0 40 12" fill="none" xmlns="http://www.w3.org/2000/svg">
<mask id="path-1-outside-1_5_7" maskUnits="userSpaceOnUse" x="0" y="0" width="40" height="12" fill="black">
<rect fill="white" width="40" height="12"/>
<path d="M4.636 2.62C4.636 2.54 4.64 2.428 4.648 2.284C4.656 2.14 4.684 1.996 4.732 1.852C4.78 1.708 4.852 1.584 4.948 1.48C5.052 1.376 5.2 1.324 5.392 1.324C5.56 1.324 5.708 1.368 5.836 1.456C5.932 1.52 6.004 1.636 6.052 1.804C6.108 1.964 6.144 2.144 6.16 2.344C6.184 2.544 6.196 2.744 6.196 2.944C6.196 3.144 6.192 3.308 6.184 3.436V7.84C6.184 7.864 6.184 7.952 6.184 8.104C6.184 8.248 6.176 8.416 6.16 8.608C6.144 8.792 6.116 8.984 6.076 9.184C6.044 9.376 5.996 9.532 5.932 9.652C5.908 9.708 5.868 9.768 5.812 9.832C5.764 9.888 5.728 9.928 5.704 9.952C5.64 10.016 5.568 10.064 5.488 10.096C5.416 10.128 5.34 10.156 5.26 10.18C5.18 10.196 5.108 10.208 5.044 10.216C4.98 10.224 4.936 10.228 4.912 10.228H2.392C2.2 10.228 2.016 10.212 1.84 10.18C1.672 10.148 1.516 10.076 1.372 9.964C1.268 9.884 1.188 9.784 1.132 9.664C1.084 9.536 1.048 9.412 1.024 9.292C1.008 9.172 1 9.064 1 8.968C1 8.864 1 8.8 1 8.776V2.5C1 2.388 1.012 2.264 1.036 2.128C1.068 1.992 1.112 1.868 1.168 1.756C1.232 1.636 1.312 1.54 1.408 1.468C1.504 1.388 1.624 1.348 1.768 1.348C2.168 1.348 2.428 1.52 2.548 1.864C2.588 1.976 2.612 2.088 2.62 2.2C2.628 2.312 2.636 2.424 2.644 2.536V2.56C2.644 2.616 2.644 2.748 2.644 2.956C2.644 3.164 2.644 3.392 2.644 3.64C2.644 3.88 2.644 4.116 2.644 4.348C2.652 4.572 2.656 4.732 2.656 4.828C2.696 4.828 2.8 4.828 2.968 4.828C3.136 4.828 3.324 4.828 3.532 4.828C3.748 4.828 3.956 4.824 4.156 4.816C4.356 4.808 4.508 4.792 4.612 4.768L4.636 4.216V2.62ZM7.864 6.448C7.752 6.432 7.64 6.424 7.528 6.424C7.424 6.416 7.316 6.404 7.204 6.388C7.068 6.38 6.944 6.348 6.832 6.292C6.72 6.236 6.628 6.164 6.556 6.076C6.484 5.988 6.436 5.88 6.412 5.752C6.396 5.624 6.408 5.484 6.448 5.332C6.464 5.268 6.496 5.2 6.544 5.128C6.6 5.056 6.652 5 6.7 4.96C6.812 4.88 6.924 4.828 7.036 4.804C7.164 4.788 7.296 4.784 7.432 4.792C7.576 4.8 7.716 4.796 7.852 4.78H7.888V4.732C7.888 4.636 7.888 4.556 7.888 4.492C7.896 4.428 7.9 4.368 7.9 4.312C7.9 4.256 7.896 4.196 7.888 4.132C7.888 4.068 7.888 3.984 7.888 3.88C7.888 3.672 7.884 3.468 7.876 3.268C7.876 3.06 7.88 2.856 7.888 2.656V2.488C7.888 2.384 7.888 2.272 7.888 2.152C7.896 2.024 7.908 1.9 7.924 1.78C7.94 1.652 7.968 1.536 8.008 1.432C8.048 1.32 8.104 1.228 8.176 1.156C8.296 1.052 8.424 1 8.56 1H8.584C8.776 1.008 8.928 1.068 9.04 1.18C9.16 1.284 9.248 1.412 9.304 1.564C9.368 1.716 9.408 1.876 9.424 2.044C9.44 2.204 9.448 2.348 9.448 2.476V9.676C9.448 9.684 9.448 9.724 9.448 9.796C9.448 9.86 9.44 9.94 9.424 10.036C9.408 10.132 9.384 10.228 9.352 10.324C9.32 10.42 9.268 10.5 9.196 10.564C9.14 10.62 9.06 10.664 8.956 10.696C8.852 10.728 8.756 10.744 8.668 10.744C8.476 10.744 8.324 10.68 8.212 10.552C8.108 10.44 8.044 10.324 8.02 10.204C7.996 10.084 7.976 9.956 7.96 9.82C7.96 9.796 7.956 9.772 7.948 9.748C7.948 9.724 7.948 9.696 7.948 9.664C7.932 9.536 7.924 9.4 7.924 9.256C7.924 9.112 7.92 8.968 7.912 8.824C7.904 8.736 7.9 8.652 7.9 8.572C7.9 8.484 7.9 8.396 7.9 8.308V8.032C7.9 7.952 7.9 7.852 7.9 7.732C7.9 7.612 7.896 7.492 7.888 7.372C7.888 7.252 7.888 7.136 7.888 7.024C7.888 6.904 7.888 6.8 7.888 6.712C7.888 6.672 7.888 6.628 7.888 6.58C7.888 6.532 7.88 6.488 7.864 6.448ZM4.636 8.764L4.624 6.28L2.548 6.292C2.54 6.46 2.536 6.668 2.536 6.916C2.544 7.164 2.548 7.372 2.548 7.54C2.548 7.604 2.548 7.692 2.548 7.804C2.548 7.916 2.548 8.036 2.548 8.164C2.548 8.292 2.548 8.412 2.548 8.524C2.548 8.636 2.548 8.72 2.548 8.776L4.636 8.764Z"/>
<path d="M17.7889 6.388C17.7489 6.388 17.6609 6.384 17.5249 6.376C17.3889 6.368 17.2889 6.364 17.2249 6.364C17.1449 6.364 17.0689 6.364 16.9969 6.364C16.9329 6.356 16.8689 6.344 16.8049 6.328C16.7409 6.328 16.6769 6.32 16.6129 6.304C16.5569 6.288 16.4969 6.268 16.4329 6.244C16.3289 6.188 16.2449 6.12 16.1809 6.04C16.1409 5.984 16.1049 5.932 16.0729 5.884C16.0489 5.836 16.0369 5.78 16.0369 5.716C16.0209 5.62 16.0249 5.508 16.0489 5.38C16.0809 5.252 16.1249 5.156 16.1809 5.092C16.2049 5.052 16.2249 5.02 16.2409 4.996C16.2649 4.972 16.2929 4.944 16.3249 4.912C16.3729 4.872 16.4249 4.844 16.4809 4.828C16.5369 4.804 16.5889 4.784 16.6369 4.768C16.7249 4.752 16.8049 4.744 16.8769 4.744C16.9569 4.744 17.0329 4.744 17.1049 4.744H17.8129V3.88C17.8129 3.784 17.8089 3.696 17.8009 3.616C17.7929 3.536 17.7889 3.452 17.7889 3.364C17.7889 3.172 17.7889 2.984 17.7889 2.8C17.7889 2.608 17.7969 2.416 17.8129 2.224C17.8129 2.104 17.8209 1.98 17.8369 1.852C17.8609 1.724 17.8929 1.604 17.9329 1.492C17.9649 1.396 18.0209 1.304 18.1009 1.216C18.2049 1.12 18.3249 1.072 18.4609 1.072H18.4849C18.6529 1.072 18.7889 1.104 18.8929 1.168C18.9969 1.224 19.0809 1.304 19.1449 1.408C19.2169 1.504 19.2649 1.616 19.2889 1.744C19.3209 1.872 19.3409 2 19.3489 2.128C19.3729 2.336 19.3849 2.552 19.3849 2.776C19.3849 3 19.3849 3.22 19.3849 3.436V8.704C19.3849 8.976 19.3889 9.256 19.3969 9.544C19.4049 9.824 19.3649 10.092 19.2769 10.348C19.2369 10.452 19.1849 10.536 19.1209 10.6C19.0969 10.616 19.0609 10.636 19.0129 10.66C18.9649 10.684 18.9169 10.704 18.8689 10.72C18.8209 10.736 18.7729 10.748 18.7249 10.756C18.6849 10.764 18.6449 10.768 18.6049 10.768C18.4209 10.768 18.2729 10.712 18.1609 10.6C18.0569 10.496 17.9769 10.368 17.9209 10.216C17.8649 10.056 17.8289 9.892 17.8129 9.724C17.7969 9.556 17.7889 9.408 17.7889 9.28V8.848C17.7889 8.704 17.7889 8.544 17.7889 8.368C17.7889 8.184 17.7889 8 17.7889 7.816C17.7969 7.624 17.8009 7.44 17.8009 7.264C17.8009 7.08 17.7969 6.912 17.7889 6.76V6.388ZM13.6489 8.632C13.6409 8.536 13.6369 8.44 13.6369 8.344C13.6369 8.248 13.6369 8.152 13.6369 8.056V4.24C13.6369 4.112 13.6369 3.984 13.6369 3.856C13.6369 3.728 13.6289 3.596 13.6129 3.46C13.6049 3.42 13.5929 3.364 13.5769 3.292C13.5689 3.22 13.5449 3.176 13.5049 3.16C13.4649 3.136 13.4169 3.128 13.3609 3.136C13.3129 3.136 13.2649 3.132 13.2169 3.124C13.1609 3.116 13.1049 3.116 13.0489 3.124C13.0009 3.132 12.9489 3.132 12.8929 3.124H12.3289C12.1929 3.132 12.0569 3.132 11.9209 3.124C11.7849 3.116 11.6489 3.116 11.5129 3.124C11.4489 3.132 11.3889 3.136 11.3329 3.136C11.2849 3.128 11.2289 3.124 11.1649 3.124C11.0769 3.124 10.9849 3.12 10.8889 3.112C10.7929 3.104 10.7049 3.072 10.6249 3.016C10.5129 2.936 10.4369 2.836 10.3969 2.716C10.3569 2.596 10.3369 2.472 10.3369 2.344C10.3289 2.192 10.3609 2.04 10.4329 1.888C10.4729 1.792 10.5249 1.724 10.5889 1.684C10.6289 1.644 10.6849 1.612 10.7569 1.588C10.8369 1.556 10.9049 1.532 10.9609 1.516C11.1289 1.476 11.3049 1.456 11.4889 1.456C11.6729 1.448 11.8529 1.444 12.0289 1.444H14.1169C14.2209 1.46 14.3289 1.476 14.4409 1.492C14.5609 1.5 14.6689 1.524 14.7649 1.564C14.8289 1.588 14.8889 1.62 14.9449 1.66C15.0089 1.7 15.0609 1.748 15.1009 1.804C15.1729 1.916 15.2129 2.028 15.2209 2.14C15.2369 2.252 15.2529 2.376 15.2689 2.512C15.2849 2.736 15.2929 2.96 15.2929 3.184C15.2929 3.4 15.2929 3.62 15.2929 3.844V7.78C15.2929 7.788 15.2929 7.852 15.2929 7.972C15.3009 8.084 15.3049 8.22 15.3049 8.38C15.3049 8.532 15.3049 8.696 15.3049 8.872C15.3049 9.04 15.3009 9.188 15.2929 9.316C15.2849 9.396 15.2729 9.48 15.2569 9.568C15.2409 9.656 15.2129 9.74 15.1729 9.82C15.1409 9.9 15.0929 9.972 15.0289 10.036C14.9649 10.1 14.8809 10.152 14.7769 10.192C14.6409 10.248 14.5049 10.276 14.3689 10.276C14.2649 10.276 14.1609 10.256 14.0569 10.216C13.9529 10.168 13.8809 10.1 13.8409 10.012C13.7129 9.756 13.6489 9.472 13.6489 9.16V8.632Z"/>
<path d="M25.3619 1.384C25.4979 1.44 25.6259 1.504 25.7459 1.576C25.8739 1.64 25.9939 1.716 26.1059 1.804C26.2339 1.924 26.3499 2.056 26.4539 2.2C26.5579 2.344 26.6299 2.5 26.6699 2.668C26.7099 2.82 26.7419 2.98 26.7659 3.148C26.7979 3.308 26.8059 3.468 26.7899 3.628C26.7819 3.732 26.7699 3.836 26.7539 3.94C26.7459 4.044 26.7259 4.144 26.6939 4.24C26.6299 4.512 26.5179 4.768 26.3579 5.008C26.1979 5.24 25.9819 5.432 25.7099 5.584C25.5099 5.696 25.2979 5.78 25.0739 5.836C24.8579 5.884 24.6339 5.924 24.4019 5.956C24.3219 5.972 24.2459 5.984 24.1739 5.992C24.1019 5.992 24.0259 5.996 23.9459 6.004C23.8819 6.012 23.8139 6.016 23.7419 6.016C23.6779 6.008 23.6099 6 23.5379 5.992C23.4259 5.984 23.3139 5.976 23.2019 5.968C23.0979 5.952 22.9899 5.94 22.8779 5.932C22.6539 5.9 22.4339 5.844 22.2179 5.764C22.0019 5.676 21.8059 5.572 21.6299 5.452C21.2939 5.228 21.0579 4.944 20.9219 4.6C20.7939 4.256 20.7299 3.904 20.7299 3.544C20.7299 3.368 20.7499 3.184 20.7899 2.992C20.8299 2.8 20.8939 2.616 20.9819 2.44C21.0699 2.264 21.1819 2.1 21.3179 1.948C21.4539 1.788 21.6179 1.648 21.8099 1.528C21.9539 1.44 22.1019 1.368 22.2539 1.312C22.4059 1.248 22.5659 1.196 22.7339 1.156C22.9979 1.108 23.2659 1.084 23.5379 1.084C23.8579 1.068 24.1579 1.084 24.4379 1.132C24.5099 1.148 24.5819 1.164 24.6539 1.18C24.7259 1.188 24.7979 1.2 24.8699 1.216C25.0459 1.264 25.2099 1.32 25.3619 1.384ZM29.3099 10.396C29.2699 10.5 29.1939 10.584 29.0819 10.648C28.9939 10.704 28.8979 10.736 28.7939 10.744C28.6899 10.76 28.5859 10.76 28.4819 10.744C28.3619 10.72 28.2619 10.672 28.1819 10.6C28.1099 10.536 28.0539 10.452 28.0139 10.348C27.9819 10.252 27.9539 10.156 27.9299 10.06C27.9139 9.964 27.9059 9.88 27.9059 9.808C27.9059 9.736 27.9059 9.7 27.9059 9.7V2.392C27.9059 2.304 27.9059 2.204 27.9059 2.092C27.9059 1.98 27.9139 1.868 27.9299 1.756C27.9459 1.644 27.9659 1.544 27.9899 1.456C28.0219 1.36 28.0659 1.284 28.1219 1.228C28.2099 1.14 28.3019 1.088 28.3979 1.072C28.4939 1.056 28.5979 1.048 28.7099 1.048C28.8459 1.048 28.9699 1.084 29.0819 1.156C29.1939 1.228 29.2739 1.328 29.3219 1.456C29.3939 1.624 29.4339 1.8 29.4419 1.984C29.4499 2.16 29.4579 2.34 29.4659 2.524C29.4819 3.164 29.4859 3.804 29.4779 4.444C29.4699 5.084 29.4659 5.688 29.4659 6.256V9.256C29.4659 9.44 29.4539 9.628 29.4299 9.82C29.4139 10.004 29.3739 10.196 29.3099 10.396ZM21.2939 7.984C21.1819 7.976 21.0699 7.956 20.9579 7.924C20.8459 7.884 20.7419 7.812 20.6459 7.708C20.5499 7.612 20.5019 7.472 20.5019 7.288C20.5019 7.12 20.5499 6.98 20.6459 6.868C20.7019 6.804 20.7699 6.756 20.8499 6.724C20.9379 6.692 21.0219 6.668 21.1019 6.652C21.1819 6.636 21.2499 6.628 21.3059 6.628C21.3699 6.628 21.4059 6.628 21.4139 6.628H26.1299C26.2899 6.628 26.4579 6.636 26.6339 6.652C26.8099 6.668 26.9579 6.732 27.0779 6.844C27.1499 6.916 27.1979 6.992 27.2219 7.072C27.2539 7.152 27.2699 7.24 27.2699 7.336C27.2699 7.456 27.2419 7.568 27.1859 7.672C27.1299 7.768 27.0459 7.836 26.9339 7.876C26.7899 7.94 26.6419 7.98 26.4899 7.996C26.3379 8.004 26.1859 8.012 26.0339 8.02C25.7939 8.028 25.6099 8.036 25.4819 8.044C25.3619 8.052 25.2579 8.06 25.1699 8.068C25.0899 8.068 25.0099 8.068 24.9299 8.068C24.8499 8.068 24.7379 8.068 24.5939 8.068L24.5699 9.748C24.5699 9.868 24.5459 9.98 24.4979 10.084C24.4499 10.188 24.3819 10.276 24.2939 10.348C24.2139 10.428 24.1219 10.488 24.0179 10.528C23.9139 10.568 23.8059 10.584 23.6939 10.576C23.6059 10.568 23.5219 10.552 23.4419 10.528C23.3619 10.504 23.2899 10.464 23.2259 10.408C23.1619 10.36 23.1099 10.292 23.0699 10.204C23.0299 10.108 23.0099 9.984 23.0099 9.832L22.9739 8.056C22.6939 8.048 22.4259 8.04 22.1699 8.032C21.9219 8.016 21.6299 8 21.2939 7.984ZM25.1459 3.916C25.1939 3.684 25.1779 3.464 25.0979 3.256C25.0819 3.216 25.0619 3.172 25.0379 3.124C25.0139 3.076 24.9819 3.032 24.9419 2.992C24.9019 2.944 24.8619 2.904 24.8219 2.872C24.7899 2.832 24.7419 2.792 24.6779 2.752C24.6219 2.712 24.5579 2.676 24.4859 2.644C24.4219 2.612 24.3539 2.584 24.2819 2.56C24.0739 2.504 23.8659 2.476 23.6579 2.476C23.4499 2.476 23.2579 2.508 23.0819 2.572C22.9059 2.636 22.7539 2.736 22.6259 2.872C22.4979 3.008 22.4179 3.184 22.3859 3.4C22.3619 3.536 22.3579 3.676 22.3739 3.82C22.3979 3.964 22.4499 4.092 22.5299 4.204C22.6979 4.42 22.9299 4.58 23.2259 4.684C23.3379 4.724 23.4499 4.752 23.5619 4.768C23.6739 4.776 23.7859 4.776 23.8979 4.768C24.0099 4.76 24.1219 4.748 24.2339 4.732C24.3539 4.716 24.4659 4.684 24.5699 4.636C24.7219 4.564 24.8459 4.464 24.9419 4.336C25.0379 4.2 25.1059 4.06 25.1459 3.916Z"/>
<path d="M34.0508 8.632C34.0428 8.536 34.0388 8.44 34.0388 8.344C34.0388 8.248 34.0388 8.152 34.0388 8.056V6.352C33.8148 6.36 33.6028 6.364 33.4028 6.364C33.2108 6.356 33.0388 6.348 32.8868 6.34C32.7588 6.34 32.6588 6.34 32.5868 6.34C32.5148 6.34 32.4468 6.34 32.3828 6.34C32.3188 6.34 32.2468 6.34 32.1668 6.34C32.0948 6.34 31.9988 6.34 31.8788 6.34C31.6548 6.34 31.4228 6.32 31.1828 6.28C30.9428 6.24 30.7308 6.14 30.5468 5.98C30.4268 5.868 30.3468 5.748 30.3068 5.62C30.2748 5.484 30.3028 5.348 30.3908 5.212C30.5028 5.044 30.6628 4.936 30.8708 4.888C31.0788 4.832 31.2708 4.792 31.4468 4.768C31.5508 4.752 31.6148 4.744 31.6388 4.744C31.6628 4.744 31.6748 4.744 31.6748 4.744C31.6748 4.744 31.6828 4.748 31.6988 4.756C31.7228 4.756 31.7908 4.752 31.9028 4.744H34.0388V4C34.0388 3.872 34.0388 3.764 34.0388 3.676C34.0388 3.588 34.0308 3.476 34.0148 3.34C34.0068 3.3 33.9948 3.244 33.9788 3.172C33.9708 3.1 33.9468 3.056 33.9068 3.04C33.8668 3.016 33.8188 3.008 33.7628 3.016C33.7148 3.016 33.6668 3.012 33.6188 3.004C33.5628 2.996 33.5068 2.996 33.4508 3.004C33.4028 3.012 33.3508 3.012 33.2948 3.004H32.3588C32.2228 3.012 32.0868 3.012 31.9508 3.004C31.8148 2.996 31.6788 2.996 31.5428 3.004C31.4788 3.012 31.4188 3.016 31.3628 3.016C31.3148 3.008 31.2588 3.004 31.1948 3.004C31.1068 3.004 31.0148 3 30.9188 2.992C30.8228 2.984 30.7348 2.952 30.6548 2.896C30.5428 2.816 30.4668 2.716 30.4268 2.596C30.3868 2.476 30.3668 2.352 30.3668 2.224C30.3588 2.072 30.3908 1.92 30.4628 1.768C30.5028 1.672 30.5548 1.604 30.6188 1.564C30.6588 1.524 30.7148 1.492 30.7868 1.468C30.8668 1.436 30.9348 1.412 30.9908 1.396C31.1588 1.356 31.3348 1.336 31.5188 1.336C31.7028 1.328 31.8828 1.324 32.0588 1.324H34.5188C34.6228 1.34 34.7308 1.356 34.8428 1.372C34.9628 1.38 35.0708 1.404 35.1668 1.444C35.2308 1.468 35.2908 1.5 35.3468 1.54C35.4108 1.58 35.4628 1.628 35.5028 1.684C35.5748 1.796 35.6148 1.908 35.6228 2.02C35.6388 2.132 35.6548 2.256 35.6708 2.392C35.6868 2.616 35.6948 2.84 35.6948 3.064C35.6948 3.28 35.6948 3.5 35.6948 3.724V7.78C35.6948 7.788 35.6948 7.852 35.6948 7.972C35.7028 8.084 35.7068 8.22 35.7068 8.38C35.7068 8.532 35.7068 8.696 35.7068 8.872C35.7068 9.04 35.7028 9.188 35.6948 9.316C35.6868 9.396 35.6748 9.48 35.6588 9.568C35.6428 9.656 35.6148 9.74 35.5748 9.82C35.5428 9.9 35.4948 9.972 35.4308 10.036C35.3668 10.1 35.2828 10.152 35.1788 10.192C35.0428 10.248 34.9068 10.276 34.7708 10.276C34.6668 10.276 34.5628 10.256 34.4588 10.216C34.3548 10.168 34.2828 10.1 34.2428 10.012C34.1148 9.756 34.0508 9.472 34.0508 9.16V8.632ZM39.0188 9.664C39.0028 9.76 38.9908 9.856 38.9828 9.952C38.9748 10.04 38.9548 10.132 38.9228 10.228C38.9068 10.26 38.8948 10.288 38.8868 10.312C38.8788 10.336 38.8668 10.364 38.8508 10.396C38.7948 10.508 38.7228 10.596 38.6348 10.66C38.4508 10.772 38.2468 10.8 38.0228 10.744C37.8948 10.72 37.7908 10.672 37.7108 10.6C37.6388 10.536 37.5828 10.452 37.5428 10.348C37.5108 10.252 37.4828 10.156 37.4588 10.06C37.4428 9.964 37.4348 9.88 37.4348 9.808C37.4348 9.736 37.4348 9.696 37.4348 9.688V2.416C37.4348 2.32 37.4348 2.216 37.4348 2.104C37.4348 1.992 37.4428 1.88 37.4588 1.768C37.4748 1.656 37.4988 1.552 37.5308 1.456C37.5628 1.36 37.6068 1.284 37.6628 1.228C37.7508 1.14 37.8428 1.088 37.9388 1.072C38.0348 1.048 38.1388 1.036 38.2508 1.036C38.3868 1.036 38.5108 1.076 38.6228 1.156C38.7428 1.228 38.8268 1.332 38.8748 1.468C38.9468 1.636 38.9868 1.812 38.9948 1.996C39.0028 2.18 39.0108 2.364 39.0188 2.548V2.608C39.0348 3.224 39.0388 3.856 39.0308 4.504C39.0228 5.152 39.0188 5.764 39.0188 6.34V9.232C39.0188 9.304 39.0188 9.376 39.0188 9.448C39.0268 9.52 39.0268 9.592 39.0188 9.664Z"/>
</mask>
<path d="M4.636 2.62C4.636 2.54 4.64 2.428 4.648 2.284C4.656 2.14 4.684 1.996 4.732 1.852C4.78 1.708 4.852 1.584 4.948 1.48C5.052 1.376 5.2 1.324 5.392 1.324C5.56 1.324 5.708 1.368 5.836 1.456C5.932 1.52 6.004 1.636 6.052 1.804C6.108 1.964 6.144 2.144 6.16 2.344C6.184 2.544 6.196 2.744 6.196 2.944C6.196 3.144 6.192 3.308 6.184 3.436V7.84C6.184 7.864 6.184 7.952 6.184 8.104C6.184 8.248 6.176 8.416 6.16 8.608C6.144 8.792 6.116 8.984 6.076 9.184C6.044 9.376 5.996 9.532 5.932 9.652C5.908 9.708 5.868 9.768 5.812 9.832C5.764 9.888 5.728 9.928 5.704 9.952C5.64 10.016 5.568 10.064 5.488 10.096C5.416 10.128 5.34 10.156 5.26 10.18C5.18 10.196 5.108 10.208 5.044 10.216C4.98 10.224 4.936 10.228 4.912 10.228H2.392C2.2 10.228 2.016 10.212 1.84 10.18C1.672 10.148 1.516 10.076 1.372 9.964C1.268 9.884 1.188 9.784 1.132 9.664C1.084 9.536 1.048 9.412 1.024 9.292C1.008 9.172 1 9.064 1 8.968C1 8.864 1 8.8 1 8.776V2.5C1 2.388 1.012 2.264 1.036 2.128C1.068 1.992 1.112 1.868 1.168 1.756C1.232 1.636 1.312 1.54 1.408 1.468C1.504 1.388 1.624 1.348 1.768 1.348C2.168 1.348 2.428 1.52 2.548 1.864C2.588 1.976 2.612 2.088 2.62 2.2C2.628 2.312 2.636 2.424 2.644 2.536V2.56C2.644 2.616 2.644 2.748 2.644 2.956C2.644 3.164 2.644 3.392 2.644 3.64C2.644 3.88 2.644 4.116 2.644 4.348C2.652 4.572 2.656 4.732 2.656 4.828C2.696 4.828 2.8 4.828 2.968 4.828C3.136 4.828 3.324 4.828 3.532 4.828C3.748 4.828 3.956 4.824 4.156 4.816C4.356 4.808 4.508 4.792 4.612 4.768L4.636 4.216V2.62ZM7.864 6.448C7.752 6.432 7.64 6.424 7.528 6.424C7.424 6.416 7.316 6.404 7.204 6.388C7.068 6.38 6.944 6.348 6.832 6.292C6.72 6.236 6.628 6.164 6.556 6.076C6.484 5.988 6.436 5.88 6.412 5.752C6.396 5.624 6.408 5.484 6.448 5.332C6.464 5.268 6.496 5.2 6.544 5.128C6.6 5.056 6.652 5 6.7 4.96C6.812 4.88 6.924 4.828 7.036 4.804C7.164 4.788 7.296 4.784 7.432 4.792C7.576 4.8 7.716 4.796 7.852 4.78H7.888V4.732C7.888 4.636 7.888 4.556 7.888 4.492C7.896 4.428 7.9 4.368 7.9 4.312C7.9 4.256 7.896 4.196 7.888 4.132C7.888 4.068 7.888 3.984 7.888 3.88C7.888 3.672 7.884 3.468 7.876 3.268C7.876 3.06 7.88 2.856 7.888 2.656V2.488C7.888 2.384 7.888 2.272 7.888 2.152C7.896 2.024 7.908 1.9 7.924 1.78C7.94 1.652 7.968 1.536 8.008 1.432C8.048 1.32 8.104 1.228 8.176 1.156C8.296 1.052 8.424 1 8.56 1H8.584C8.776 1.008 8.928 1.068 9.04 1.18C9.16 1.284 9.248 1.412 9.304 1.564C9.368 1.716 9.408 1.876 9.424 2.044C9.44 2.204 9.448 2.348 9.448 2.476V9.676C9.448 9.684 9.448 9.724 9.448 9.796C9.448 9.86 9.44 9.94 9.424 10.036C9.408 10.132 9.384 10.228 9.352 10.324C9.32 10.42 9.268 10.5 9.196 10.564C9.14 10.62 9.06 10.664 8.956 10.696C8.852 10.728 8.756 10.744 8.668 10.744C8.476 10.744 8.324 10.68 8.212 10.552C8.108 10.44 8.044 10.324 8.02 10.204C7.996 10.084 7.976 9.956 7.96 9.82C7.96 9.796 7.956 9.772 7.948 9.748C7.948 9.724 7.948 9.696 7.948 9.664C7.932 9.536 7.924 9.4 7.924 9.256C7.924 9.112 7.92 8.968 7.912 8.824C7.904 8.736 7.9 8.652 7.9 8.572C7.9 8.484 7.9 8.396 7.9 8.308V8.032C7.9 7.952 7.9 7.852 7.9 7.732C7.9 7.612 7.896 7.492 7.888 7.372C7.888 7.252 7.888 7.136 7.888 7.024C7.888 6.904 7.888 6.8 7.888 6.712C7.888 6.672 7.888 6.628 7.888 6.58C7.888 6.532 7.88 6.488 7.864 6.448ZM4.636 8.764L4.624 6.28L2.548 6.292C2.54 6.46 2.536 6.668 2.536 6.916C2.544 7.164 2.548 7.372 2.548 7.54C2.548 7.604 2.548 7.692 2.548 7.804C2.548 7.916 2.548 8.036 2.548 8.164C2.548 8.292 2.548 8.412 2.548 8.524C2.548 8.636 2.548 8.72 2.548 8.776L4.636 8.764Z" fill="#FF9D3B"/>
<path d="M17.7889 6.388C17.7489 6.388 17.6609 6.384 17.5249 6.376C17.3889 6.368 17.2889 6.364 17.2249 6.364C17.1449 6.364 17.0689 6.364 16.9969 6.364C16.9329 6.356 16.8689 6.344 16.8049 6.328C16.7409 6.328 16.6769 6.32 16.6129 6.304C16.5569 6.288 16.4969 6.268 16.4329 6.244C16.3289 6.188 16.2449 6.12 16.1809 6.04C16.1409 5.984 16.1049 5.932 16.0729 5.884C16.0489 5.836 16.0369 5.78 16.0369 5.716C16.0209 5.62 16.0249 5.508 16.0489 5.38C16.0809 5.252 16.1249 5.156 16.1809 5.092C16.2049 5.052 16.2249 5.02 16.2409 4.996C16.2649 4.972 16.2929 4.944 16.3249 4.912C16.3729 4.872 16.4249 4.844 16.4809 4.828C16.5369 4.804 16.5889 4.784 16.6369 4.768C16.7249 4.752 16.8049 4.744 16.8769 4.744C16.9569 4.744 17.0329 4.744 17.1049 4.744H17.8129V3.88C17.8129 3.784 17.8089 3.696 17.8009 3.616C17.7929 3.536 17.7889 3.452 17.7889 3.364C17.7889 3.172 17.7889 2.984 17.7889 2.8C17.7889 2.608 17.7969 2.416 17.8129 2.224C17.8129 2.104 17.8209 1.98 17.8369 1.852C17.8609 1.724 17.8929 1.604 17.9329 1.492C17.9649 1.396 18.0209 1.304 18.1009 1.216C18.2049 1.12 18.3249 1.072 18.4609 1.072H18.4849C18.6529 1.072 18.7889 1.104 18.8929 1.168C18.9969 1.224 19.0809 1.304 19.1449 1.408C19.2169 1.504 19.2649 1.616 19.2889 1.744C19.3209 1.872 19.3409 2 19.3489 2.128C19.3729 2.336 19.3849 2.552 19.3849 2.776C19.3849 3 19.3849 3.22 19.3849 3.436V8.704C19.3849 8.976 19.3889 9.256 19.3969 9.544C19.4049 9.824 19.3649 10.092 19.2769 10.348C19.2369 10.452 19.1849 10.536 19.1209 10.6C19.0969 10.616 19.0609 10.636 19.0129 10.66C18.9649 10.684 18.9169 10.704 18.8689 10.72C18.8209 10.736 18.7729 10.748 18.7249 10.756C18.6849 10.764 18.6449 10.768 18.6049 10.768C18.4209 10.768 18.2729 10.712 18.1609 10.6C18.0569 10.496 17.9769 10.368 17.9209 10.216C17.8649 10.056 17.8289 9.892 17.8129 9.724C17.7969 9.556 17.7889 9.408 17.7889 9.28V8.848C17.7889 8.704 17.7889 8.544 17.7889 8.368C17.7889 8.184 17.7889 8 17.7889 7.816C17.7969 7.624 17.8009 7.44 17.8009 7.264C17.8009 7.08 17.7969 6.912 17.7889 6.76V6.388ZM13.6489 8.632C13.6409 8.536 13.6369 8.44 13.6369 8.344C13.6369 8.248 13.6369 8.152 13.6369 8.056V4.24C13.6369 4.112 13.6369 3.984 13.6369 3.856C13.6369 3.728 13.6289 3.596 13.6129 3.46C13.6049 3.42 13.5929 3.364 13.5769 3.292C13.5689 3.22 13.5449 3.176 13.5049 3.16C13.4649 3.136 13.4169 3.128 13.3609 3.136C13.3129 3.136 13.2649 3.132 13.2169 3.124C13.1609 3.116 13.1049 3.116 13.0489 3.124C13.0009 3.132 12.9489 3.132 12.8929 3.124H12.3289C12.1929 3.132 12.0569 3.132 11.9209 3.124C11.7849 3.116 11.6489 3.116 11.5129 3.124C11.4489 3.132 11.3889 3.136 11.3329 3.136C11.2849 3.128 11.2289 3.124 11.1649 3.124C11.0769 3.124 10.9849 3.12 10.8889 3.112C10.7929 3.104 10.7049 3.072 10.6249 3.016C10.5129 2.936 10.4369 2.836 10.3969 2.716C10.3569 2.596 10.3369 2.472 10.3369 2.344C10.3289 2.192 10.3609 2.04 10.4329 1.888C10.4729 1.792 10.5249 1.724 10.5889 1.684C10.6289 1.644 10.6849 1.612 10.7569 1.588C10.8369 1.556 10.9049 1.532 10.9609 1.516C11.1289 1.476 11.3049 1.456 11.4889 1.456C11.6729 1.448 11.8529 1.444 12.0289 1.444H14.1169C14.2209 1.46 14.3289 1.476 14.4409 1.492C14.5609 1.5 14.6689 1.524 14.7649 1.564C14.8289 1.588 14.8889 1.62 14.9449 1.66C15.0089 1.7 15.0609 1.748 15.1009 1.804C15.1729 1.916 15.2129 2.028 15.2209 2.14C15.2369 2.252 15.2529 2.376 15.2689 2.512C15.2849 2.736 15.2929 2.96 15.2929 3.184C15.2929 3.4 15.2929 3.62 15.2929 3.844V7.78C15.2929 7.788 15.2929 7.852 15.2929 7.972C15.3009 8.084 15.3049 8.22 15.3049 8.38C15.3049 8.532 15.3049 8.696 15.3049 8.872C15.3049 9.04 15.3009 9.188 15.2929 9.316C15.2849 9.396 15.2729 9.48 15.2569 9.568C15.2409 9.656 15.2129 9.74 15.1729 9.82C15.1409 9.9 15.0929 9.972 15.0289 10.036C14.9649 10.1 14.8809 10.152 14.7769 10.192C14.6409 10.248 14.5049 10.276 14.3689 10.276C14.2649 10.276 14.1609 10.256 14.0569 10.216C13.9529 10.168 13.8809 10.1 13.8409 10.012C13.7129 9.756 13.6489 9.472 13.6489 9.16V8.632Z" fill="#FF9D3B"/>
<path d="M25.3619 1.384C25.4979 1.44 25.6259 1.504 25.7459 1.576C25.8739 1.64 25.9939 1.716 26.1059 1.804C26.2339 1.924 26.3499 2.056 26.4539 2.2C26.5579 2.344 26.6299 2.5 26.6699 2.668C26.7099 2.82 26.7419 2.98 26.7659 3.148C26.7979 3.308 26.8059 3.468 26.7899 3.628C26.7819 3.732 26.7699 3.836 26.7539 3.94C26.7459 4.044 26.7259 4.144 26.6939 4.24C26.6299 4.512 26.5179 4.768 26.3579 5.008C26.1979 5.24 25.9819 5.432 25.7099 5.584C25.5099 5.696 25.2979 5.78 25.0739 5.836C24.8579 5.884 24.6339 5.924 24.4019 5.956C24.3219 5.972 24.2459 5.984 24.1739 5.992C24.1019 5.992 24.0259 5.996 23.9459 6.004C23.8819 6.012 23.8139 6.016 23.7419 6.016C23.6779 6.008 23.6099 6 23.5379 5.992C23.4259 5.984 23.3139 5.976 23.2019 5.968C23.0979 5.952 22.9899 5.94 22.8779 5.932C22.6539 5.9 22.4339 5.844 22.2179 5.764C22.0019 5.676 21.8059 5.572 21.6299 5.452C21.2939 5.228 21.0579 4.944 20.9219 4.6C20.7939 4.256 20.7299 3.904 20.7299 3.544C20.7299 3.368 20.7499 3.184 20.7899 2.992C20.8299 2.8 20.8939 2.616 20.9819 2.44C21.0699 2.264 21.1819 2.1 21.3179 1.948C21.4539 1.788 21.6179 1.648 21.8099 1.528C21.9539 1.44 22.1019 1.368 22.2539 1.312C22.4059 1.248 22.5659 1.196 22.7339 1.156C22.9979 1.108 23.2659 1.084 23.5379 1.084C23.8579 1.068 24.1579 1.084 24.4379 1.132C24.5099 1.148 24.5819 1.164 24.6539 1.18C24.7259 1.188 24.7979 1.2 24.8699 1.216C25.0459 1.264 25.2099 1.32 25.3619 1.384ZM29.3099 10.396C29.2699 10.5 29.1939 10.584 29.0819 10.648C28.9939 10.704 28.8979 10.736 28.7939 10.744C28.6899 10.76 28.5859 10.76 28.4819 10.744C28.3619 10.72 28.2619 10.672 28.1819 10.6C28.1099 10.536 28.0539 10.452 28.0139 10.348C27.9819 10.252 27.9539 10.156 27.9299 10.06C27.9139 9.964 27.9059 9.88 27.9059 9.808C27.9059 9.736 27.9059 9.7 27.9059 9.7V2.392C27.9059 2.304 27.9059 2.204 27.9059 2.092C27.9059 1.98 27.9139 1.868 27.9299 1.756C27.9459 1.644 27.9659 1.544 27.9899 1.456C28.0219 1.36 28.0659 1.284 28.1219 1.228C28.2099 1.14 28.3019 1.088 28.3979 1.072C28.4939 1.056 28.5979 1.048 28.7099 1.048C28.8459 1.048 28.9699 1.084 29.0819 1.156C29.1939 1.228 29.2739 1.328 29.3219 1.456C29.3939 1.624 29.4339 1.8 29.4419 1.984C29.4499 2.16 29.4579 2.34 29.4659 2.524C29.4819 3.164 29.4859 3.804 29.4779 4.444C29.4699 5.084 29.4659 5.688 29.4659 6.256V9.256C29.4659 9.44 29.4539 9.628 29.4299 9.82C29.4139 10.004 29.3739 10.196 29.3099 10.396ZM21.2939 7.984C21.1819 7.976 21.0699 7.956 20.9579 7.924C20.8459 7.884 20.7419 7.812 20.6459 7.708C20.5499 7.612 20.5019 7.472 20.5019 7.288C20.5019 7.12 20.5499 6.98 20.6459 6.868C20.7019 6.804 20.7699 6.756 20.8499 6.724C20.9379 6.692 21.0219 6.668 21.1019 6.652C21.1819 6.636 21.2499 6.628 21.3059 6.628C21.3699 6.628 21.4059 6.628 21.4139 6.628H26.1299C26.2899 6.628 26.4579 6.636 26.6339 6.652C26.8099 6.668 26.9579 6.732 27.0779 6.844C27.1499 6.916 27.1979 6.992 27.2219 7.072C27.2539 7.152 27.2699 7.24 27.2699 7.336C27.2699 7.456 27.2419 7.568 27.1859 7.672C27.1299 7.768 27.0459 7.836 26.9339 7.876C26.7899 7.94 26.6419 7.98 26.4899 7.996C26.3379 8.004 26.1859 8.012 26.0339 8.02C25.7939 8.028 25.6099 8.036 25.4819 8.044C25.3619 8.052 25.2579 8.06 25.1699 8.068C25.0899 8.068 25.0099 8.068 24.9299 8.068C24.8499 8.068 24.7379 8.068 24.5939 8.068L24.5699 9.748C24.5699 9.868 24.5459 9.98 24.4979 10.084C24.4499 10.188 24.3819 10.276 24.2939 10.348C24.2139 10.428 24.1219 10.488 24.0179 10.528C23.9139 10.568 23.8059 10.584 23.6939 10.576C23.6059 10.568 23.5219 10.552 23.4419 10.528C23.3619 10.504 23.2899 10.464 23.2259 10.408C23.1619 10.36 23.1099 10.292 23.0699 10.204C23.0299 10.108 23.0099 9.984 23.0099 9.832L22.9739 8.056C22.6939 8.048 22.4259 8.04 22.1699 8.032C21.9219 8.016 21.6299 8 21.2939 7.984ZM25.1459 3.916C25.1939 3.684 25.1779 3.464 25.0979 3.256C25.0819 3.216 25.0619 3.172 25.0379 3.124C25.0139 3.076 24.9819 3.032 24.9419 2.992C24.9019 2.944 24.8619 2.904 24.8219 2.872C24.7899 2.832 24.7419 2.792 24.6779 2.752C24.6219 2.712 24.5579 2.676 24.4859 2.644C24.4219 2.612 24.3539 2.584 24.2819 2.56C24.0739 2.504 23.8659 2.476 23.6579 2.476C23.4499 2.476 23.2579 2.508 23.0819 2.572C22.9059 2.636 22.7539 2.736 22.6259 2.872C22.4979 3.008 22.4179 3.184 22.3859 3.4C22.3619 3.536 22.3579 3.676 22.3739 3.82C22.3979 3.964 22.4499 4.092 22.5299 4.204C22.6979 4.42 22.9299 4.58 23.2259 4.684C23.3379 4.724 23.4499 4.752 23.5619 4.768C23.6739 4.776 23.7859 4.776 23.8979 4.768C24.0099 4.76 24.1219 4.748 24.2339 4.732C24.3539 4.716 24.4659 4.684 24.5699 4.636C24.7219 4.564 24.8459 4.464 24.9419 4.336C25.0379 4.2 25.1059 4.06 25.1459 3.916Z" fill="#FF9D3B"/>
<path d="M34.0508 8.632C34.0428 8.536 34.0388 8.44 34.0388 8.344C34.0388 8.248 34.0388 8.152 34.0388 8.056V6.352C33.8148 6.36 33.6028 6.364 33.4028 6.364C33.2108 6.356 33.0388 6.348 32.8868 6.34C32.7588 6.34 32.6588 6.34 32.5868 6.34C32.5148 6.34 32.4468 6.34 32.3828 6.34C32.3188 6.34 32.2468 6.34 32.1668 6.34C32.0948 6.34 31.9988 6.34 31.8788 6.34C31.6548 6.34 31.4228 6.32 31.1828 6.28C30.9428 6.24 30.7308 6.14 30.5468 5.98C30.4268 5.868 30.3468 5.748 30.3068 5.62C30.2748 5.484 30.3028 5.348 30.3908 5.212C30.5028 5.044 30.6628 4.936 30.8708 4.888C31.0788 4.832 31.2708 4.792 31.4468 4.768C31.5508 4.752 31.6148 4.744 31.6388 4.744C31.6628 4.744 31.6748 4.744 31.6748 4.744C31.6748 4.744 31.6828 4.748 31.6988 4.756C31.7228 4.756 31.7908 4.752 31.9028 4.744H34.0388V4C34.0388 3.872 34.0388 3.764 34.0388 3.676C34.0388 3.588 34.0308 3.476 34.0148 3.34C34.0068 3.3 33.9948 3.244 33.9788 3.172C33.9708 3.1 33.9468 3.056 33.9068 3.04C33.8668 3.016 33.8188 3.008 33.7628 3.016C33.7148 3.016 33.6668 3.012 33.6188 3.004C33.5628 2.996 33.5068 2.996 33.4508 3.004C33.4028 3.012 33.3508 3.012 33.2948 3.004H32.3588C32.2228 3.012 32.0868 3.012 31.9508 3.004C31.8148 2.996 31.6788 2.996 31.5428 3.004C31.4788 3.012 31.4188 3.016 31.3628 3.016C31.3148 3.008 31.2588 3.004 31.1948 3.004C31.1068 3.004 31.0148 3 30.9188 2.992C30.8228 2.984 30.7348 2.952 30.6548 2.896C30.5428 2.816 30.4668 2.716 30.4268 2.596C30.3868 2.476 30.3668 2.352 30.3668 2.224C30.3588 2.072 30.3908 1.92 30.4628 1.768C30.5028 1.672 30.5548 1.604 30.6188 1.564C30.6588 1.524 30.7148 1.492 30.7868 1.468C30.8668 1.436 30.9348 1.412 30.9908 1.396C31.1588 1.356 31.3348 1.336 31.5188 1.336C31.7028 1.328 31.8828 1.324 32.0588 1.324H34.5188C34.6228 1.34 34.7308 1.356 34.8428 1.372C34.9628 1.38 35.0708 1.404 35.1668 1.444C35.2308 1.468 35.2908 1.5 35.3468 1.54C35.4108 1.58 35.4628 1.628 35.5028 1.684C35.5748 1.796 35.6148 1.908 35.6228 2.02C35.6388 2.132 35.6548 2.256 35.6708 2.392C35.6868 2.616 35.6948 2.84 35.6948 3.064C35.6948 3.28 35.6948 3.5 35.6948 3.724V7.78C35.6948 7.788 35.6948 7.852 35.6948 7.972C35.7028 8.084 35.7068 8.22 35.7068 8.38C35.7068 8.532 35.7068 8.696 35.7068 8.872C35.7068 9.04 35.7028 9.188 35.6948 9.316C35.6868 9.396 35.6748 9.48 35.6588 9.568C35.6428 9.656 35.6148 9.74 35.5748 9.82C35.5428 9.9 35.4948 9.972 35.4308 10.036C35.3668 10.1 35.2828 10.152 35.1788 10.192C35.0428 10.248 34.9068 10.276 34.7708 10.276C34.6668 10.276 34.5628 10.256 34.4588 10.216C34.3548 10.168 34.2828 10.1 34.2428 10.012C34.1148 9.756 34.0508 9.472 34.0508 9.16V8.632ZM39.0188 9.664C39.0028 9.76 38.9908 9.856 38.9828 9.952C38.9748 10.04 38.9548 10.132 38.9228 10.228C38.9068 10.26 38.8948 10.288 38.8868 10.312C38.8788 10.336 38.8668 10.364 38.8508 10.396C38.7948 10.508 38.7228 10.596 38.6348 10.66C38.4508 10.772 38.2468 10.8 38.0228 10.744C37.8948 10.72 37.7908 10.672 37.7108 10.6C37.6388 10.536 37.5828 10.452 37.5428 10.348C37.5108 10.252 37.4828 10.156 37.4588 10.06C37.4428 9.964 37.4348 9.88 37.4348 9.808C37.4348 9.736 37.4348 9.696 37.4348 9.688V2.416C37.4348 2.32 37.4348 2.216 37.4348 2.104C37.4348 1.992 37.4428 1.88 37.4588 1.768C37.4748 1.656 37.4988 1.552 37.5308 1.456C37.5628 1.36 37.6068 1.284 37.6628 1.228C37.7508 1.14 37.8428 1.088 37.9388 1.072C38.0348 1.048 38.1388 1.036 38.2508 1.036C38.3868 1.036 38.5108 1.076 38.6228 1.156C38.7428 1.228 38.8268 1.332 38.8748 1.468C38.9468 1.636 38.9868 1.812 38.9948 1.996C39.0028 2.18 39.0108 2.364 39.0188 2.548V2.608C39.0348 3.224 39.0388 3.856 39.0308 4.504C39.0228 5.152 39.0188 5.764 39.0188 6.34V9.232C39.0188 9.304 39.0188 9.376 39.0188 9.448C39.0268 9.52 39.0268 9.592 39.0188 9.664Z" fill="#FF9D3B"/>
<path d="M4.636 2.62C4.636 2.54 4.64 2.428 4.648 2.284C4.656 2.14 4.684 1.996 4.732 1.852C4.78 1.708 4.852 1.584 4.948 1.48C5.052 1.376 5.2 1.324 5.392 1.324C5.56 1.324 5.708 1.368 5.836 1.456C5.932 1.52 6.004 1.636 6.052 1.804C6.108 1.964 6.144 2.144 6.16 2.344C6.184 2.544 6.196 2.744 6.196 2.944C6.196 3.144 6.192 3.308 6.184 3.436V7.84C6.184 7.864 6.184 7.952 6.184 8.104C6.184 8.248 6.176 8.416 6.16 8.608C6.144 8.792 6.116 8.984 6.076 9.184C6.044 9.376 5.996 9.532 5.932 9.652C5.908 9.708 5.868 9.768 5.812 9.832C5.764 9.888 5.728 9.928 5.704 9.952C5.64 10.016 5.568 10.064 5.488 10.096C5.416 10.128 5.34 10.156 5.26 10.18C5.18 10.196 5.108 10.208 5.044 10.216C4.98 10.224 4.936 10.228 4.912 10.228H2.392C2.2 10.228 2.016 10.212 1.84 10.18C1.672 10.148 1.516 10.076 1.372 9.964C1.268 9.884 1.188 9.784 1.132 9.664C1.084 9.536 1.048 9.412 1.024 9.292C1.008 9.172 1 9.064 1 8.968C1 8.864 1 8.8 1 8.776V2.5C1 2.388 1.012 2.264 1.036 2.128C1.068 1.992 1.112 1.868 1.168 1.756C1.232 1.636 1.312 1.54 1.408 1.468C1.504 1.388 1.624 1.348 1.768 1.348C2.168 1.348 2.428 1.52 2.548 1.864C2.588 1.976 2.612 2.088 2.62 2.2C2.628 2.312 2.636 2.424 2.644 2.536V2.56C2.644 2.616 2.644 2.748 2.644 2.956C2.644 3.164 2.644 3.392 2.644 3.64C2.644 3.88 2.644 4.116 2.644 4.348C2.652 4.572 2.656 4.732 2.656 4.828C2.696 4.828 2.8 4.828 2.968 4.828C3.136 4.828 3.324 4.828 3.532 4.828C3.748 4.828 3.956 4.824 4.156 4.816C4.356 4.808 4.508 4.792 4.612 4.768L4.636 4.216V2.62ZM7.864 6.448C7.752 6.432 7.64 6.424 7.528 6.424C7.424 6.416 7.316 6.404 7.204 6.388C7.068 6.38 6.944 6.348 6.832 6.292C6.72 6.236 6.628 6.164 6.556 6.076C6.484 5.988 6.436 5.88 6.412 5.752C6.396 5.624 6.408 5.484 6.448 5.332C6.464 5.268 6.496 5.2 6.544 5.128C6.6 5.056 6.652 5 6.7 4.96C6.812 4.88 6.924 4.828 7.036 4.804C7.164 4.788 7.296 4.784 7.432 4.792C7.576 4.8 7.716 4.796 7.852 4.78H7.888V4.732C7.888 4.636 7.888 4.556 7.888 4.492C7.896 4.428 7.9 4.368 7.9 4.312C7.9 4.256 7.896 4.196 7.888 4.132C7.888 4.068 7.888 3.984 7.888 3.88C7.888 3.672 7.884 3.468 7.876 3.268C7.876 3.06 7.88 2.856 7.888 2.656V2.488C7.888 2.384 7.888 2.272 7.888 2.152C7.896 2.024 7.908 1.9 7.924 1.78C7.94 1.652 7.968 1.536 8.008 1.432C8.048 1.32 8.104 1.228 8.176 1.156C8.296 1.052 8.424 1 8.56 1H8.584C8.776 1.008 8.928 1.068 9.04 1.18C9.16 1.284 9.248 1.412 9.304 1.564C9.368 1.716 9.408 1.876 9.424 2.044C9.44 2.204 9.448 2.348 9.448 2.476V9.676C9.448 9.684 9.448 9.724 9.448 9.796C9.448 9.86 9.44 9.94 9.424 10.036C9.408 10.132 9.384 10.228 9.352 10.324C9.32 10.42 9.268 10.5 9.196 10.564C9.14 10.62 9.06 10.664 8.956 10.696C8.852 10.728 8.756 10.744 8.668 10.744C8.476 10.744 8.324 10.68 8.212 10.552C8.108 10.44 8.044 10.324 8.02 10.204C7.996 10.084 7.976 9.956 7.96 9.82C7.96 9.796 7.956 9.772 7.948 9.748C7.948 9.724 7.948 9.696 7.948 9.664C7.932 9.536 7.924 9.4 7.924 9.256C7.924 9.112 7.92 8.968 7.912 8.824C7.904 8.736 7.9 8.652 7.9 8.572C7.9 8.484 7.9 8.396 7.9 8.308V8.032C7.9 7.952 7.9 7.852 7.9 7.732C7.9 7.612 7.896 7.492 7.888 7.372C7.888 7.252 7.888 7.136 7.888 7.024C7.888 6.904 7.888 6.8 7.888 6.712C7.888 6.672 7.888 6.628 7.888 6.58C7.888 6.532 7.88 6.488 7.864 6.448ZM4.636 8.764L4.624 6.28L2.548 6.292C2.54 6.46 2.536 6.668 2.536 6.916C2.544 7.164 2.548 7.372 2.548 7.54C2.548 7.604 2.548 7.692 2.548 7.804C2.548 7.916 2.548 8.036 2.548 8.164C2.548 8.292 2.548 8.412 2.548 8.524C2.548 8.636 2.548 8.72 2.548 8.776L4.636 8.764Z" stroke="black" mask="url(#path-1-outside-1_5_7)"/>
<path d="M17.7889 6.388C17.7489 6.388 17.6609 6.384 17.5249 6.376C17.3889 6.368 17.2889 6.364 17.2249 6.364C17.1449 6.364 17.0689 6.364 16.9969 6.364C16.9329 6.356 16.8689 6.344 16.8049 6.328C16.7409 6.328 16.6769 6.32 16.6129 6.304C16.5569 6.288 16.4969 6.268 16.4329 6.244C16.3289 6.188 16.2449 6.12 16.1809 6.04C16.1409 5.984 16.1049 5.932 16.0729 5.884C16.0489 5.836 16.0369 5.78 16.0369 5.716C16.0209 5.62 16.0249 5.508 16.0489 5.38C16.0809 5.252 16.1249 5.156 16.1809 5.092C16.2049 5.052 16.2249 5.02 16.2409 4.996C16.2649 4.972 16.2929 4.944 16.3249 4.912C16.3729 4.872 16.4249 4.844 16.4809 4.828C16.5369 4.804 16.5889 4.784 16.6369 4.768C16.7249 4.752 16.8049 4.744 16.8769 4.744C16.9569 4.744 17.0329 4.744 17.1049 4.744H17.8129V3.88C17.8129 3.784 17.8089 3.696 17.8009 3.616C17.7929 3.536 17.7889 3.452 17.7889 3.364C17.7889 3.172 17.7889 2.984 17.7889 2.8C17.7889 2.608 17.7969 2.416 17.8129 2.224C17.8129 2.104 17.8209 1.98 17.8369 1.852C17.8609 1.724 17.8929 1.604 17.9329 1.492C17.9649 1.396 18.0209 1.304 18.1009 1.216C18.2049 1.12 18.3249 1.072 18.4609 1.072H18.4849C18.6529 1.072 18.7889 1.104 18.8929 1.168C18.9969 1.224 19.0809 1.304 19.1449 1.408C19.2169 1.504 19.2649 1.616 19.2889 1.744C19.3209 1.872 19.3409 2 19.3489 2.128C19.3729 2.336 19.3849 2.552 19.3849 2.776C19.3849 3 19.3849 3.22 19.3849 3.436V8.704C19.3849 8.976 19.3889 9.256 19.3969 9.544C19.4049 9.824 19.3649 10.092 19.2769 10.348C19.2369 10.452 19.1849 10.536 19.1209 10.6C19.0969 10.616 19.0609 10.636 19.0129 10.66C18.9649 10.684 18.9169 10.704 18.8689 10.72C18.8209 10.736 18.7729 10.748 18.7249 10.756C18.6849 10.764 18.6449 10.768 18.6049 10.768C18.4209 10.768 18.2729 10.712 18.1609 10.6C18.0569 10.496 17.9769 10.368 17.9209 10.216C17.8649 10.056 17.8289 9.892 17.8129 9.724C17.7969 9.556 17.7889 9.408 17.7889 9.28V8.848C17.7889 8.704 17.7889 8.544 17.7889 8.368C17.7889 8.184 17.7889 8 17.7889 7.816C17.7969 7.624 17.8009 7.44 17.8009 7.264C17.8009 7.08 17.7969 6.912 17.7889 6.76V6.388ZM13.6489 8.632C13.6409 8.536 13.6369 8.44 13.6369 8.344C13.6369 8.248 13.6369 8.152 13.6369 8.056V4.24C13.6369 4.112 13.6369 3.984 13.6369 3.856C13.6369 3.728 13.6289 3.596 13.6129 3.46C13.6049 3.42 13.5929 3.364 13.5769 3.292C13.5689 3.22 13.5449 3.176 13.5049 3.16C13.4649 3.136 13.4169 3.128 13.3609 3.136C13.3129 3.136 13.2649 3.132 13.2169 3.124C13.1609 3.116 13.1049 3.116 13.0489 3.124C13.0009 3.132 12.9489 3.132 12.8929 3.124H12.3289C12.1929 3.132 12.0569 3.132 11.9209 3.124C11.7849 3.116 11.6489 3.116 11.5129 3.124C11.4489 3.132 11.3889 3.136 11.3329 3.136C11.2849 3.128 11.2289 3.124 11.1649 3.124C11.0769 3.124 10.9849 3.12 10.8889 3.112C10.7929 3.104 10.7049 3.072 10.6249 3.016C10.5129 2.936 10.4369 2.836 10.3969 2.716C10.3569 2.596 10.3369 2.472 10.3369 2.344C10.3289 2.192 10.3609 2.04 10.4329 1.888C10.4729 1.792 10.5249 1.724 10.5889 1.684C10.6289 1.644 10.6849 1.612 10.7569 1.588C10.8369 1.556 10.9049 1.532 10.9609 1.516C11.1289 1.476 11.3049 1.456 11.4889 1.456C11.6729 1.448 11.8529 1.444 12.0289 1.444H14.1169C14.2209 1.46 14.3289 1.476 14.4409 1.492C14.5609 1.5 14.6689 1.524 14.7649 1.564C14.8289 1.588 14.8889 1.62 14.9449 1.66C15.0089 1.7 15.0609 1.748 15.1009 1.804C15.1729 1.916 15.2129 2.028 15.2209 2.14C15.2369 2.252 15.2529 2.376 15.2689 2.512C15.2849 2.736 15.2929 2.96 15.2929 3.184C15.2929 3.4 15.2929 3.62 15.2929 3.844V7.78C15.2929 7.788 15.2929 7.852 15.2929 7.972C15.3009 8.084 15.3049 8.22 15.3049 8.38C15.3049 8.532 15.3049 8.696 15.3049 8.872C15.3049 9.04 15.3009 9.188 15.2929 9.316C15.2849 9.396 15.2729 9.48 15.2569 9.568C15.2409 9.656 15.2129 9.74 15.1729 9.82C15.1409 9.9 15.0929 9.972 15.0289 10.036C14.9649 10.1 14.8809 10.152 14.7769 10.192C14.6409 10.248 14.5049 10.276 14.3689 10.276C14.2649 10.276 14.1609 10.256 14.0569 10.216C13.9529 10.168 13.8809 10.1 13.8409 10.012C13.7129 9.756 13.6489 9.472 13.6489 9.16V8.632Z" stroke="black" mask="url(#path-1-outside-1_5_7)"/>
<path d="M25.3619 1.384C25.4979 1.44 25.6259 1.504 25.7459 1.576C25.8739 1.64 25.9939 1.716 26.1059 1.804C26.2339 1.924 26.3499 2.056 26.4539 2.2C26.5579 2.344 26.6299 2.5 26.6699 2.668C26.7099 2.82 26.7419 2.98 26.7659 3.148C26.7979 3.308 26.8059 3.468 26.7899 3.628C26.7819 3.732 26.7699 3.836 26.7539 3.94C26.7459 4.044 26.7259 4.144 26.6939 4.24C26.6299 4.512 26.5179 4.768 26.3579 5.008C26.1979 5.24 25.9819 5.432 25.7099 5.584C25.5099 5.696 25.2979 5.78 25.0739 5.836C24.8579 5.884 24.6339 5.924 24.4019 5.956C24.3219 5.972 24.2459 5.984 24.1739 5.992C24.1019 5.992 24.0259 5.996 23.9459 6.004C23.8819 6.012 23.8139 6.016 23.7419 6.016C23.6779 6.008 23.6099 6 23.5379 5.992C23.4259 5.984 23.3139 5.976 23.2019 5.968C23.0979 5.952 22.9899 5.94 22.8779 5.932C22.6539 5.9 22.4339 5.844 22.2179 5.764C22.0019 5.676 21.8059 5.572 21.6299 5.452C21.2939 5.228 21.0579 4.944 20.9219 4.6C20.7939 4.256 20.7299 3.904 20.7299 3.544C20.7299 3.368 20.7499 3.184 20.7899 2.992C20.8299 2.8 20.8939 2.616 20.9819 2.44C21.0699 2.264 21.1819 2.1 21.3179 1.948C21.4539 1.788 21.6179 1.648 21.8099 1.528C21.9539 1.44 22.1019 1.368 22.2539 1.312C22.4059 1.248 22.5659 1.196 22.7339 1.156C22.9979 1.108 23.2659 1.084 23.5379 1.084C23.8579 1.068 24.1579 1.084 24.4379 1.132C24.5099 1.148 24.5819 1.164 24.6539 1.18C24.7259 1.188 24.7979 1.2 24.8699 1.216C25.0459 1.264 25.2099 1.32 25.3619 1.384ZM29.3099 10.396C29.2699 10.5 29.1939 10.584 29.0819 10.648C28.9939 10.704 28.8979 10.736 28.7939 10.744C28.6899 10.76 28.5859 10.76 28.4819 10.744C28.3619 10.72 28.2619 10.672 28.1819 10.6C28.1099 10.536 28.0539 10.452 28.0139 10.348C27.9819 10.252 27.9539 10.156 27.9299 10.06C27.9139 9.964 27.9059 9.88 27.9059 9.808C27.9059 9.736 27.9059 9.7 27.9059 9.7V2.392C27.9059 2.304 27.9059 2.204 27.9059 2.092C27.9059 1.98 27.9139 1.868 27.9299 1.756C27.9459 1.644 27.9659 1.544 27.9899 1.456C28.0219 1.36 28.0659 1.284 28.1219 1.228C28.2099 1.14 28.3019 1.088 28.3979 1.072C28.4939 1.056 28.5979 1.048 28.7099 1.048C28.8459 1.048 28.9699 1.084 29.0819 1.156C29.1939 1.228 29.2739 1.328 29.3219 1.456C29.3939 1.624 29.4339 1.8 29.4419 1.984C29.4499 2.16 29.4579 2.34 29.4659 2.524C29.4819 3.164 29.4859 3.804 29.4779 4.444C29.4699 5.084 29.4659 5.688 29.4659 6.256V9.256C29.4659 9.44 29.4539 9.628 29.4299 9.82C29.4139 10.004 29.3739 10.196 29.3099 10.396ZM21.2939 7.984C21.1819 7.976 21.0699 7.956 20.9579 7.924C20.8459 7.884 20.7419 7.812 20.6459 7.708C20.5499 7.612 20.5019 7.472 20.5019 7.288C20.5019 7.12 20.5499 6.98 20.6459 6.868C20.7019 6.804 20.7699 6.756 20.8499 6.724C20.9379 6.692 21.0219 6.668 21.1019 6.652C21.1819 6.636 21.2499 6.628 21.3059 6.628C21.3699 6.628 21.4059 6.628 21.4139 6.628H26.1299C26.2899 6.628 26.4579 6.636 26.6339 6.652C26.8099 6.668 26.9579 6.732 27.0779 6.844C27.1499 6.916 27.1979 6.992 27.2219 7.072C27.2539 7.152 27.2699 7.24 27.2699 7.336C27.2699 7.456 27.2419 7.568 27.1859 7.672C27.1299 7.768 27.0459 7.836 26.9339 7.876C26.7899 7.94 26.6419 7.98 26.4899 7.996C26.3379 8.004 26.1859 8.012 26.0339 8.02C25.7939 8.028 25.6099 8.036 25.4819 8.044C25.3619 8.052 25.2579 8.06 25.1699 8.068C25.0899 8.068 25.0099 8.068 24.9299 8.068C24.8499 8.068 24.7379 8.068 24.5939 8.068L24.5699 9.748C24.5699 9.868 24.5459 9.98 24.4979 10.084C24.4499 10.188 24.3819 10.276 24.2939 10.348C24.2139 10.428 24.1219 10.488 24.0179 10.528C23.9139 10.568 23.8059 10.584 23.6939 10.576C23.6059 10.568 23.5219 10.552 23.4419 10.528C23.3619 10.504 23.2899 10.464 23.2259 10.408C23.1619 10.36 23.1099 10.292 23.0699 10.204C23.0299 10.108 23.0099 9.984 23.0099 9.832L22.9739 8.056C22.6939 8.048 22.4259 8.04 22.1699 8.032C21.9219 8.016 21.6299 8 21.2939 7.984ZM25.1459 3.916C25.1939 3.684 25.1779 3.464 25.0979 3.256C25.0819 3.216 25.0619 3.172 25.0379 3.124C25.0139 3.076 24.9819 3.032 24.9419 2.992C24.9019 2.944 24.8619 2.904 24.8219 2.872C24.7899 2.832 24.7419 2.792 24.6779 2.752C24.6219 2.712 24.5579 2.676 24.4859 2.644C24.4219 2.612 24.3539 2.584 24.2819 2.56C24.0739 2.504 23.8659 2.476 23.6579 2.476C23.4499 2.476 23.2579 2.508 23.0819 2.572C22.9059 2.636 22.7539 2.736 22.6259 2.872C22.4979 3.008 22.4179 3.184 22.3859 3.4C22.3619 3.536 22.3579 3.676 22.3739 3.82C22.3979 3.964 22.4499 4.092 22.5299 4.204C22.6979 4.42 22.9299 4.58 23.2259 4.684C23.3379 4.724 23.4499 4.752 23.5619 4.768C23.6739 4.776 23.7859 4.776 23.8979 4.768C24.0099 4.76 24.1219 4.748 24.2339 4.732C24.3539 4.716 24.4659 4.684 24.5699 4.636C24.7219 4.564 24.8459 4.464 24.9419 4.336C25.0379 4.2 25.1059 4.06 25.1459 3.916Z" stroke="black" mask="url(#path-1-outside-1_5_7)"/>
<path d="M34.0508 8.632C34.0428 8.536 34.0388 8.44 34.0388 8.344C34.0388 8.248 34.0388 8.152 34.0388 8.056V6.352C33.8148 6.36 33.6028 6.364 33.4028 6.364C33.2108 6.356 33.0388 6.348 32.8868 6.34C32.7588 6.34 32.6588 6.34 32.5868 6.34C32.5148 6.34 32.4468 6.34 32.3828 6.34C32.3188 6.34 32.2468 6.34 32.1668 6.34C32.0948 6.34 31.9988 6.34 31.8788 6.34C31.6548 6.34 31.4228 6.32 31.1828 6.28C30.9428 6.24 30.7308 6.14 30.5468 5.98C30.4268 5.868 30.3468 5.748 30.3068 5.62C30.2748 5.484 30.3028 5.348 30.3908 5.212C30.5028 5.044 30.6628 4.936 30.8708 4.888C31.0788 4.832 31.2708 4.792 31.4468 4.768C31.5508 4.752 31.6148 4.744 31.6388 4.744C31.6628 4.744 31.6748 4.744 31.6748 4.744C31.6748 4.744 31.6828 4.748 31.6988 4.756C31.7228 4.756 31.7908 4.752 31.9028 4.744H34.0388V4C34.0388 3.872 34.0388 3.764 34.0388 3.676C34.0388 3.588 34.0308 3.476 34.0148 3.34C34.0068 3.3 33.9948 3.244 33.9788 3.172C33.9708 3.1 33.9468 3.056 33.9068 3.04C33.8668 3.016 33.8188 3.008 33.7628 3.016C33.7148 3.016 33.6668 3.012 33.6188 3.004C33.5628 2.996 33.5068 2.996 33.4508 3.004C33.4028 3.012 33.3508 3.012 33.2948 3.004H32.3588C32.2228 3.012 32.0868 3.012 31.9508 3.004C31.8148 2.996 31.6788 2.996 31.5428 3.004C31.4788 3.012 31.4188 3.016 31.3628 3.016C31.3148 3.008 31.2588 3.004 31.1948 3.004C31.1068 3.004 31.0148 3 30.9188 2.992C30.8228 2.984 30.7348 2.952 30.6548 2.896C30.5428 2.816 30.4668 2.716 30.4268 2.596C30.3868 2.476 30.3668 2.352 30.3668 2.224C30.3588 2.072 30.3908 1.92 30.4628 1.768C30.5028 1.672 30.5548 1.604 30.6188 1.564C30.6588 1.524 30.7148 1.492 30.7868 1.468C30.8668 1.436 30.9348 1.412 30.9908 1.396C31.1588 1.356 31.3348 1.336 31.5188 1.336C31.7028 1.328 31.8828 1.324 32.0588 1.324H34.5188C34.6228 1.34 34.7308 1.356 34.8428 1.372C34.9628 1.38 35.0708 1.404 35.1668 1.444C35.2308 1.468 35.2908 1.5 35.3468 1.54C35.4108 1.58 35.4628 1.628 35.5028 1.684C35.5748 1.796 35.6148 1.908 35.6228 2.02C35.6388 2.132 35.6548 2.256 35.6708 2.392C35.6868 2.616 35.6948 2.84 35.6948 3.064C35.6948 3.28 35.6948 3.5 35.6948 3.724V7.78C35.6948 7.788 35.6948 7.852 35.6948 7.972C35.7028 8.084 35.7068 8.22 35.7068 8.38C35.7068 8.532 35.7068 8.696 35.7068 8.872C35.7068 9.04 35.7028 9.188 35.6948 9.316C35.6868 9.396 35.6748 9.48 35.6588 9.568C35.6428 9.656 35.6148 9.74 35.5748 9.82C35.5428 9.9 35.4948 9.972 35.4308 10.036C35.3668 10.1 35.2828 10.152 35.1788 10.192C35.0428 10.248 34.9068 10.276 34.7708 10.276C34.6668 10.276 34.5628 10.256 34.4588 10.216C34.3548 10.168 34.2828 10.1 34.2428 10.012C34.1148 9.756 34.0508 9.472 34.0508 9.16V8.632ZM39.0188 9.664C39.0028 9.76 38.9908 9.856 38.9828 9.952C38.9748 10.04 38.9548 10.132 38.9228 10.228C38.9068 10.26 38.8948 10.288 38.8868 10.312C38.8788 10.336 38.8668 10.364 38.8508 10.396C38.7948 10.508 38.7228 10.596 38.6348 10.66C38.4508 10.772 38.2468 10.8 38.0228 10.744C37.8948 10.72 37.7908 10.672 37.7108 10.6C37.6388 10.536 37.5828 10.452 37.5428 10.348C37.5108 10.252 37.4828 10.156 37.4588 10.06C37.4428 9.964 37.4348 9.88 37.4348 9.808C37.4348 9.736 37.4348 9.696 37.4348 9.688V2.416C37.4348 2.32 37.4348 2.216 37.4348 2.104C37.4348 1.992 37.4428 1.88 37.4588 1.768C37.4748 1.656 37.4988 1.552 37.5308 1.456C37.5628 1.36 37.6068 1.284 37.6628 1.228C37.7508 1.14 37.8428 1.088 37.9388 1.072C38.0348 1.048 38.1388 1.036 38.2508 1.036C38.3868 1.036 38.5108 1.076 38.6228 1.156C38.7428 1.228 38.8268 1.332 38.8748 1.468C38.9468 1.636 38.9868 1.812 38.9948 1.996C39.0028 2.18 39.0108 2.364 39.0188 2.548V2.608C39.0348 3.224 39.0388 3.856 39.0308 4.504C39.0228 5.152 39.0188 5.764 39.0188 6.34V9.232C39.0188 9.304 39.0188 9.376 39.0188 9.448C39.0268 9.52 39.0268 9.592 39.0188 9.664Z" stroke="black" mask="url(#path-1-outside-1_5_7)"/>
</svg>
