<svg width="58" height="15" viewBox="0 0 58 15" fill="none" xmlns="http://www.w3.org/2000/svg">
<mask id="path-1-outside-1_11_2" maskUnits="userSpaceOnUse" x="18" y="2" width="40" height="12" fill="black">
<rect fill="white" x="18" y="2" width="40" height="12"/>
<path d="M22.636 4.62C22.636 4.54 22.64 4.428 22.648 4.284C22.656 4.14 22.684 3.996 22.732 3.852C22.78 3.708 22.852 3.584 22.948 3.48C23.052 3.376 23.2 3.324 23.392 3.324C23.56 3.324 23.708 3.368 23.836 3.456C23.932 3.52 24.004 3.636 24.052 3.804C24.108 3.964 24.144 4.144 24.16 4.344C24.184 4.544 24.196 4.744 24.196 4.944C24.196 5.144 24.192 5.308 24.184 5.436V9.84C24.184 9.864 24.184 9.952 24.184 10.104C24.184 10.248 24.176 10.416 24.16 10.608C24.144 10.792 24.116 10.984 24.076 11.184C24.044 11.376 23.996 11.532 23.932 11.652C23.908 11.708 23.868 11.768 23.812 11.832C23.764 11.888 23.728 11.928 23.704 11.952C23.64 12.016 23.568 12.064 23.488 12.096C23.416 12.128 23.34 12.156 23.26 12.18C23.18 12.196 23.108 12.208 23.044 12.216C22.98 12.224 22.936 12.228 22.912 12.228H20.392C20.2 12.228 20.016 12.212 19.84 12.18C19.672 12.148 19.516 12.076 19.372 11.964C19.268 11.884 19.188 11.784 19.132 11.664C19.084 11.536 19.048 11.412 19.024 11.292C19.008 11.172 19 11.064 19 10.968C19 10.864 19 10.8 19 10.776V4.5C19 4.388 19.012 4.264 19.036 4.128C19.068 3.992 19.112 3.868 19.168 3.756C19.232 3.636 19.312 3.54 19.408 3.468C19.504 3.388 19.624 3.348 19.768 3.348C20.168 3.348 20.428 3.52 20.548 3.864C20.588 3.976 20.612 4.088 20.62 4.2C20.628 4.312 20.636 4.424 20.644 4.536V4.56C20.644 4.616 20.644 4.748 20.644 4.956C20.644 5.164 20.644 5.392 20.644 5.64C20.644 5.88 20.644 6.116 20.644 6.348C20.652 6.572 20.656 6.732 20.656 6.828C20.696 6.828 20.8 6.828 20.968 6.828C21.136 6.828 21.324 6.828 21.532 6.828C21.748 6.828 21.956 6.824 22.156 6.816C22.356 6.808 22.508 6.792 22.612 6.768L22.636 6.216V4.62ZM25.864 8.448C25.752 8.432 25.64 8.424 25.528 8.424C25.424 8.416 25.316 8.404 25.204 8.388C25.068 8.38 24.944 8.348 24.832 8.292C24.72 8.236 24.628 8.164 24.556 8.076C24.484 7.988 24.436 7.88 24.412 7.752C24.396 7.624 24.408 7.484 24.448 7.332C24.464 7.268 24.496 7.2 24.544 7.128C24.6 7.056 24.652 7 24.7 6.96C24.812 6.88 24.924 6.828 25.036 6.804C25.164 6.788 25.296 6.784 25.432 6.792C25.576 6.8 25.716 6.796 25.852 6.78H25.888V6.732C25.888 6.636 25.888 6.556 25.888 6.492C25.896 6.428 25.9 6.368 25.9 6.312C25.9 6.256 25.896 6.196 25.888 6.132C25.888 6.068 25.888 5.984 25.888 5.88C25.888 5.672 25.884 5.468 25.876 5.268C25.876 5.06 25.88 4.856 25.888 4.656V4.488C25.888 4.384 25.888 4.272 25.888 4.152C25.896 4.024 25.908 3.9 25.924 3.78C25.94 3.652 25.968 3.536 26.008 3.432C26.048 3.32 26.104 3.228 26.176 3.156C26.296 3.052 26.424 3 26.56 3H26.584C26.776 3.008 26.928 3.068 27.04 3.18C27.16 3.284 27.248 3.412 27.304 3.564C27.368 3.716 27.408 3.876 27.424 4.044C27.44 4.204 27.448 4.348 27.448 4.476V11.676C27.448 11.684 27.448 11.724 27.448 11.796C27.448 11.86 27.44 11.94 27.424 12.036C27.408 12.132 27.384 12.228 27.352 12.324C27.32 12.42 27.268 12.5 27.196 12.564C27.14 12.62 27.06 12.664 26.956 12.696C26.852 12.728 26.756 12.744 26.668 12.744C26.476 12.744 26.324 12.68 26.212 12.552C26.108 12.44 26.044 12.324 26.02 12.204C25.996 12.084 25.976 11.956 25.96 11.82C25.96 11.796 25.956 11.772 25.948 11.748C25.948 11.724 25.948 11.696 25.948 11.664C25.932 11.536 25.924 11.4 25.924 11.256C25.924 11.112 25.92 10.968 25.912 10.824C25.904 10.736 25.9 10.652 25.9 10.572C25.9 10.484 25.9 10.396 25.9 10.308V10.032C25.9 9.952 25.9 9.852 25.9 9.732C25.9 9.612 25.896 9.492 25.888 9.372C25.888 9.252 25.888 9.136 25.888 9.024C25.888 8.904 25.888 8.8 25.888 8.712C25.888 8.672 25.888 8.628 25.888 8.58C25.888 8.532 25.88 8.488 25.864 8.448ZM22.636 10.764L22.624 8.28L20.548 8.292C20.54 8.46 20.536 8.668 20.536 8.916C20.544 9.164 20.548 9.372 20.548 9.54C20.548 9.604 20.548 9.692 20.548 9.804C20.548 9.916 20.548 10.036 20.548 10.164C20.548 10.292 20.548 10.412 20.548 10.524C20.548 10.636 20.548 10.72 20.548 10.776L22.636 10.764Z"/>
<path d="M35.7889 8.388C35.7489 8.388 35.6609 8.384 35.5249 8.376C35.3889 8.368 35.2889 8.364 35.2249 8.364C35.1449 8.364 35.0689 8.364 34.9969 8.364C34.9329 8.356 34.8689 8.344 34.8049 8.328C34.7409 8.328 34.6769 8.32 34.6129 8.304C34.5569 8.288 34.4969 8.268 34.4329 8.244C34.3289 8.188 34.2449 8.12 34.1809 8.04C34.1409 7.984 34.1049 7.932 34.0729 7.884C34.0489 7.836 34.0369 7.78 34.0369 7.716C34.0209 7.62 34.0249 7.508 34.0489 7.38C34.0809 7.252 34.1249 7.156 34.1809 7.092C34.2049 7.052 34.2249 7.02 34.2409 6.996C34.2649 6.972 34.2929 6.944 34.3249 6.912C34.3729 6.872 34.4249 6.844 34.4809 6.828C34.5369 6.804 34.5889 6.784 34.6369 6.768C34.7249 6.752 34.8049 6.744 34.8769 6.744C34.9569 6.744 35.0329 6.744 35.1049 6.744H35.8129V5.88C35.8129 5.784 35.8089 5.696 35.8009 5.616C35.7929 5.536 35.7889 5.452 35.7889 5.364C35.7889 5.172 35.7889 4.984 35.7889 4.8C35.7889 4.608 35.7969 4.416 35.8129 4.224C35.8129 4.104 35.8209 3.98 35.8369 3.852C35.8609 3.724 35.8929 3.604 35.9329 3.492C35.9649 3.396 36.0209 3.304 36.1009 3.216C36.2049 3.12 36.3249 3.072 36.4609 3.072H36.4849C36.6529 3.072 36.7889 3.104 36.8929 3.168C36.9969 3.224 37.0809 3.304 37.1449 3.408C37.2169 3.504 37.2649 3.616 37.2889 3.744C37.3209 3.872 37.3409 4 37.3489 4.128C37.3729 4.336 37.3849 4.552 37.3849 4.776C37.3849 5 37.3849 5.22 37.3849 5.436V10.704C37.3849 10.976 37.3889 11.256 37.3969 11.544C37.4049 11.824 37.3649 12.092 37.2769 12.348C37.2369 12.452 37.1849 12.536 37.1209 12.6C37.0969 12.616 37.0609 12.636 37.0129 12.66C36.9649 12.684 36.9169 12.704 36.8689 12.72C36.8209 12.736 36.7729 12.748 36.7249 12.756C36.6849 12.764 36.6449 12.768 36.6049 12.768C36.4209 12.768 36.2729 12.712 36.1609 12.6C36.0569 12.496 35.9769 12.368 35.9209 12.216C35.8649 12.056 35.8289 11.892 35.8129 11.724C35.7969 11.556 35.7889 11.408 35.7889 11.28V10.848C35.7889 10.704 35.7889 10.544 35.7889 10.368C35.7889 10.184 35.7889 10 35.7889 9.816C35.7969 9.624 35.8009 9.44 35.8009 9.264C35.8009 9.08 35.7969 8.912 35.7889 8.76V8.388ZM31.6489 10.632C31.6409 10.536 31.6369 10.44 31.6369 10.344C31.6369 10.248 31.6369 10.152 31.6369 10.056V6.24C31.6369 6.112 31.6369 5.984 31.6369 5.856C31.6369 5.728 31.6289 5.596 31.6129 5.46C31.6049 5.42 31.5929 5.364 31.5769 5.292C31.5689 5.22 31.5449 5.176 31.5049 5.16C31.4649 5.136 31.4169 5.128 31.3609 5.136C31.3129 5.136 31.2649 5.132 31.2169 5.124C31.1609 5.116 31.1049 5.116 31.0489 5.124C31.0009 5.132 30.9489 5.132 30.8929 5.124H30.3289C30.1929 5.132 30.0569 5.132 29.9209 5.124C29.7849 5.116 29.6489 5.116 29.5129 5.124C29.4489 5.132 29.3889 5.136 29.3329 5.136C29.2849 5.128 29.2289 5.124 29.1649 5.124C29.0769 5.124 28.9849 5.12 28.8889 5.112C28.7929 5.104 28.7049 5.072 28.6249 5.016C28.5129 4.936 28.4369 4.836 28.3969 4.716C28.3569 4.596 28.3369 4.472 28.3369 4.344C28.3289 4.192 28.3609 4.04 28.4329 3.888C28.4729 3.792 28.5249 3.724 28.5889 3.684C28.6289 3.644 28.6849 3.612 28.7569 3.588C28.8369 3.556 28.9049 3.532 28.9609 3.516C29.1289 3.476 29.3049 3.456 29.4889 3.456C29.6729 3.448 29.8529 3.444 30.0289 3.444H32.1169C32.2209 3.46 32.3289 3.476 32.4409 3.492C32.5609 3.5 32.6689 3.524 32.7649 3.564C32.8289 3.588 32.8889 3.62 32.9449 3.66C33.0089 3.7 33.0609 3.748 33.1009 3.804C33.1729 3.916 33.2129 4.028 33.2209 4.14C33.2369 4.252 33.2529 4.376 33.2689 4.512C33.2849 4.736 33.2929 4.96 33.2929 5.184C33.2929 5.4 33.2929 5.62 33.2929 5.844V9.78C33.2929 9.788 33.2929 9.852 33.2929 9.972C33.3009 10.084 33.3049 10.22 33.3049 10.38C33.3049 10.532 33.3049 10.696 33.3049 10.872C33.3049 11.04 33.3009 11.188 33.2929 11.316C33.2849 11.396 33.2729 11.48 33.2569 11.568C33.2409 11.656 33.2129 11.74 33.1729 11.82C33.1409 11.9 33.0929 11.972 33.0289 12.036C32.9649 12.1 32.8809 12.152 32.7769 12.192C32.6409 12.248 32.5049 12.276 32.3689 12.276C32.2649 12.276 32.1609 12.256 32.0569 12.216C31.9529 12.168 31.8809 12.1 31.8409 12.012C31.7129 11.756 31.6489 11.472 31.6489 11.16V10.632Z"/>
<path d="M43.3619 3.384C43.4979 3.44 43.6259 3.504 43.7459 3.576C43.8739 3.64 43.9939 3.716 44.1059 3.804C44.2339 3.924 44.3499 4.056 44.4539 4.2C44.5579 4.344 44.6299 4.5 44.6699 4.668C44.7099 4.82 44.7419 4.98 44.7659 5.148C44.7979 5.308 44.8059 5.468 44.7899 5.628C44.7819 5.732 44.7699 5.836 44.7539 5.94C44.7459 6.044 44.7259 6.144 44.6939 6.24C44.6299 6.512 44.5179 6.768 44.3579 7.008C44.1979 7.24 43.9819 7.432 43.7099 7.584C43.5099 7.696 43.2979 7.78 43.0739 7.836C42.8579 7.884 42.6339 7.924 42.4019 7.956C42.3219 7.972 42.2459 7.984 42.1739 7.992C42.1019 7.992 42.0259 7.996 41.9459 8.004C41.8819 8.012 41.8139 8.016 41.7419 8.016C41.6779 8.008 41.6099 8 41.5379 7.992C41.4259 7.984 41.3139 7.976 41.2019 7.968C41.0979 7.952 40.9899 7.94 40.8779 7.932C40.6539 7.9 40.4339 7.844 40.2179 7.764C40.0019 7.676 39.8059 7.572 39.6299 7.452C39.2939 7.228 39.0579 6.944 38.9219 6.6C38.7939 6.256 38.7299 5.904 38.7299 5.544C38.7299 5.368 38.7499 5.184 38.7899 4.992C38.8299 4.8 38.8939 4.616 38.9819 4.44C39.0699 4.264 39.1819 4.1 39.3179 3.948C39.4539 3.788 39.6179 3.648 39.8099 3.528C39.9539 3.44 40.1019 3.368 40.2539 3.312C40.4059 3.248 40.5659 3.196 40.7339 3.156C40.9979 3.108 41.2659 3.084 41.5379 3.084C41.8579 3.068 42.1579 3.084 42.4379 3.132C42.5099 3.148 42.5819 3.164 42.6539 3.18C42.7259 3.188 42.7979 3.2 42.8699 3.216C43.0459 3.264 43.2099 3.32 43.3619 3.384ZM47.3099 12.396C47.2699 12.5 47.1939 12.584 47.0819 12.648C46.9939 12.704 46.8979 12.736 46.7939 12.744C46.6899 12.76 46.5859 12.76 46.4819 12.744C46.3619 12.72 46.2619 12.672 46.1819 12.6C46.1099 12.536 46.0539 12.452 46.0139 12.348C45.9819 12.252 45.9539 12.156 45.9299 12.06C45.9139 11.964 45.9059 11.88 45.9059 11.808C45.9059 11.736 45.9059 11.7 45.9059 11.7V4.392C45.9059 4.304 45.9059 4.204 45.9059 4.092C45.9059 3.98 45.9139 3.868 45.9299 3.756C45.9459 3.644 45.9659 3.544 45.9899 3.456C46.0219 3.36 46.0659 3.284 46.1219 3.228C46.2099 3.14 46.3019 3.088 46.3979 3.072C46.4939 3.056 46.5979 3.048 46.7099 3.048C46.8459 3.048 46.9699 3.084 47.0819 3.156C47.1939 3.228 47.2739 3.328 47.3219 3.456C47.3939 3.624 47.4339 3.8 47.4419 3.984C47.4499 4.16 47.4579 4.34 47.4659 4.524C47.4819 5.164 47.4859 5.804 47.4779 6.444C47.4699 7.084 47.4659 7.688 47.4659 8.256V11.256C47.4659 11.44 47.4539 11.628 47.4299 11.82C47.4139 12.004 47.3739 12.196 47.3099 12.396ZM39.2939 9.984C39.1819 9.976 39.0699 9.956 38.9579 9.924C38.8459 9.884 38.7419 9.812 38.6459 9.708C38.5499 9.612 38.5019 9.472 38.5019 9.288C38.5019 9.12 38.5499 8.98 38.6459 8.868C38.7019 8.804 38.7699 8.756 38.8499 8.724C38.9379 8.692 39.0219 8.668 39.1019 8.652C39.1819 8.636 39.2499 8.628 39.3059 8.628C39.3699 8.628 39.4059 8.628 39.4139 8.628H44.1299C44.2899 8.628 44.4579 8.636 44.6339 8.652C44.8099 8.668 44.9579 8.732 45.0779 8.844C45.1499 8.916 45.1979 8.992 45.2219 9.072C45.2539 9.152 45.2699 9.24 45.2699 9.336C45.2699 9.456 45.2419 9.568 45.1859 9.672C45.1299 9.768 45.0459 9.836 44.9339 9.876C44.7899 9.94 44.6419 9.98 44.4899 9.996C44.3379 10.004 44.1859 10.012 44.0339 10.02C43.7939 10.028 43.6099 10.036 43.4819 10.044C43.3619 10.052 43.2579 10.06 43.1699 10.068C43.0899 10.068 43.0099 10.068 42.9299 10.068C42.8499 10.068 42.7379 10.068 42.5939 10.068L42.5699 11.748C42.5699 11.868 42.5459 11.98 42.4979 12.084C42.4499 12.188 42.3819 12.276 42.2939 12.348C42.2139 12.428 42.1219 12.488 42.0179 12.528C41.9139 12.568 41.8059 12.584 41.6939 12.576C41.6059 12.568 41.5219 12.552 41.4419 12.528C41.3619 12.504 41.2899 12.464 41.2259 12.408C41.1619 12.36 41.1099 12.292 41.0699 12.204C41.0299 12.108 41.0099 11.984 41.0099 11.832L40.9739 10.056C40.6939 10.048 40.4259 10.04 40.1699 10.032C39.9219 10.016 39.6299 10 39.2939 9.984ZM43.1459 5.916C43.1939 5.684 43.1779 5.464 43.0979 5.256C43.0819 5.216 43.0619 5.172 43.0379 5.124C43.0139 5.076 42.9819 5.032 42.9419 4.992C42.9019 4.944 42.8619 4.904 42.8219 4.872C42.7899 4.832 42.7419 4.792 42.6779 4.752C42.6219 4.712 42.5579 4.676 42.4859 4.644C42.4219 4.612 42.3539 4.584 42.2819 4.56C42.0739 4.504 41.8659 4.476 41.6579 4.476C41.4499 4.476 41.2579 4.508 41.0819 4.572C40.9059 4.636 40.7539 4.736 40.6259 4.872C40.4979 5.008 40.4179 5.184 40.3859 5.4C40.3619 5.536 40.3579 5.676 40.3739 5.82C40.3979 5.964 40.4499 6.092 40.5299 6.204C40.6979 6.42 40.9299 6.58 41.2259 6.684C41.3379 6.724 41.4499 6.752 41.5619 6.768C41.6739 6.776 41.7859 6.776 41.8979 6.768C42.0099 6.76 42.1219 6.748 42.2339 6.732C42.3539 6.716 42.4659 6.684 42.5699 6.636C42.7219 6.564 42.8459 6.464 42.9419 6.336C43.0379 6.2 43.1059 6.06 43.1459 5.916Z"/>
<path d="M52.0508 10.632C52.0428 10.536 52.0388 10.44 52.0388 10.344C52.0388 10.248 52.0388 10.152 52.0388 10.056V8.352C51.8148 8.36 51.6028 8.364 51.4028 8.364C51.2108 8.356 51.0388 8.348 50.8868 8.34C50.7588 8.34 50.6588 8.34 50.5868 8.34C50.5148 8.34 50.4468 8.34 50.3828 8.34C50.3188 8.34 50.2468 8.34 50.1668 8.34C50.0948 8.34 49.9988 8.34 49.8788 8.34C49.6548 8.34 49.4228 8.32 49.1828 8.28C48.9428 8.24 48.7308 8.14 48.5468 7.98C48.4268 7.868 48.3468 7.748 48.3068 7.62C48.2748 7.484 48.3028 7.348 48.3908 7.212C48.5028 7.044 48.6628 6.936 48.8708 6.888C49.0788 6.832 49.2708 6.792 49.4468 6.768C49.5508 6.752 49.6148 6.744 49.6388 6.744C49.6628 6.744 49.6748 6.744 49.6748 6.744C49.6748 6.744 49.6828 6.748 49.6988 6.756C49.7228 6.756 49.7908 6.752 49.9028 6.744H52.0388V6C52.0388 5.872 52.0388 5.764 52.0388 5.676C52.0388 5.588 52.0308 5.476 52.0148 5.34C52.0068 5.3 51.9948 5.244 51.9788 5.172C51.9708 5.1 51.9468 5.056 51.9068 5.04C51.8668 5.016 51.8188 5.008 51.7628 5.016C51.7148 5.016 51.6668 5.012 51.6188 5.004C51.5628 4.996 51.5068 4.996 51.4508 5.004C51.4028 5.012 51.3508 5.012 51.2948 5.004H50.3588C50.2228 5.012 50.0868 5.012 49.9508 5.004C49.8148 4.996 49.6788 4.996 49.5428 5.004C49.4788 5.012 49.4188 5.016 49.3628 5.016C49.3148 5.008 49.2588 5.004 49.1948 5.004C49.1068 5.004 49.0148 5 48.9188 4.992C48.8228 4.984 48.7348 4.952 48.6548 4.896C48.5428 4.816 48.4668 4.716 48.4268 4.596C48.3868 4.476 48.3668 4.352 48.3668 4.224C48.3588 4.072 48.3908 3.92 48.4628 3.768C48.5028 3.672 48.5548 3.604 48.6188 3.564C48.6588 3.524 48.7148 3.492 48.7868 3.468C48.8668 3.436 48.9348 3.412 48.9908 3.396C49.1588 3.356 49.3348 3.336 49.5188 3.336C49.7028 3.328 49.8828 3.324 50.0588 3.324H52.5188C52.6228 3.34 52.7308 3.356 52.8428 3.372C52.9628 3.38 53.0708 3.404 53.1668 3.444C53.2308 3.468 53.2908 3.5 53.3468 3.54C53.4108 3.58 53.4628 3.628 53.5028 3.684C53.5748 3.796 53.6148 3.908 53.6228 4.02C53.6388 4.132 53.6548 4.256 53.6708 4.392C53.6868 4.616 53.6948 4.84 53.6948 5.064C53.6948 5.28 53.6948 5.5 53.6948 5.724V9.78C53.6948 9.788 53.6948 9.852 53.6948 9.972C53.7028 10.084 53.7068 10.22 53.7068 10.38C53.7068 10.532 53.7068 10.696 53.7068 10.872C53.7068 11.04 53.7028 11.188 53.6948 11.316C53.6868 11.396 53.6748 11.48 53.6588 11.568C53.6428 11.656 53.6148 11.74 53.5748 11.82C53.5428 11.9 53.4948 11.972 53.4308 12.036C53.3668 12.1 53.2828 12.152 53.1788 12.192C53.0428 12.248 52.9068 12.276 52.7708 12.276C52.6668 12.276 52.5628 12.256 52.4588 12.216C52.3548 12.168 52.2828 12.1 52.2428 12.012C52.1148 11.756 52.0508 11.472 52.0508 11.16V10.632ZM57.0188 11.664C57.0028 11.76 56.9908 11.856 56.9828 11.952C56.9748 12.04 56.9548 12.132 56.9228 12.228C56.9068 12.26 56.8948 12.288 56.8868 12.312C56.8788 12.336 56.8668 12.364 56.8508 12.396C56.7948 12.508 56.7228 12.596 56.6348 12.66C56.4508 12.772 56.2468 12.8 56.0228 12.744C55.8948 12.72 55.7908 12.672 55.7108 12.6C55.6388 12.536 55.5828 12.452 55.5428 12.348C55.5108 12.252 55.4828 12.156 55.4588 12.06C55.4428 11.964 55.4348 11.88 55.4348 11.808C55.4348 11.736 55.4348 11.696 55.4348 11.688V4.416C55.4348 4.32 55.4348 4.216 55.4348 4.104C55.4348 3.992 55.4428 3.88 55.4588 3.768C55.4748 3.656 55.4988 3.552 55.5308 3.456C55.5628 3.36 55.6068 3.284 55.6628 3.228C55.7508 3.14 55.8428 3.088 55.9388 3.072C56.0348 3.048 56.1388 3.036 56.2508 3.036C56.3868 3.036 56.5108 3.076 56.6228 3.156C56.7428 3.228 56.8268 3.332 56.8748 3.468C56.9468 3.636 56.9868 3.812 56.9948 3.996C57.0028 4.18 57.0108 4.364 57.0188 4.548V4.608C57.0348 5.224 57.0388 5.856 57.0308 6.504C57.0228 7.152 57.0188 7.764 57.0188 8.34V11.232C57.0188 11.304 57.0188 11.376 57.0188 11.448C57.0268 11.52 57.0268 11.592 57.0188 11.664Z"/>
</mask>
<path d="M22.636 4.62C22.636 4.54 22.64 4.428 22.648 4.284C22.656 4.14 22.684 3.996 22.732 3.852C22.78 3.708 22.852 3.584 22.948 3.48C23.052 3.376 23.2 3.324 23.392 3.324C23.56 3.324 23.708 3.368 23.836 3.456C23.932 3.52 24.004 3.636 24.052 3.804C24.108 3.964 24.144 4.144 24.16 4.344C24.184 4.544 24.196 4.744 24.196 4.944C24.196 5.144 24.192 5.308 24.184 5.436V9.84C24.184 9.864 24.184 9.952 24.184 10.104C24.184 10.248 24.176 10.416 24.16 10.608C24.144 10.792 24.116 10.984 24.076 11.184C24.044 11.376 23.996 11.532 23.932 11.652C23.908 11.708 23.868 11.768 23.812 11.832C23.764 11.888 23.728 11.928 23.704 11.952C23.64 12.016 23.568 12.064 23.488 12.096C23.416 12.128 23.34 12.156 23.26 12.18C23.18 12.196 23.108 12.208 23.044 12.216C22.98 12.224 22.936 12.228 22.912 12.228H20.392C20.2 12.228 20.016 12.212 19.84 12.18C19.672 12.148 19.516 12.076 19.372 11.964C19.268 11.884 19.188 11.784 19.132 11.664C19.084 11.536 19.048 11.412 19.024 11.292C19.008 11.172 19 11.064 19 10.968C19 10.864 19 10.8 19 10.776V4.5C19 4.388 19.012 4.264 19.036 4.128C19.068 3.992 19.112 3.868 19.168 3.756C19.232 3.636 19.312 3.54 19.408 3.468C19.504 3.388 19.624 3.348 19.768 3.348C20.168 3.348 20.428 3.52 20.548 3.864C20.588 3.976 20.612 4.088 20.62 4.2C20.628 4.312 20.636 4.424 20.644 4.536V4.56C20.644 4.616 20.644 4.748 20.644 4.956C20.644 5.164 20.644 5.392 20.644 5.64C20.644 5.88 20.644 6.116 20.644 6.348C20.652 6.572 20.656 6.732 20.656 6.828C20.696 6.828 20.8 6.828 20.968 6.828C21.136 6.828 21.324 6.828 21.532 6.828C21.748 6.828 21.956 6.824 22.156 6.816C22.356 6.808 22.508 6.792 22.612 6.768L22.636 6.216V4.62ZM25.864 8.448C25.752 8.432 25.64 8.424 25.528 8.424C25.424 8.416 25.316 8.404 25.204 8.388C25.068 8.38 24.944 8.348 24.832 8.292C24.72 8.236 24.628 8.164 24.556 8.076C24.484 7.988 24.436 7.88 24.412 7.752C24.396 7.624 24.408 7.484 24.448 7.332C24.464 7.268 24.496 7.2 24.544 7.128C24.6 7.056 24.652 7 24.7 6.96C24.812 6.88 24.924 6.828 25.036 6.804C25.164 6.788 25.296 6.784 25.432 6.792C25.576 6.8 25.716 6.796 25.852 6.78H25.888V6.732C25.888 6.636 25.888 6.556 25.888 6.492C25.896 6.428 25.9 6.368 25.9 6.312C25.9 6.256 25.896 6.196 25.888 6.132C25.888 6.068 25.888 5.984 25.888 5.88C25.888 5.672 25.884 5.468 25.876 5.268C25.876 5.06 25.88 4.856 25.888 4.656V4.488C25.888 4.384 25.888 4.272 25.888 4.152C25.896 4.024 25.908 3.9 25.924 3.78C25.94 3.652 25.968 3.536 26.008 3.432C26.048 3.32 26.104 3.228 26.176 3.156C26.296 3.052 26.424 3 26.56 3H26.584C26.776 3.008 26.928 3.068 27.04 3.18C27.16 3.284 27.248 3.412 27.304 3.564C27.368 3.716 27.408 3.876 27.424 4.044C27.44 4.204 27.448 4.348 27.448 4.476V11.676C27.448 11.684 27.448 11.724 27.448 11.796C27.448 11.86 27.44 11.94 27.424 12.036C27.408 12.132 27.384 12.228 27.352 12.324C27.32 12.42 27.268 12.5 27.196 12.564C27.14 12.62 27.06 12.664 26.956 12.696C26.852 12.728 26.756 12.744 26.668 12.744C26.476 12.744 26.324 12.68 26.212 12.552C26.108 12.44 26.044 12.324 26.02 12.204C25.996 12.084 25.976 11.956 25.96 11.82C25.96 11.796 25.956 11.772 25.948 11.748C25.948 11.724 25.948 11.696 25.948 11.664C25.932 11.536 25.924 11.4 25.924 11.256C25.924 11.112 25.92 10.968 25.912 10.824C25.904 10.736 25.9 10.652 25.9 10.572C25.9 10.484 25.9 10.396 25.9 10.308V10.032C25.9 9.952 25.9 9.852 25.9 9.732C25.9 9.612 25.896 9.492 25.888 9.372C25.888 9.252 25.888 9.136 25.888 9.024C25.888 8.904 25.888 8.8 25.888 8.712C25.888 8.672 25.888 8.628 25.888 8.58C25.888 8.532 25.88 8.488 25.864 8.448ZM22.636 10.764L22.624 8.28L20.548 8.292C20.54 8.46 20.536 8.668 20.536 8.916C20.544 9.164 20.548 9.372 20.548 9.54C20.548 9.604 20.548 9.692 20.548 9.804C20.548 9.916 20.548 10.036 20.548 10.164C20.548 10.292 20.548 10.412 20.548 10.524C20.548 10.636 20.548 10.72 20.548 10.776L22.636 10.764Z" fill="#FF9D3B"/>
<path d="M35.7889 8.388C35.7489 8.388 35.6609 8.384 35.5249 8.376C35.3889 8.368 35.2889 8.364 35.2249 8.364C35.1449 8.364 35.0689 8.364 34.9969 8.364C34.9329 8.356 34.8689 8.344 34.8049 8.328C34.7409 8.328 34.6769 8.32 34.6129 8.304C34.5569 8.288 34.4969 8.268 34.4329 8.244C34.3289 8.188 34.2449 8.12 34.1809 8.04C34.1409 7.984 34.1049 7.932 34.0729 7.884C34.0489 7.836 34.0369 7.78 34.0369 7.716C34.0209 7.62 34.0249 7.508 34.0489 7.38C34.0809 7.252 34.1249 7.156 34.1809 7.092C34.2049 7.052 34.2249 7.02 34.2409 6.996C34.2649 6.972 34.2929 6.944 34.3249 6.912C34.3729 6.872 34.4249 6.844 34.4809 6.828C34.5369 6.804 34.5889 6.784 34.6369 6.768C34.7249 6.752 34.8049 6.744 34.8769 6.744C34.9569 6.744 35.0329 6.744 35.1049 6.744H35.8129V5.88C35.8129 5.784 35.8089 5.696 35.8009 5.616C35.7929 5.536 35.7889 5.452 35.7889 5.364C35.7889 5.172 35.7889 4.984 35.7889 4.8C35.7889 4.608 35.7969 4.416 35.8129 4.224C35.8129 4.104 35.8209 3.98 35.8369 3.852C35.8609 3.724 35.8929 3.604 35.9329 3.492C35.9649 3.396 36.0209 3.304 36.1009 3.216C36.2049 3.12 36.3249 3.072 36.4609 3.072H36.4849C36.6529 3.072 36.7889 3.104 36.8929 3.168C36.9969 3.224 37.0809 3.304 37.1449 3.408C37.2169 3.504 37.2649 3.616 37.2889 3.744C37.3209 3.872 37.3409 4 37.3489 4.128C37.3729 4.336 37.3849 4.552 37.3849 4.776C37.3849 5 37.3849 5.22 37.3849 5.436V10.704C37.3849 10.976 37.3889 11.256 37.3969 11.544C37.4049 11.824 37.3649 12.092 37.2769 12.348C37.2369 12.452 37.1849 12.536 37.1209 12.6C37.0969 12.616 37.0609 12.636 37.0129 12.66C36.9649 12.684 36.9169 12.704 36.8689 12.72C36.8209 12.736 36.7729 12.748 36.7249 12.756C36.6849 12.764 36.6449 12.768 36.6049 12.768C36.4209 12.768 36.2729 12.712 36.1609 12.6C36.0569 12.496 35.9769 12.368 35.9209 12.216C35.8649 12.056 35.8289 11.892 35.8129 11.724C35.7969 11.556 35.7889 11.408 35.7889 11.28V10.848C35.7889 10.704 35.7889 10.544 35.7889 10.368C35.7889 10.184 35.7889 10 35.7889 9.816C35.7969 9.624 35.8009 9.44 35.8009 9.264C35.8009 9.08 35.7969 8.912 35.7889 8.76V8.388ZM31.6489 10.632C31.6409 10.536 31.6369 10.44 31.6369 10.344C31.6369 10.248 31.6369 10.152 31.6369 10.056V6.24C31.6369 6.112 31.6369 5.984 31.6369 5.856C31.6369 5.728 31.6289 5.596 31.6129 5.46C31.6049 5.42 31.5929 5.364 31.5769 5.292C31.5689 5.22 31.5449 5.176 31.5049 5.16C31.4649 5.136 31.4169 5.128 31.3609 5.136C31.3129 5.136 31.2649 5.132 31.2169 5.124C31.1609 5.116 31.1049 5.116 31.0489 5.124C31.0009 5.132 30.9489 5.132 30.8929 5.124H30.3289C30.1929 5.132 30.0569 5.132 29.9209 5.124C29.7849 5.116 29.6489 5.116 29.5129 5.124C29.4489 5.132 29.3889 5.136 29.3329 5.136C29.2849 5.128 29.2289 5.124 29.1649 5.124C29.0769 5.124 28.9849 5.12 28.8889 5.112C28.7929 5.104 28.7049 5.072 28.6249 5.016C28.5129 4.936 28.4369 4.836 28.3969 4.716C28.3569 4.596 28.3369 4.472 28.3369 4.344C28.3289 4.192 28.3609 4.04 28.4329 3.888C28.4729 3.792 28.5249 3.724 28.5889 3.684C28.6289 3.644 28.6849 3.612 28.7569 3.588C28.8369 3.556 28.9049 3.532 28.9609 3.516C29.1289 3.476 29.3049 3.456 29.4889 3.456C29.6729 3.448 29.8529 3.444 30.0289 3.444H32.1169C32.2209 3.46 32.3289 3.476 32.4409 3.492C32.5609 3.5 32.6689 3.524 32.7649 3.564C32.8289 3.588 32.8889 3.62 32.9449 3.66C33.0089 3.7 33.0609 3.748 33.1009 3.804C33.1729 3.916 33.2129 4.028 33.2209 4.14C33.2369 4.252 33.2529 4.376 33.2689 4.512C33.2849 4.736 33.2929 4.96 33.2929 5.184C33.2929 5.4 33.2929 5.62 33.2929 5.844V9.78C33.2929 9.788 33.2929 9.852 33.2929 9.972C33.3009 10.084 33.3049 10.22 33.3049 10.38C33.3049 10.532 33.3049 10.696 33.3049 10.872C33.3049 11.04 33.3009 11.188 33.2929 11.316C33.2849 11.396 33.2729 11.48 33.2569 11.568C33.2409 11.656 33.2129 11.74 33.1729 11.82C33.1409 11.9 33.0929 11.972 33.0289 12.036C32.9649 12.1 32.8809 12.152 32.7769 12.192C32.6409 12.248 32.5049 12.276 32.3689 12.276C32.2649 12.276 32.1609 12.256 32.0569 12.216C31.9529 12.168 31.8809 12.1 31.8409 12.012C31.7129 11.756 31.6489 11.472 31.6489 11.16V10.632Z" fill="#FF9D3B"/>
<path d="M43.3619 3.384C43.4979 3.44 43.6259 3.504 43.7459 3.576C43.8739 3.64 43.9939 3.716 44.1059 3.804C44.2339 3.924 44.3499 4.056 44.4539 4.2C44.5579 4.344 44.6299 4.5 44.6699 4.668C44.7099 4.82 44.7419 4.98 44.7659 5.148C44.7979 5.308 44.8059 5.468 44.7899 5.628C44.7819 5.732 44.7699 5.836 44.7539 5.94C44.7459 6.044 44.7259 6.144 44.6939 6.24C44.6299 6.512 44.5179 6.768 44.3579 7.008C44.1979 7.24 43.9819 7.432 43.7099 7.584C43.5099 7.696 43.2979 7.78 43.0739 7.836C42.8579 7.884 42.6339 7.924 42.4019 7.956C42.3219 7.972 42.2459 7.984 42.1739 7.992C42.1019 7.992 42.0259 7.996 41.9459 8.004C41.8819 8.012 41.8139 8.016 41.7419 8.016C41.6779 8.008 41.6099 8 41.5379 7.992C41.4259 7.984 41.3139 7.976 41.2019 7.968C41.0979 7.952 40.9899 7.94 40.8779 7.932C40.6539 7.9 40.4339 7.844 40.2179 7.764C40.0019 7.676 39.8059 7.572 39.6299 7.452C39.2939 7.228 39.0579 6.944 38.9219 6.6C38.7939 6.256 38.7299 5.904 38.7299 5.544C38.7299 5.368 38.7499 5.184 38.7899 4.992C38.8299 4.8 38.8939 4.616 38.9819 4.44C39.0699 4.264 39.1819 4.1 39.3179 3.948C39.4539 3.788 39.6179 3.648 39.8099 3.528C39.9539 3.44 40.1019 3.368 40.2539 3.312C40.4059 3.248 40.5659 3.196 40.7339 3.156C40.9979 3.108 41.2659 3.084 41.5379 3.084C41.8579 3.068 42.1579 3.084 42.4379 3.132C42.5099 3.148 42.5819 3.164 42.6539 3.18C42.7259 3.188 42.7979 3.2 42.8699 3.216C43.0459 3.264 43.2099 3.32 43.3619 3.384ZM47.3099 12.396C47.2699 12.5 47.1939 12.584 47.0819 12.648C46.9939 12.704 46.8979 12.736 46.7939 12.744C46.6899 12.76 46.5859 12.76 46.4819 12.744C46.3619 12.72 46.2619 12.672 46.1819 12.6C46.1099 12.536 46.0539 12.452 46.0139 12.348C45.9819 12.252 45.9539 12.156 45.9299 12.06C45.9139 11.964 45.9059 11.88 45.9059 11.808C45.9059 11.736 45.9059 11.7 45.9059 11.7V4.392C45.9059 4.304 45.9059 4.204 45.9059 4.092C45.9059 3.98 45.9139 3.868 45.9299 3.756C45.9459 3.644 45.9659 3.544 45.9899 3.456C46.0219 3.36 46.0659 3.284 46.1219 3.228C46.2099 3.14 46.3019 3.088 46.3979 3.072C46.4939 3.056 46.5979 3.048 46.7099 3.048C46.8459 3.048 46.9699 3.084 47.0819 3.156C47.1939 3.228 47.2739 3.328 47.3219 3.456C47.3939 3.624 47.4339 3.8 47.4419 3.984C47.4499 4.16 47.4579 4.34 47.4659 4.524C47.4819 5.164 47.4859 5.804 47.4779 6.444C47.4699 7.084 47.4659 7.688 47.4659 8.256V11.256C47.4659 11.44 47.4539 11.628 47.4299 11.82C47.4139 12.004 47.3739 12.196 47.3099 12.396ZM39.2939 9.984C39.1819 9.976 39.0699 9.956 38.9579 9.924C38.8459 9.884 38.7419 9.812 38.6459 9.708C38.5499 9.612 38.5019 9.472 38.5019 9.288C38.5019 9.12 38.5499 8.98 38.6459 8.868C38.7019 8.804 38.7699 8.756 38.8499 8.724C38.9379 8.692 39.0219 8.668 39.1019 8.652C39.1819 8.636 39.2499 8.628 39.3059 8.628C39.3699 8.628 39.4059 8.628 39.4139 8.628H44.1299C44.2899 8.628 44.4579 8.636 44.6339 8.652C44.8099 8.668 44.9579 8.732 45.0779 8.844C45.1499 8.916 45.1979 8.992 45.2219 9.072C45.2539 9.152 45.2699 9.24 45.2699 9.336C45.2699 9.456 45.2419 9.568 45.1859 9.672C45.1299 9.768 45.0459 9.836 44.9339 9.876C44.7899 9.94 44.6419 9.98 44.4899 9.996C44.3379 10.004 44.1859 10.012 44.0339 10.02C43.7939 10.028 43.6099 10.036 43.4819 10.044C43.3619 10.052 43.2579 10.06 43.1699 10.068C43.0899 10.068 43.0099 10.068 42.9299 10.068C42.8499 10.068 42.7379 10.068 42.5939 10.068L42.5699 11.748C42.5699 11.868 42.5459 11.98 42.4979 12.084C42.4499 12.188 42.3819 12.276 42.2939 12.348C42.2139 12.428 42.1219 12.488 42.0179 12.528C41.9139 12.568 41.8059 12.584 41.6939 12.576C41.6059 12.568 41.5219 12.552 41.4419 12.528C41.3619 12.504 41.2899 12.464 41.2259 12.408C41.1619 12.36 41.1099 12.292 41.0699 12.204C41.0299 12.108 41.0099 11.984 41.0099 11.832L40.9739 10.056C40.6939 10.048 40.4259 10.04 40.1699 10.032C39.9219 10.016 39.6299 10 39.2939 9.984ZM43.1459 5.916C43.1939 5.684 43.1779 5.464 43.0979 5.256C43.0819 5.216 43.0619 5.172 43.0379 5.124C43.0139 5.076 42.9819 5.032 42.9419 4.992C42.9019 4.944 42.8619 4.904 42.8219 4.872C42.7899 4.832 42.7419 4.792 42.6779 4.752C42.6219 4.712 42.5579 4.676 42.4859 4.644C42.4219 4.612 42.3539 4.584 42.2819 4.56C42.0739 4.504 41.8659 4.476 41.6579 4.476C41.4499 4.476 41.2579 4.508 41.0819 4.572C40.9059 4.636 40.7539 4.736 40.6259 4.872C40.4979 5.008 40.4179 5.184 40.3859 5.4C40.3619 5.536 40.3579 5.676 40.3739 5.82C40.3979 5.964 40.4499 6.092 40.5299 6.204C40.6979 6.42 40.9299 6.58 41.2259 6.684C41.3379 6.724 41.4499 6.752 41.5619 6.768C41.6739 6.776 41.7859 6.776 41.8979 6.768C42.0099 6.76 42.1219 6.748 42.2339 6.732C42.3539 6.716 42.4659 6.684 42.5699 6.636C42.7219 6.564 42.8459 6.464 42.9419 6.336C43.0379 6.2 43.1059 6.06 43.1459 5.916Z" fill="#FF9D3B"/>
<path d="M52.0508 10.632C52.0428 10.536 52.0388 10.44 52.0388 10.344C52.0388 10.248 52.0388 10.152 52.0388 10.056V8.352C51.8148 8.36 51.6028 8.364 51.4028 8.364C51.2108 8.356 51.0388 8.348 50.8868 8.34C50.7588 8.34 50.6588 8.34 50.5868 8.34C50.5148 8.34 50.4468 8.34 50.3828 8.34C50.3188 8.34 50.2468 8.34 50.1668 8.34C50.0948 8.34 49.9988 8.34 49.8788 8.34C49.6548 8.34 49.4228 8.32 49.1828 8.28C48.9428 8.24 48.7308 8.14 48.5468 7.98C48.4268 7.868 48.3468 7.748 48.3068 7.62C48.2748 7.484 48.3028 7.348 48.3908 7.212C48.5028 7.044 48.6628 6.936 48.8708 6.888C49.0788 6.832 49.2708 6.792 49.4468 6.768C49.5508 6.752 49.6148 6.744 49.6388 6.744C49.6628 6.744 49.6748 6.744 49.6748 6.744C49.6748 6.744 49.6828 6.748 49.6988 6.756C49.7228 6.756 49.7908 6.752 49.9028 6.744H52.0388V6C52.0388 5.872 52.0388 5.764 52.0388 5.676C52.0388 5.588 52.0308 5.476 52.0148 5.34C52.0068 5.3 51.9948 5.244 51.9788 5.172C51.9708 5.1 51.9468 5.056 51.9068 5.04C51.8668 5.016 51.8188 5.008 51.7628 5.016C51.7148 5.016 51.6668 5.012 51.6188 5.004C51.5628 4.996 51.5068 4.996 51.4508 5.004C51.4028 5.012 51.3508 5.012 51.2948 5.004H50.3588C50.2228 5.012 50.0868 5.012 49.9508 5.004C49.8148 4.996 49.6788 4.996 49.5428 5.004C49.4788 5.012 49.4188 5.016 49.3628 5.016C49.3148 5.008 49.2588 5.004 49.1948 5.004C49.1068 5.004 49.0148 5 48.9188 4.992C48.8228 4.984 48.7348 4.952 48.6548 4.896C48.5428 4.816 48.4668 4.716 48.4268 4.596C48.3868 4.476 48.3668 4.352 48.3668 4.224C48.3588 4.072 48.3908 3.92 48.4628 3.768C48.5028 3.672 48.5548 3.604 48.6188 3.564C48.6588 3.524 48.7148 3.492 48.7868 3.468C48.8668 3.436 48.9348 3.412 48.9908 3.396C49.1588 3.356 49.3348 3.336 49.5188 3.336C49.7028 3.328 49.8828 3.324 50.0588 3.324H52.5188C52.6228 3.34 52.7308 3.356 52.8428 3.372C52.9628 3.38 53.0708 3.404 53.1668 3.444C53.2308 3.468 53.2908 3.5 53.3468 3.54C53.4108 3.58 53.4628 3.628 53.5028 3.684C53.5748 3.796 53.6148 3.908 53.6228 4.02C53.6388 4.132 53.6548 4.256 53.6708 4.392C53.6868 4.616 53.6948 4.84 53.6948 5.064C53.6948 5.28 53.6948 5.5 53.6948 5.724V9.78C53.6948 9.788 53.6948 9.852 53.6948 9.972C53.7028 10.084 53.7068 10.22 53.7068 10.38C53.7068 10.532 53.7068 10.696 53.7068 10.872C53.7068 11.04 53.7028 11.188 53.6948 11.316C53.6868 11.396 53.6748 11.48 53.6588 11.568C53.6428 11.656 53.6148 11.74 53.5748 11.82C53.5428 11.9 53.4948 11.972 53.4308 12.036C53.3668 12.1 53.2828 12.152 53.1788 12.192C53.0428 12.248 52.9068 12.276 52.7708 12.276C52.6668 12.276 52.5628 12.256 52.4588 12.216C52.3548 12.168 52.2828 12.1 52.2428 12.012C52.1148 11.756 52.0508 11.472 52.0508 11.16V10.632ZM57.0188 11.664C57.0028 11.76 56.9908 11.856 56.9828 11.952C56.9748 12.04 56.9548 12.132 56.9228 12.228C56.9068 12.26 56.8948 12.288 56.8868 12.312C56.8788 12.336 56.8668 12.364 56.8508 12.396C56.7948 12.508 56.7228 12.596 56.6348 12.66C56.4508 12.772 56.2468 12.8 56.0228 12.744C55.8948 12.72 55.7908 12.672 55.7108 12.6C55.6388 12.536 55.5828 12.452 55.5428 12.348C55.5108 12.252 55.4828 12.156 55.4588 12.06C55.4428 11.964 55.4348 11.88 55.4348 11.808C55.4348 11.736 55.4348 11.696 55.4348 11.688V4.416C55.4348 4.32 55.4348 4.216 55.4348 4.104C55.4348 3.992 55.4428 3.88 55.4588 3.768C55.4748 3.656 55.4988 3.552 55.5308 3.456C55.5628 3.36 55.6068 3.284 55.6628 3.228C55.7508 3.14 55.8428 3.088 55.9388 3.072C56.0348 3.048 56.1388 3.036 56.2508 3.036C56.3868 3.036 56.5108 3.076 56.6228 3.156C56.7428 3.228 56.8268 3.332 56.8748 3.468C56.9468 3.636 56.9868 3.812 56.9948 3.996C57.0028 4.18 57.0108 4.364 57.0188 4.548V4.608C57.0348 5.224 57.0388 5.856 57.0308 6.504C57.0228 7.152 57.0188 7.764 57.0188 8.34V11.232C57.0188 11.304 57.0188 11.376 57.0188 11.448C57.0268 11.52 57.0268 11.592 57.0188 11.664Z" fill="#FF9D3B"/>
<path d="M22.636 4.62C22.636 4.54 22.64 4.428 22.648 4.284C22.656 4.14 22.684 3.996 22.732 3.852C22.78 3.708 22.852 3.584 22.948 3.48C23.052 3.376 23.2 3.324 23.392 3.324C23.56 3.324 23.708 3.368 23.836 3.456C23.932 3.52 24.004 3.636 24.052 3.804C24.108 3.964 24.144 4.144 24.16 4.344C24.184 4.544 24.196 4.744 24.196 4.944C24.196 5.144 24.192 5.308 24.184 5.436V9.84C24.184 9.864 24.184 9.952 24.184 10.104C24.184 10.248 24.176 10.416 24.16 10.608C24.144 10.792 24.116 10.984 24.076 11.184C24.044 11.376 23.996 11.532 23.932 11.652C23.908 11.708 23.868 11.768 23.812 11.832C23.764 11.888 23.728 11.928 23.704 11.952C23.64 12.016 23.568 12.064 23.488 12.096C23.416 12.128 23.34 12.156 23.26 12.18C23.18 12.196 23.108 12.208 23.044 12.216C22.98 12.224 22.936 12.228 22.912 12.228H20.392C20.2 12.228 20.016 12.212 19.84 12.18C19.672 12.148 19.516 12.076 19.372 11.964C19.268 11.884 19.188 11.784 19.132 11.664C19.084 11.536 19.048 11.412 19.024 11.292C19.008 11.172 19 11.064 19 10.968C19 10.864 19 10.8 19 10.776V4.5C19 4.388 19.012 4.264 19.036 4.128C19.068 3.992 19.112 3.868 19.168 3.756C19.232 3.636 19.312 3.54 19.408 3.468C19.504 3.388 19.624 3.348 19.768 3.348C20.168 3.348 20.428 3.52 20.548 3.864C20.588 3.976 20.612 4.088 20.62 4.2C20.628 4.312 20.636 4.424 20.644 4.536V4.56C20.644 4.616 20.644 4.748 20.644 4.956C20.644 5.164 20.644 5.392 20.644 5.64C20.644 5.88 20.644 6.116 20.644 6.348C20.652 6.572 20.656 6.732 20.656 6.828C20.696 6.828 20.8 6.828 20.968 6.828C21.136 6.828 21.324 6.828 21.532 6.828C21.748 6.828 21.956 6.824 22.156 6.816C22.356 6.808 22.508 6.792 22.612 6.768L22.636 6.216V4.62ZM25.864 8.448C25.752 8.432 25.64 8.424 25.528 8.424C25.424 8.416 25.316 8.404 25.204 8.388C25.068 8.38 24.944 8.348 24.832 8.292C24.72 8.236 24.628 8.164 24.556 8.076C24.484 7.988 24.436 7.88 24.412 7.752C24.396 7.624 24.408 7.484 24.448 7.332C24.464 7.268 24.496 7.2 24.544 7.128C24.6 7.056 24.652 7 24.7 6.96C24.812 6.88 24.924 6.828 25.036 6.804C25.164 6.788 25.296 6.784 25.432 6.792C25.576 6.8 25.716 6.796 25.852 6.78H25.888V6.732C25.888 6.636 25.888 6.556 25.888 6.492C25.896 6.428 25.9 6.368 25.9 6.312C25.9 6.256 25.896 6.196 25.888 6.132C25.888 6.068 25.888 5.984 25.888 5.88C25.888 5.672 25.884 5.468 25.876 5.268C25.876 5.06 25.88 4.856 25.888 4.656V4.488C25.888 4.384 25.888 4.272 25.888 4.152C25.896 4.024 25.908 3.9 25.924 3.78C25.94 3.652 25.968 3.536 26.008 3.432C26.048 3.32 26.104 3.228 26.176 3.156C26.296 3.052 26.424 3 26.56 3H26.584C26.776 3.008 26.928 3.068 27.04 3.18C27.16 3.284 27.248 3.412 27.304 3.564C27.368 3.716 27.408 3.876 27.424 4.044C27.44 4.204 27.448 4.348 27.448 4.476V11.676C27.448 11.684 27.448 11.724 27.448 11.796C27.448 11.86 27.44 11.94 27.424 12.036C27.408 12.132 27.384 12.228 27.352 12.324C27.32 12.42 27.268 12.5 27.196 12.564C27.14 12.62 27.06 12.664 26.956 12.696C26.852 12.728 26.756 12.744 26.668 12.744C26.476 12.744 26.324 12.68 26.212 12.552C26.108 12.44 26.044 12.324 26.02 12.204C25.996 12.084 25.976 11.956 25.96 11.82C25.96 11.796 25.956 11.772 25.948 11.748C25.948 11.724 25.948 11.696 25.948 11.664C25.932 11.536 25.924 11.4 25.924 11.256C25.924 11.112 25.92 10.968 25.912 10.824C25.904 10.736 25.9 10.652 25.9 10.572C25.9 10.484 25.9 10.396 25.9 10.308V10.032C25.9 9.952 25.9 9.852 25.9 9.732C25.9 9.612 25.896 9.492 25.888 9.372C25.888 9.252 25.888 9.136 25.888 9.024C25.888 8.904 25.888 8.8 25.888 8.712C25.888 8.672 25.888 8.628 25.888 8.58C25.888 8.532 25.88 8.488 25.864 8.448ZM22.636 10.764L22.624 8.28L20.548 8.292C20.54 8.46 20.536 8.668 20.536 8.916C20.544 9.164 20.548 9.372 20.548 9.54C20.548 9.604 20.548 9.692 20.548 9.804C20.548 9.916 20.548 10.036 20.548 10.164C20.548 10.292 20.548 10.412 20.548 10.524C20.548 10.636 20.548 10.72 20.548 10.776L22.636 10.764Z" stroke="black" mask="url(#path-1-outside-1_11_2)"/>
<path d="M35.7889 8.388C35.7489 8.388 35.6609 8.384 35.5249 8.376C35.3889 8.368 35.2889 8.364 35.2249 8.364C35.1449 8.364 35.0689 8.364 34.9969 8.364C34.9329 8.356 34.8689 8.344 34.8049 8.328C34.7409 8.328 34.6769 8.32 34.6129 8.304C34.5569 8.288 34.4969 8.268 34.4329 8.244C34.3289 8.188 34.2449 8.12 34.1809 8.04C34.1409 7.984 34.1049 7.932 34.0729 7.884C34.0489 7.836 34.0369 7.78 34.0369 7.716C34.0209 7.62 34.0249 7.508 34.0489 7.38C34.0809 7.252 34.1249 7.156 34.1809 7.092C34.2049 7.052 34.2249 7.02 34.2409 6.996C34.2649 6.972 34.2929 6.944 34.3249 6.912C34.3729 6.872 34.4249 6.844 34.4809 6.828C34.5369 6.804 34.5889 6.784 34.6369 6.768C34.7249 6.752 34.8049 6.744 34.8769 6.744C34.9569 6.744 35.0329 6.744 35.1049 6.744H35.8129V5.88C35.8129 5.784 35.8089 5.696 35.8009 5.616C35.7929 5.536 35.7889 5.452 35.7889 5.364C35.7889 5.172 35.7889 4.984 35.7889 4.8C35.7889 4.608 35.7969 4.416 35.8129 4.224C35.8129 4.104 35.8209 3.98 35.8369 3.852C35.8609 3.724 35.8929 3.604 35.9329 3.492C35.9649 3.396 36.0209 3.304 36.1009 3.216C36.2049 3.12 36.3249 3.072 36.4609 3.072H36.4849C36.6529 3.072 36.7889 3.104 36.8929 3.168C36.9969 3.224 37.0809 3.304 37.1449 3.408C37.2169 3.504 37.2649 3.616 37.2889 3.744C37.3209 3.872 37.3409 4 37.3489 4.128C37.3729 4.336 37.3849 4.552 37.3849 4.776C37.3849 5 37.3849 5.22 37.3849 5.436V10.704C37.3849 10.976 37.3889 11.256 37.3969 11.544C37.4049 11.824 37.3649 12.092 37.2769 12.348C37.2369 12.452 37.1849 12.536 37.1209 12.6C37.0969 12.616 37.0609 12.636 37.0129 12.66C36.9649 12.684 36.9169 12.704 36.8689 12.72C36.8209 12.736 36.7729 12.748 36.7249 12.756C36.6849 12.764 36.6449 12.768 36.6049 12.768C36.4209 12.768 36.2729 12.712 36.1609 12.6C36.0569 12.496 35.9769 12.368 35.9209 12.216C35.8649 12.056 35.8289 11.892 35.8129 11.724C35.7969 11.556 35.7889 11.408 35.7889 11.28V10.848C35.7889 10.704 35.7889 10.544 35.7889 10.368C35.7889 10.184 35.7889 10 35.7889 9.816C35.7969 9.624 35.8009 9.44 35.8009 9.264C35.8009 9.08 35.7969 8.912 35.7889 8.76V8.388ZM31.6489 10.632C31.6409 10.536 31.6369 10.44 31.6369 10.344C31.6369 10.248 31.6369 10.152 31.6369 10.056V6.24C31.6369 6.112 31.6369 5.984 31.6369 5.856C31.6369 5.728 31.6289 5.596 31.6129 5.46C31.6049 5.42 31.5929 5.364 31.5769 5.292C31.5689 5.22 31.5449 5.176 31.5049 5.16C31.4649 5.136 31.4169 5.128 31.3609 5.136C31.3129 5.136 31.2649 5.132 31.2169 5.124C31.1609 5.116 31.1049 5.116 31.0489 5.124C31.0009 5.132 30.9489 5.132 30.8929 5.124H30.3289C30.1929 5.132 30.0569 5.132 29.9209 5.124C29.7849 5.116 29.6489 5.116 29.5129 5.124C29.4489 5.132 29.3889 5.136 29.3329 5.136C29.2849 5.128 29.2289 5.124 29.1649 5.124C29.0769 5.124 28.9849 5.12 28.8889 5.112C28.7929 5.104 28.7049 5.072 28.6249 5.016C28.5129 4.936 28.4369 4.836 28.3969 4.716C28.3569 4.596 28.3369 4.472 28.3369 4.344C28.3289 4.192 28.3609 4.04 28.4329 3.888C28.4729 3.792 28.5249 3.724 28.5889 3.684C28.6289 3.644 28.6849 3.612 28.7569 3.588C28.8369 3.556 28.9049 3.532 28.9609 3.516C29.1289 3.476 29.3049 3.456 29.4889 3.456C29.6729 3.448 29.8529 3.444 30.0289 3.444H32.1169C32.2209 3.46 32.3289 3.476 32.4409 3.492C32.5609 3.5 32.6689 3.524 32.7649 3.564C32.8289 3.588 32.8889 3.62 32.9449 3.66C33.0089 3.7 33.0609 3.748 33.1009 3.804C33.1729 3.916 33.2129 4.028 33.2209 4.14C33.2369 4.252 33.2529 4.376 33.2689 4.512C33.2849 4.736 33.2929 4.96 33.2929 5.184C33.2929 5.4 33.2929 5.62 33.2929 5.844V9.78C33.2929 9.788 33.2929 9.852 33.2929 9.972C33.3009 10.084 33.3049 10.22 33.3049 10.38C33.3049 10.532 33.3049 10.696 33.3049 10.872C33.3049 11.04 33.3009 11.188 33.2929 11.316C33.2849 11.396 33.2729 11.48 33.2569 11.568C33.2409 11.656 33.2129 11.74 33.1729 11.82C33.1409 11.9 33.0929 11.972 33.0289 12.036C32.9649 12.1 32.8809 12.152 32.7769 12.192C32.6409 12.248 32.5049 12.276 32.3689 12.276C32.2649 12.276 32.1609 12.256 32.0569 12.216C31.9529 12.168 31.8809 12.1 31.8409 12.012C31.7129 11.756 31.6489 11.472 31.6489 11.16V10.632Z" stroke="black" mask="url(#path-1-outside-1_11_2)"/>
<path d="M43.3619 3.384C43.4979 3.44 43.6259 3.504 43.7459 3.576C43.8739 3.64 43.9939 3.716 44.1059 3.804C44.2339 3.924 44.3499 4.056 44.4539 4.2C44.5579 4.344 44.6299 4.5 44.6699 4.668C44.7099 4.82 44.7419 4.98 44.7659 5.148C44.7979 5.308 44.8059 5.468 44.7899 5.628C44.7819 5.732 44.7699 5.836 44.7539 5.94C44.7459 6.044 44.7259 6.144 44.6939 6.24C44.6299 6.512 44.5179 6.768 44.3579 7.008C44.1979 7.24 43.9819 7.432 43.7099 7.584C43.5099 7.696 43.2979 7.78 43.0739 7.836C42.8579 7.884 42.6339 7.924 42.4019 7.956C42.3219 7.972 42.2459 7.984 42.1739 7.992C42.1019 7.992 42.0259 7.996 41.9459 8.004C41.8819 8.012 41.8139 8.016 41.7419 8.016C41.6779 8.008 41.6099 8 41.5379 7.992C41.4259 7.984 41.3139 7.976 41.2019 7.968C41.0979 7.952 40.9899 7.94 40.8779 7.932C40.6539 7.9 40.4339 7.844 40.2179 7.764C40.0019 7.676 39.8059 7.572 39.6299 7.452C39.2939 7.228 39.0579 6.944 38.9219 6.6C38.7939 6.256 38.7299 5.904 38.7299 5.544C38.7299 5.368 38.7499 5.184 38.7899 4.992C38.8299 4.8 38.8939 4.616 38.9819 4.44C39.0699 4.264 39.1819 4.1 39.3179 3.948C39.4539 3.788 39.6179 3.648 39.8099 3.528C39.9539 3.44 40.1019 3.368 40.2539 3.312C40.4059 3.248 40.5659 3.196 40.7339 3.156C40.9979 3.108 41.2659 3.084 41.5379 3.084C41.8579 3.068 42.1579 3.084 42.4379 3.132C42.5099 3.148 42.5819 3.164 42.6539 3.18C42.7259 3.188 42.7979 3.2 42.8699 3.216C43.0459 3.264 43.2099 3.32 43.3619 3.384ZM47.3099 12.396C47.2699 12.5 47.1939 12.584 47.0819 12.648C46.9939 12.704 46.8979 12.736 46.7939 12.744C46.6899 12.76 46.5859 12.76 46.4819 12.744C46.3619 12.72 46.2619 12.672 46.1819 12.6C46.1099 12.536 46.0539 12.452 46.0139 12.348C45.9819 12.252 45.9539 12.156 45.9299 12.06C45.9139 11.964 45.9059 11.88 45.9059 11.808C45.9059 11.736 45.9059 11.7 45.9059 11.7V4.392C45.9059 4.304 45.9059 4.204 45.9059 4.092C45.9059 3.98 45.9139 3.868 45.9299 3.756C45.9459 3.644 45.9659 3.544 45.9899 3.456C46.0219 3.36 46.0659 3.284 46.1219 3.228C46.2099 3.14 46.3019 3.088 46.3979 3.072C46.4939 3.056 46.5979 3.048 46.7099 3.048C46.8459 3.048 46.9699 3.084 47.0819 3.156C47.1939 3.228 47.2739 3.328 47.3219 3.456C47.3939 3.624 47.4339 3.8 47.4419 3.984C47.4499 4.16 47.4579 4.34 47.4659 4.524C47.4819 5.164 47.4859 5.804 47.4779 6.444C47.4699 7.084 47.4659 7.688 47.4659 8.256V11.256C47.4659 11.44 47.4539 11.628 47.4299 11.82C47.4139 12.004 47.3739 12.196 47.3099 12.396ZM39.2939 9.984C39.1819 9.976 39.0699 9.956 38.9579 9.924C38.8459 9.884 38.7419 9.812 38.6459 9.708C38.5499 9.612 38.5019 9.472 38.5019 9.288C38.5019 9.12 38.5499 8.98 38.6459 8.868C38.7019 8.804 38.7699 8.756 38.8499 8.724C38.9379 8.692 39.0219 8.668 39.1019 8.652C39.1819 8.636 39.2499 8.628 39.3059 8.628C39.3699 8.628 39.4059 8.628 39.4139 8.628H44.1299C44.2899 8.628 44.4579 8.636 44.6339 8.652C44.8099 8.668 44.9579 8.732 45.0779 8.844C45.1499 8.916 45.1979 8.992 45.2219 9.072C45.2539 9.152 45.2699 9.24 45.2699 9.336C45.2699 9.456 45.2419 9.568 45.1859 9.672C45.1299 9.768 45.0459 9.836 44.9339 9.876C44.7899 9.94 44.6419 9.98 44.4899 9.996C44.3379 10.004 44.1859 10.012 44.0339 10.02C43.7939 10.028 43.6099 10.036 43.4819 10.044C43.3619 10.052 43.2579 10.06 43.1699 10.068C43.0899 10.068 43.0099 10.068 42.9299 10.068C42.8499 10.068 42.7379 10.068 42.5939 10.068L42.5699 11.748C42.5699 11.868 42.5459 11.98 42.4979 12.084C42.4499 12.188 42.3819 12.276 42.2939 12.348C42.2139 12.428 42.1219 12.488 42.0179 12.528C41.9139 12.568 41.8059 12.584 41.6939 12.576C41.6059 12.568 41.5219 12.552 41.4419 12.528C41.3619 12.504 41.2899 12.464 41.2259 12.408C41.1619 12.36 41.1099 12.292 41.0699 12.204C41.0299 12.108 41.0099 11.984 41.0099 11.832L40.9739 10.056C40.6939 10.048 40.4259 10.04 40.1699 10.032C39.9219 10.016 39.6299 10 39.2939 9.984ZM43.1459 5.916C43.1939 5.684 43.1779 5.464 43.0979 5.256C43.0819 5.216 43.0619 5.172 43.0379 5.124C43.0139 5.076 42.9819 5.032 42.9419 4.992C42.9019 4.944 42.8619 4.904 42.8219 4.872C42.7899 4.832 42.7419 4.792 42.6779 4.752C42.6219 4.712 42.5579 4.676 42.4859 4.644C42.4219 4.612 42.3539 4.584 42.2819 4.56C42.0739 4.504 41.8659 4.476 41.6579 4.476C41.4499 4.476 41.2579 4.508 41.0819 4.572C40.9059 4.636 40.7539 4.736 40.6259 4.872C40.4979 5.008 40.4179 5.184 40.3859 5.4C40.3619 5.536 40.3579 5.676 40.3739 5.82C40.3979 5.964 40.4499 6.092 40.5299 6.204C40.6979 6.42 40.9299 6.58 41.2259 6.684C41.3379 6.724 41.4499 6.752 41.5619 6.768C41.6739 6.776 41.7859 6.776 41.8979 6.768C42.0099 6.76 42.1219 6.748 42.2339 6.732C42.3539 6.716 42.4659 6.684 42.5699 6.636C42.7219 6.564 42.8459 6.464 42.9419 6.336C43.0379 6.2 43.1059 6.06 43.1459 5.916Z" stroke="black" mask="url(#path-1-outside-1_11_2)"/>
<path d="M52.0508 10.632C52.0428 10.536 52.0388 10.44 52.0388 10.344C52.0388 10.248 52.0388 10.152 52.0388 10.056V8.352C51.8148 8.36 51.6028 8.364 51.4028 8.364C51.2108 8.356 51.0388 8.348 50.8868 8.34C50.7588 8.34 50.6588 8.34 50.5868 8.34C50.5148 8.34 50.4468 8.34 50.3828 8.34C50.3188 8.34 50.2468 8.34 50.1668 8.34C50.0948 8.34 49.9988 8.34 49.8788 8.34C49.6548 8.34 49.4228 8.32 49.1828 8.28C48.9428 8.24 48.7308 8.14 48.5468 7.98C48.4268 7.868 48.3468 7.748 48.3068 7.62C48.2748 7.484 48.3028 7.348 48.3908 7.212C48.5028 7.044 48.6628 6.936 48.8708 6.888C49.0788 6.832 49.2708 6.792 49.4468 6.768C49.5508 6.752 49.6148 6.744 49.6388 6.744C49.6628 6.744 49.6748 6.744 49.6748 6.744C49.6748 6.744 49.6828 6.748 49.6988 6.756C49.7228 6.756 49.7908 6.752 49.9028 6.744H52.0388V6C52.0388 5.872 52.0388 5.764 52.0388 5.676C52.0388 5.588 52.0308 5.476 52.0148 5.34C52.0068 5.3 51.9948 5.244 51.9788 5.172C51.9708 5.1 51.9468 5.056 51.9068 5.04C51.8668 5.016 51.8188 5.008 51.7628 5.016C51.7148 5.016 51.6668 5.012 51.6188 5.004C51.5628 4.996 51.5068 4.996 51.4508 5.004C51.4028 5.012 51.3508 5.012 51.2948 5.004H50.3588C50.2228 5.012 50.0868 5.012 49.9508 5.004C49.8148 4.996 49.6788 4.996 49.5428 5.004C49.4788 5.012 49.4188 5.016 49.3628 5.016C49.3148 5.008 49.2588 5.004 49.1948 5.004C49.1068 5.004 49.0148 5 48.9188 4.992C48.8228 4.984 48.7348 4.952 48.6548 4.896C48.5428 4.816 48.4668 4.716 48.4268 4.596C48.3868 4.476 48.3668 4.352 48.3668 4.224C48.3588 4.072 48.3908 3.92 48.4628 3.768C48.5028 3.672 48.5548 3.604 48.6188 3.564C48.6588 3.524 48.7148 3.492 48.7868 3.468C48.8668 3.436 48.9348 3.412 48.9908 3.396C49.1588 3.356 49.3348 3.336 49.5188 3.336C49.7028 3.328 49.8828 3.324 50.0588 3.324H52.5188C52.6228 3.34 52.7308 3.356 52.8428 3.372C52.9628 3.38 53.0708 3.404 53.1668 3.444C53.2308 3.468 53.2908 3.5 53.3468 3.54C53.4108 3.58 53.4628 3.628 53.5028 3.684C53.5748 3.796 53.6148 3.908 53.6228 4.02C53.6388 4.132 53.6548 4.256 53.6708 4.392C53.6868 4.616 53.6948 4.84 53.6948 5.064C53.6948 5.28 53.6948 5.5 53.6948 5.724V9.78C53.6948 9.788 53.6948 9.852 53.6948 9.972C53.7028 10.084 53.7068 10.22 53.7068 10.38C53.7068 10.532 53.7068 10.696 53.7068 10.872C53.7068 11.04 53.7028 11.188 53.6948 11.316C53.6868 11.396 53.6748 11.48 53.6588 11.568C53.6428 11.656 53.6148 11.74 53.5748 11.82C53.5428 11.9 53.4948 11.972 53.4308 12.036C53.3668 12.1 53.2828 12.152 53.1788 12.192C53.0428 12.248 52.9068 12.276 52.7708 12.276C52.6668 12.276 52.5628 12.256 52.4588 12.216C52.3548 12.168 52.2828 12.1 52.2428 12.012C52.1148 11.756 52.0508 11.472 52.0508 11.16V10.632ZM57.0188 11.664C57.0028 11.76 56.9908 11.856 56.9828 11.952C56.9748 12.04 56.9548 12.132 56.9228 12.228C56.9068 12.26 56.8948 12.288 56.8868 12.312C56.8788 12.336 56.8668 12.364 56.8508 12.396C56.7948 12.508 56.7228 12.596 56.6348 12.66C56.4508 12.772 56.2468 12.8 56.0228 12.744C55.8948 12.72 55.7908 12.672 55.7108 12.6C55.6388 12.536 55.5828 12.452 55.5428 12.348C55.5108 12.252 55.4828 12.156 55.4588 12.06C55.4428 11.964 55.4348 11.88 55.4348 11.808C55.4348 11.736 55.4348 11.696 55.4348 11.688V4.416C55.4348 4.32 55.4348 4.216 55.4348 4.104C55.4348 3.992 55.4428 3.88 55.4588 3.768C55.4748 3.656 55.4988 3.552 55.5308 3.456C55.5628 3.36 55.6068 3.284 55.6628 3.228C55.7508 3.14 55.8428 3.088 55.9388 3.072C56.0348 3.048 56.1388 3.036 56.2508 3.036C56.3868 3.036 56.5108 3.076 56.6228 3.156C56.7428 3.228 56.8268 3.332 56.8748 3.468C56.9468 3.636 56.9868 3.812 56.9948 3.996C57.0028 4.18 57.0108 4.364 57.0188 4.548V4.608C57.0348 5.224 57.0388 5.856 57.0308 6.504C57.0228 7.152 57.0188 7.764 57.0188 8.34V11.232C57.0188 11.304 57.0188 11.376 57.0188 11.448C57.0268 11.52 57.0268 11.592 57.0188 11.664Z" stroke="black" mask="url(#path-1-outside-1_11_2)"/>
<g clip-path="url(#clip0_11_2)">
<path d="M14.3322 9.51205C14.552 9.68587 14.6931 9.95496 14.6931 10.257C14.6931 10.7812 14.2681 11.2061 13.744 11.2061H11.7955H4.34731H1.25608C0.731898 11.2061 0.306976 10.7811 0.306976 10.257C0.306976 9.945 0.457504 9.66818 0.689916 9.49518L14.3322 9.51205Z" fill="#F7222B"/>
<path d="M13.9584 6.76544C14.3642 6.76544 14.6931 7.09433 14.6931 7.50006C14.6931 7.90576 14.3642 8.23468 13.9584 8.23468H1.04156C0.635832 8.23468 0.306946 7.90579 0.306946 7.50006C0.306946 7.09433 0.635832 6.76544 1.04156 6.76544H2.66382H13.9584Z" fill="#ED732F"/>
<path d="M14.387 11.0965V11.8771C14.387 13.2463 13.2769 14.3564 11.9077 14.3564H3.09234C1.72307 14.3564 0.613037 13.2463 0.613037 11.8771V11.0965H14.387Z" fill="#FF9D3B"/>
<path d="M9.84156 6.76544H1.53132C0.85515 6.76544 0.306976 6.21726 0.306976 5.54109C0.306976 2.83631 2.49961 0.643707 5.20436 0.643707H9.79565C12.5004 0.643707 14.693 2.83634 14.693 5.54109C14.693 6.21726 14.1449 6.76544 13.4687 6.76544H11.9689H9.84156Z" fill="#FF9D3B"/>
<path d="M0.445691 8.09932C0.0559842 8.78416 0.597625 9.38393 0.727761 9.47375C1.09142 9.72471 1.57271 9.72354 1.93582 9.47176C2.30177 9.21981 2.78528 9.21981 3.1512 9.47179L3.1514 9.47194C3.51735 9.72392 4.00084 9.72395 4.36678 9.47197C4.73273 9.22001 5.21625 9.22001 5.58217 9.472C5.94817 9.72404 6.4318 9.72377 6.79758 9.47144L6.79775 9.47132C7.00778 9.32671 7.25648 9.2656 7.4995 9.28699V9.28704C7.49965 9.28701 7.49985 9.28701 7.5 9.28701C7.50014 9.28701 7.50035 9.28704 7.5005 9.28704V9.28699C7.74348 9.2656 7.99221 9.32671 8.20224 9.47132L8.20242 9.47144C8.56819 9.7238 9.05182 9.72404 9.41783 9.472C9.78378 9.22001 10.2673 9.21998 10.6332 9.47197C10.9992 9.72395 11.4827 9.72392 11.8486 9.47194L11.8488 9.47179C12.2147 9.21981 12.6982 9.21978 13.0642 9.47176C13.4273 9.72354 13.9085 9.72471 14.2722 9.47375C14.4023 9.38399 14.944 8.78419 14.5543 8.09932H0.445691Z" fill="#21CC5A"/>
<path d="M5.42042 9.39284L9.77241 12.5811L13.8337 9.66128L12.7188 9.51205L5.42042 9.39284Z" fill="#FFE48D"/>
<path d="M14.7084 9.45374C14.9423 9.13151 15.1466 8.59681 14.859 8.02063C14.9479 7.86738 14.9991 7.68963 14.9991 7.5C14.9991 7.14014 14.8155 6.82242 14.537 6.63545C14.8218 6.35736 14.9991 5.96961 14.9991 5.54103C14.9991 2.67184 12.6648 0.337555 9.79564 0.337555H5.20436C2.33517 0.337555 0.000879126 2.67184 0.000879126 5.54103C0.000879126 5.96959 0.178155 6.35733 0.462979 6.63545C0.184541 6.82242 0.000879126 7.14014 0.000879126 7.5C0.000879126 7.68958 0.0520901 7.86732 0.141035 8.02063C-0.146689 8.59705 0.0578909 9.13192 0.291885 9.4541C0.106465 9.67763 0.000879126 9.96216 0.000879126 10.257C0.000879126 10.5707 0.116895 10.8578 0.307881 11.0781C0.3075 11.0842 0.306973 11.0903 0.306973 11.0965V11.8771C0.306973 13.413 1.55648 14.6625 3.09237 14.6625H11.9077C13.4436 14.6625 14.6931 13.413 14.6931 11.8771V11.0965C14.6931 11.0903 14.6925 11.0842 14.6922 11.0781C14.8832 10.8578 14.9992 10.5707 14.9992 10.257C14.9991 9.95879 14.8951 9.67713 14.7084 9.45374ZM6.6244 9.89543C6.74531 9.85555 6.86168 9.7988 6.96946 9.72468C6.97011 9.72424 6.97069 9.72386 6.97134 9.72339C7.11724 9.62296 7.29545 9.57621 7.47258 9.59194C7.48752 9.59329 7.50255 9.59346 7.51752 9.59258H7.51761C7.52083 9.59241 7.52408 9.59214 7.52733 9.59188C7.70461 9.57632 7.88276 9.62302 8.02863 9.72339C8.02922 9.7238 8.02981 9.72419 8.03039 9.7246C8.49744 10.0457 9.12451 10.0456 9.59144 9.72407C9.85107 9.5453 10.2 9.54524 10.4597 9.72407C10.927 10.0458 11.5549 10.0458 12.0222 9.72401C12.0226 9.72375 12.023 9.72342 12.0235 9.72316C12.283 9.54512 12.6313 9.5453 12.8898 9.72325C12.9488 9.76418 13.0104 9.79989 13.074 9.83047L9.77414 12.2028L6.6244 9.89543ZM0.903633 9.22327C0.899121 9.21984 0.534405 8.88676 0.631172 8.45622C0.757149 8.51047 0.895869 8.54071 1.04153 8.54071H13.9584C14.1041 8.54071 14.2428 8.5105 14.3688 8.45622C14.4656 8.88676 14.1011 9.21966 14.0984 9.2218C13.8413 9.39917 13.4958 9.39855 13.2378 9.21961C12.7704 8.89787 12.1426 8.8979 11.6752 9.21963C11.6749 9.21984 11.6746 9.2201 11.6742 9.22031C11.4147 9.39858 11.0662 9.39837 10.8068 9.21978C10.3394 8.89804 9.7115 8.89804 9.24425 9.21981C8.98453 9.39864 8.63572 9.39846 8.37624 9.2194C8.3756 9.21893 8.37495 9.21852 8.37428 9.21805C8.11904 9.04283 7.81005 8.95866 7.50038 8.97993C7.19092 8.95854 6.88122 9.04265 6.62584 9.21797C6.62514 9.21846 6.62443 9.2189 6.62376 9.2194C6.36428 9.39843 6.01544 9.39858 5.75575 9.21981C5.28847 8.89804 4.66055 8.89801 4.1932 9.21978C3.93387 9.39834 3.58541 9.39858 3.32581 9.22034C3.32543 9.2201 3.32514 9.21984 3.32476 9.21963C2.85741 8.89787 2.22955 8.89787 1.76139 9.22019C1.50416 9.39852 1.1586 9.3992 0.903633 9.22327ZM13.9852 9.92935C14.0711 9.90922 14.1553 9.88069 14.2366 9.84386C14.3331 9.95862 14.3869 10.1035 14.3869 10.2569C14.3869 10.6115 14.0985 10.9 13.7439 10.9H12.635L13.9852 9.92935ZM9.84155 7.0715C10.0106 7.0715 10.1476 6.93448 10.1476 6.76541C10.1476 6.59633 10.0106 6.45931 9.84155 6.45931H1.53132C1.02498 6.45931 0.613067 6.04737 0.613067 5.54106C0.613067 3.00943 2.67272 0.949772 5.20436 0.949772H9.79564C12.3273 0.949772 14.3869 3.00943 14.3869 5.54106C14.3869 6.0474 13.975 6.45931 13.4687 6.45931H11.9689C11.7998 6.45931 11.6628 6.59633 11.6628 6.76541C11.6628 6.93448 11.7998 7.0715 11.9689 7.0715C11.9689 7.0715 13.9043 7.0715 13.9584 7.0715C14.1947 7.0715 14.3869 7.26372 14.3869 7.50003C14.3869 7.73633 14.1947 7.92855 13.9584 7.92855H1.04156C0.805254 7.92855 0.613037 7.73633 0.613037 7.50003C0.613037 7.26372 0.805254 7.0715 1.04156 7.0715H9.84155ZM11.9077 14.0503H3.09234C1.89404 14.0503 0.919131 13.0754 0.919131 11.8771V11.4659C1.02645 11.4958 1.13933 11.5122 1.25607 11.5122H4.3473C4.51632 11.5122 4.6534 11.3752 4.6534 11.2061C4.6534 11.037 4.51632 10.9 4.3473 10.9H1.25607C0.901494 10.9 0.613037 10.6115 0.613037 10.2569C0.613037 10.1027 0.666475 9.95815 0.762979 9.84369C0.942481 9.9251 1.13628 9.966 1.33022 9.966C1.60342 9.966 1.87661 9.88523 2.10935 9.72383C2.36862 9.5453 2.71696 9.54506 2.97645 9.7231C2.97691 9.72339 2.9773 9.72372 2.97773 9.72398C3.44511 10.0458 4.073 10.0458 4.54031 9.72404C4.7453 9.58292 5.00578 9.55371 5.23418 9.63539C5.23603 9.63679 5.23764 9.63835 5.23951 9.63969L6.95974 10.8999H6.37761C6.20859 10.8999 6.07151 11.0369 6.07151 11.206C6.07151 11.3751 6.20856 11.5121 6.37761 11.5121H7.74598C7.76112 11.5121 7.77592 11.5107 7.79045 11.5085L9.59147 12.828C9.64532 12.8674 9.70884 12.8871 9.77238 12.8871C9.83502 12.8871 9.89766 12.868 9.95103 12.8296L11.7843 11.5116C11.788 11.5117 11.7916 11.5121 11.7954 11.5121H13.7439C13.8606 11.5121 13.9735 11.4958 14.0808 11.4658V11.877C14.0809 13.0754 13.106 14.0503 11.9077 14.0503Z" fill="black"/>
<path d="M3.85758 4.72467C3.68856 4.72467 3.55148 4.86169 3.55148 5.03076V5.04984C3.55148 5.21888 3.68856 5.35593 3.85758 5.35593C4.02659 5.35593 4.16367 5.21891 4.16367 5.04984V5.03076C4.16364 4.86172 4.02659 4.72467 3.85758 4.72467Z" fill="black"/>
<path d="M5.67879 4.17372C5.50978 4.17372 5.3727 4.31074 5.3727 4.47982V4.49889C5.3727 4.66793 5.50975 4.80498 5.67879 4.80498C5.8478 4.80498 5.98488 4.66796 5.98488 4.49889V4.47982C5.98488 4.31077 5.8478 4.17372 5.67879 4.17372Z" fill="black"/>
<path d="M2.03634 4.17372C1.86733 4.17372 1.73025 4.31074 1.73025 4.47982V4.49889C1.73025 4.66793 1.86733 4.80498 2.03634 4.80498C2.20536 4.80498 2.34244 4.66796 2.34244 4.49889V4.47982C2.34244 4.31077 2.20538 4.17372 2.03634 4.17372Z" fill="black"/>
<path d="M7.5 4.72467C7.33099 4.72467 7.19391 4.86169 7.19391 5.03076V5.04984C7.19391 5.21888 7.33096 5.35593 7.5 5.35593C7.66905 5.35593 7.8061 5.21891 7.8061 5.04984V5.03076C7.8061 4.86172 7.66902 4.72467 7.5 4.72467Z" fill="black"/>
<path d="M9.32122 4.17372C9.1522 4.17372 9.01512 4.31074 9.01512 4.47982V4.49889C9.01512 4.66793 9.15217 4.80498 9.32122 4.80498C9.49026 4.80498 9.62731 4.66796 9.62731 4.49889V4.47982C9.62731 4.31077 9.49026 4.17372 9.32122 4.17372Z" fill="black"/>
<path d="M11.1424 5.35593C11.3114 5.35593 11.4485 5.21891 11.4485 5.04984V5.03076C11.4485 4.86172 11.3115 4.72467 11.1424 4.72467C10.9734 4.72467 10.8363 4.86169 10.8363 5.03076V5.04984C10.8364 5.21888 10.9734 5.35593 11.1424 5.35593Z" fill="black"/>
<path d="M12.9637 4.80498C13.1327 4.80498 13.2698 4.66796 13.2698 4.49889V4.47982C13.2698 4.31077 13.1327 4.17372 12.9637 4.17372C12.7946 4.17372 12.6576 4.31074 12.6576 4.47982V4.49889C12.6576 4.66793 12.7946 4.80498 12.9637 4.80498Z" fill="black"/>
<path d="M4.72992 2.45871C4.56091 2.45871 4.42383 2.59573 4.42383 2.7648V2.78388C4.42383 2.95292 4.56091 3.08997 4.72992 3.08997C4.89894 3.08997 5.03602 2.95295 5.03602 2.78388V2.7648C5.03602 2.59576 4.89894 2.45871 4.72992 2.45871Z" fill="black"/>
<path d="M6.55113 3.00967C6.38212 3.00967 6.24504 3.1467 6.24504 3.31577V3.33484C6.24504 3.50388 6.38212 3.64093 6.55113 3.64093C6.72015 3.64093 6.85723 3.50391 6.85723 3.33484V3.31577C6.85723 3.14672 6.72015 3.00967 6.55113 3.00967Z" fill="black"/>
<path d="M8.37235 2.45871C8.20333 2.45871 8.06625 2.59573 8.06625 2.7648V2.78388C8.06625 2.95292 8.20333 3.08997 8.37235 3.08997C8.54136 3.08997 8.67844 2.95295 8.67844 2.78388V2.7648C8.67844 2.59576 8.54136 2.45871 8.37235 2.45871Z" fill="black"/>
<path d="M10.4996 3.33484V3.31577C10.4996 3.14672 10.3626 3.00967 10.1936 3.00967C10.0245 3.00967 9.88746 3.1467 9.88746 3.31577V3.33484C9.88746 3.50388 10.0245 3.64093 10.1936 3.64093C10.3626 3.64093 10.4996 3.50388 10.4996 3.33484Z" fill="black"/>
<path d="M5.3676 10.9H5.35611C5.1871 10.9 5.05002 11.037 5.05002 11.2061C5.05002 11.3752 5.18707 11.5122 5.35611 11.5122H5.3676C5.53661 11.5122 5.67369 11.3752 5.67369 11.2061C5.67369 11.037 5.53661 10.9 5.3676 10.9Z" fill="black"/>
<path d="M10.8794 7.07151H10.889C11.058 7.07151 11.1951 6.93449 11.1951 6.76541C11.1951 6.59634 11.058 6.45932 10.889 6.45932H10.8794C10.7104 6.45932 10.5733 6.59634 10.5733 6.76541C10.5733 6.93449 10.7104 7.07151 10.8794 7.07151Z" fill="black"/>
</g>
<defs>
<clipPath id="clip0_11_2">
<rect width="15" height="15" fill="white"/>
</clipPath>
</defs>
</svg>
