<svg xmlns="http://www.w3.org/2000/svg" width="39" height="11" fill="none"><mask id="a" width="40" height="12" x="-.196" y="-.324" fill="#000" maskUnits="userSpaceOnUse"><path fill="#fff" d="M-.196-.324h40v12h-40z"/><path d="M4.44 2.296c0-.08.004-.192.012-.336.008-.144.036-.288.084-.432.048-.144.12-.268.216-.372.104-.104.252-.156.444-.156.168 0 .316.044.444.132.096.064.168.18.216.348.056.16.092.34.108.54.024.2.036.4.036.6 0 .2-.004.364-.012.492V7.78c0 .144-.008.312-.024.504a5.269 5.269 0 0 1-.084.576c-.032.192-.08.348-.144.468a.702.702 0 0 1-.12.18 2.352 2.352 0 0 1-.108.12.64.64 0 0 1-.216.144c-.072.032-.148.06-.228.084a3.029 3.029 0 0 1-.348.048h-2.52c-.192 0-.376-.016-.552-.048a1.086 1.086 0 0 1-.468-.216.8.8 0 0 1-.24-.3 2.405 2.405 0 0 1-.108-.372 2.475 2.475 0 0 1-.024-.324V2.176c0-.112.012-.236.036-.372a1.7 1.7 0 0 1 .132-.372.856.856 0 0 1 .24-.288.543.543 0 0 1 .36-.12c.4 0 .66.172.78.516.04.112.064.224.072.336l.024.336v1.812c.008.224.012.384.012.48H3.336c.216 0 .424-.004.624-.012s.352-.024.456-.048l.024-.552V2.296Zm3.228 3.828a2.373 2.373 0 0 0-.336-.024 5.011 5.011 0 0 1-.324-.036.947.947 0 0 1-.372-.096.83.83 0 0 1-.276-.216.708.708 0 0 1-.144-.324 1.11 1.11 0 0 1 .036-.42.665.665 0 0 1 .096-.204c.056-.072.108-.128.156-.168a.908.908 0 0 1 .336-.156c.128-.016.26-.02.396-.012.144.008.284.004.42-.012h.036v-.288a1.456 1.456 0 0 0 0-.36v-.252c0-.208-.004-.412-.012-.612 0-.208.004-.412.012-.612v-.504c.008-.128.02-.252.036-.372.016-.128.044-.244.084-.348A.73.73 0 0 1 7.98.832a.578.578 0 0 1 .384-.156h.024a.657.657 0 0 1 .456.18.92.92 0 0 1 .264.384c.064.152.104.312.12.48.016.16.024.304.024.432v7.32a1.895 1.895 0 0 1-.096.528.57.57 0 0 1-.396.372.985.985 0 0 1-.288.048.575.575 0 0 1-.456-.192.724.724 0 0 1-.192-.348 4.852 4.852 0 0 1-.06-.384.227.227 0 0 0-.012-.072V9.34a3.293 3.293 0 0 1-.024-.408c0-.144-.004-.288-.012-.432a2.787 2.787 0 0 1-.012-.252V7.408c0-.12-.004-.24-.012-.36V6.256a.352.352 0 0 0-.024-.132ZM4.44 8.44l-.012-2.484-2.076.012c-.008.168-.012.376-.012.624.008.248.012.456.012.624v1.236L4.44 8.44ZM17.593 6.064c-.04 0-.128-.004-.264-.012a5.683 5.683 0 0 0-.3-.012H16.8a1.62 1.62 0 0 1-.192-.036.789.789 0 0 1-.192-.024 2.369 2.369 0 0 1-.18-.06.807.807 0 0 1-.252-.204 5.918 5.918 0 0 1-.108-.156.371.371 0 0 1-.036-.168.972.972 0 0 1 .012-.336.69.69 0 0 1 .132-.288l.06-.096.084-.084c.048-.04.1-.068.156-.084.056-.024.108-.044.156-.06.088-.016.168-.024.24-.024H17.617v-.864c0-.096-.004-.184-.012-.264a2.535 2.535 0 0 1-.012-.252v-.564c0-.192.008-.384.024-.576a3 3 0 0 1 .024-.372c.024-.128.056-.248.096-.36a.778.778 0 0 1 .168-.276.515.515 0 0 1 .36-.144h.024a.77.77 0 0 1 .408.096.66.66 0 0 1 .252.24c.072.096.12.208.144.336.032.128.052.256.06.384.024.208.036.424.036.648V8.38c0 .272.004.552.012.84.008.28-.032.548-.12.804a.712.712 0 0 1-.156.252 1.1 1.1 0 0 1-.396.156.61.61 0 0 1-.12.012.6.6 0 0 1-.444-.168 1.045 1.045 0 0 1-.24-.384 2.081 2.081 0 0 1-.108-.492 4.75 4.75 0 0 1-.024-.444V7.492c.008-.192.012-.376.012-.552 0-.184-.004-.352-.012-.504v-.372Zm-4.14 2.244a3.467 3.467 0 0 1-.012-.288V3.532c0-.128-.008-.26-.024-.396a8.623 8.623 0 0 0-.036-.168c-.008-.072-.032-.116-.072-.132-.04-.024-.088-.032-.144-.024a.875.875 0 0 1-.144-.012.591.591 0 0 0-.168 0 .51.51 0 0 1-.156 0h-.564a3.471 3.471 0 0 1-.408 0 3.471 3.471 0 0 0-.408 0 1.456 1.456 0 0 1-.18.012 1.034 1.034 0 0 0-.168-.012c-.088 0-.18-.004-.276-.012a.53.53 0 0 1-.264-.096.596.596 0 0 1-.228-.3c-.04-.12-.06-.244-.06-.372a.939.939 0 0 1 .096-.456.421.421 0 0 1 .156-.204.422.422 0 0 1 .168-.096c.08-.032.148-.056.204-.072.168-.04.344-.06.528-.06.184-.008.364-.012.54-.012h2.088l.324.048a1.013 1.013 0 0 1 .504.168.54.54 0 0 1 .156.144.714.714 0 0 1 .12.336c.016.112.032.236.048.372.016.224.024.448.024.672v4.788c.008.112.012.248.012.408v.492c0 .168-.004.316-.012.444-.008.08-.02.164-.036.252a.934.934 0 0 1-.084.252.64.64 0 0 1-.144.216.712.712 0 0 1-.252.156 1.064 1.064 0 0 1-.408.084.864.864 0 0 1-.312-.06.416.416 0 0 1-.216-.204 1.878 1.878 0 0 1-.192-.852v-.528ZM21.386 3.988a.833.833 0 0 0 .24-.012c.096-.024.184-.036.264-.036.072-.008.2-.012.384-.012.184-.008.392-.012.624-.012.24-.008.492-.012.756-.012h.756c.24-.008.456-.012.648-.012H25.97c.176 0 .356.004.54.012V3.34c0-.216-.008-.404-.024-.564h-1.848c-.264 0-.516.004-.756.012h-1.08c-.256 0-.528-.004-.816-.012a8.606 8.606 0 0 1-.876-.072c-.152-.016-.264-.104-.336-.264a1.418 1.418 0 0 1-.084-.564c0-.184.064-.324.192-.42.136-.096.276-.164.42-.204.176-.048.344-.072.504-.072l.528-.024c.112 0 .224.004.336.012h3.252a.51.51 0 0 1 .156 0h.348c.08 0 .156.004.228.012h.444c.072 0 .148.004.228.012h.096c.04 0 .08.008.12.024a.466.466 0 0 0 .06.024.879.879 0 0 1 .444.36c.072.12.12.252.144.396.024.144.036.284.036.42 0 .384.004.8.012 1.248.008.448.004.864-.012 1.248-.008.112-.016.264-.024.456 0 .184-.012.38-.036.588-.016.2-.04.392-.072.576a1.445 1.445 0 0 1-.132.42.734.734 0 0 1-.276.288.855.855 0 0 1-.732.096.585.585 0 0 1-.288-.252 1.32 1.32 0 0 1-.156-.396 2.624 2.624 0 0 1-.036-.432c0-.152.004-.304.012-.456.016-.152.024-.3.024-.444h-5.052l-.06-.024a2.706 2.706 0 0 0-.12-.084 1.65 1.65 0 0 1-.156-.12.738.738 0 0 1-.12-.156.847.847 0 0 1-.084-.384c0-.16.032-.284.096-.372a.392.392 0 0 1 .18-.168c.064-.024.128-.044.192-.06Zm-.192 5.616a3.147 3.147 0 0 1-.384-.048 1.707 1.707 0 0 1-.324-.12.725.725 0 0 1-.24-.228.76.76 0 0 1-.084-.384c0-.16.052-.3.156-.42a.602.602 0 0 1 .24-.144c.096-.032.188-.056.276-.072a1.3 1.3 0 0 1 .228-.024h.12l6.564.012c.208 0 .396.004.564.012a.715.715 0 0 1 .72.684c0 .12-.036.232-.108.336a.579.579 0 0 1-.288.204c-.16.064-.328.108-.504.132-.168.024-.336.04-.504.048-.584.024-1.16.032-1.728.024a117.66 117.66 0 0 0-3.348 0c-.544.008-.996.004-1.356-.012ZM36.377.928c.136 0 .272.004.408.012.136.008.268.032.396.072.192.056.316.18.372.372.056.184.084.364.084.54v1.092c0 .064-.008.148-.024.252a2.442 2.442 0 0 1-.048.324c-.024.112-.06.22-.108.324a.421.421 0 0 1-.156.204.948.948 0 0 1-.324.12 1.877 1.877 0 0 1-.3 0h-4.98v.504h5.196c.072 0 .14.004.204.012.12.008.228.044.324.108a.453.453 0 0 1 .216.288c.04.16.032.312-.024.456a.505.505 0 0 1-.288.312c-.096.04-.196.068-.3.084a3.327 3.327 0 0 1-.276.012H31.385c-.168 0-.34-.004-.516-.012a.577.577 0 0 1-.42-.252 1.022 1.022 0 0 1-.192-.54 7.298 7.298 0 0 1-.024-.276c0-.112-.004-.228-.012-.348V3.712a1.877 1.877 0 0 1 0-.3.6.6 0 0 1 .132-.3.665.665 0 0 1 .432-.252c.192-.04.376-.06.552-.06.04 0 .104.004.192.012.096.008.172.008.228 0h4.5v-.516h-4.62a.808.808 0 0 0-.132.012h-.132c-.048 0-.1.004-.156.012h-.144c-.168 0-.304-.016-.408-.048-.136-.032-.248-.124-.336-.276a.793.793 0 0 1-.084-.588.503.503 0 0 1 .276-.324c.144-.072.26-.116.348-.132a.744.744 0 0 1 .18-.024h.624c.128 0 .284.004.468.012h1.224c.216-.008.412-.012.588-.012h2.424Zm.804 5.952c.128-.008.26-.004.396.012.144.008.276.036.396.084.12.048.216.12.288.216a.6.6 0 0 1 .12.396c0 .2-.068.352-.204.456-.136.096-.3.168-.492.216-.184.04-.38.064-.588.072h-.492c-.072 0-.148.004-.228.012H35.453c-.232 0-.464-.004-.696-.012.008.248.016.468.024.66.008.184-.004.38-.036.588a1.915 1.915 0 0 1-.12.432.717.717 0 0 1-.288.348.74.74 0 0 1-.42.12.866.866 0 0 1-.432-.108.625.625 0 0 1-.24-.276 2.155 2.155 0 0 1-.108-.348 1.127 1.127 0 0 1-.012-.288c.008-.104.008-.2 0-.288v-.84h-.696c-.208 0-.412.004-.612.012H30.57c-.184 0-.36-.024-.528-.072a.664.664 0 0 1-.396-.312.782.782 0 0 1-.132-.432.633.633 0 0 1 .18-.408.509.509 0 0 1 .228-.144c.096-.032.188-.052.276-.06.096-.016.176-.024.24-.024h.12l6.624-.012Z"/></mask><path fill="#FF9D3B" d="M4.44 2.296c0-.08.004-.192.012-.336.008-.144.036-.288.084-.432.048-.144.12-.268.216-.372.104-.104.252-.156.444-.156.168 0 .316.044.444.132.096.064.168.18.216.348.056.16.092.34.108.54.024.2.036.4.036.6 0 .2-.004.364-.012.492V7.78c0 .144-.008.312-.024.504a5.269 5.269 0 0 1-.084.576c-.032.192-.08.348-.144.468a.702.702 0 0 1-.12.18 2.352 2.352 0 0 1-.108.12.64.64 0 0 1-.216.144c-.072.032-.148.06-.228.084a3.029 3.029 0 0 1-.348.048h-2.52c-.192 0-.376-.016-.552-.048a1.086 1.086 0 0 1-.468-.216.8.8 0 0 1-.24-.3 2.405 2.405 0 0 1-.108-.372 2.475 2.475 0 0 1-.024-.324V2.176c0-.112.012-.236.036-.372a1.7 1.7 0 0 1 .132-.372.856.856 0 0 1 .24-.288.543.543 0 0 1 .36-.12c.4 0 .66.172.78.516.04.112.064.224.072.336l.024.336v1.812c.008.224.012.384.012.48H3.336c.216 0 .424-.004.624-.012s.352-.024.456-.048l.024-.552V2.296Zm3.228 3.828a2.373 2.373 0 0 0-.336-.024 5.011 5.011 0 0 1-.324-.036.947.947 0 0 1-.372-.096.83.83 0 0 1-.276-.216.708.708 0 0 1-.144-.324 1.11 1.11 0 0 1 .036-.42.665.665 0 0 1 .096-.204c.056-.072.108-.128.156-.168a.908.908 0 0 1 .336-.156c.128-.016.26-.02.396-.012.144.008.284.004.42-.012h.036v-.288a1.456 1.456 0 0 0 0-.36v-.252c0-.208-.004-.412-.012-.612 0-.208.004-.412.012-.612v-.504c.008-.128.02-.252.036-.372.016-.128.044-.244.084-.348A.73.73 0 0 1 7.98.832a.578.578 0 0 1 .384-.156h.024a.657.657 0 0 1 .456.18.92.92 0 0 1 .264.384c.064.152.104.312.12.48.016.16.024.304.024.432v7.32a1.895 1.895 0 0 1-.096.528.57.57 0 0 1-.396.372.985.985 0 0 1-.288.048.575.575 0 0 1-.456-.192.724.724 0 0 1-.192-.348 4.852 4.852 0 0 1-.06-.384.227.227 0 0 0-.012-.072V9.34a3.293 3.293 0 0 1-.024-.408c0-.144-.004-.288-.012-.432a2.787 2.787 0 0 1-.012-.252V7.408c0-.12-.004-.24-.012-.36V6.256a.352.352 0 0 0-.024-.132ZM4.44 8.44l-.012-2.484-2.076.012c-.008.168-.012.376-.012.624.008.248.012.456.012.624v1.236L4.44 8.44ZM17.593 6.064c-.04 0-.128-.004-.264-.012a5.683 5.683 0 0 0-.3-.012H16.8a1.62 1.62 0 0 1-.192-.036.789.789 0 0 1-.192-.024 2.369 2.369 0 0 1-.18-.06.807.807 0 0 1-.252-.204 5.918 5.918 0 0 1-.108-.156.371.371 0 0 1-.036-.168.972.972 0 0 1 .012-.336.69.69 0 0 1 .132-.288l.06-.096.084-.084c.048-.04.1-.068.156-.084.056-.024.108-.044.156-.06.088-.016.168-.024.24-.024H17.617v-.864c0-.096-.004-.184-.012-.264a2.535 2.535 0 0 1-.012-.252v-.564c0-.192.008-.384.024-.576a3 3 0 0 1 .024-.372c.024-.128.056-.248.096-.36a.778.778 0 0 1 .168-.276.515.515 0 0 1 .36-.144h.024a.77.77 0 0 1 .408.096.66.66 0 0 1 .252.24c.072.096.12.208.144.336.032.128.052.256.06.384.024.208.036.424.036.648V8.38c0 .272.004.552.012.84.008.28-.032.548-.12.804a.712.712 0 0 1-.156.252 1.1 1.1 0 0 1-.396.156.61.61 0 0 1-.12.012.6.6 0 0 1-.444-.168 1.045 1.045 0 0 1-.24-.384 2.081 2.081 0 0 1-.108-.492 4.75 4.75 0 0 1-.024-.444V7.492c.008-.192.012-.376.012-.552 0-.184-.004-.352-.012-.504v-.372Zm-4.14 2.244a3.467 3.467 0 0 1-.012-.288V3.532c0-.128-.008-.26-.024-.396a8.623 8.623 0 0 0-.036-.168c-.008-.072-.032-.116-.072-.132-.04-.024-.088-.032-.144-.024a.875.875 0 0 1-.144-.012.591.591 0 0 0-.168 0 .51.51 0 0 1-.156 0h-.564a3.471 3.471 0 0 1-.408 0 3.471 3.471 0 0 0-.408 0 1.456 1.456 0 0 1-.18.012 1.034 1.034 0 0 0-.168-.012c-.088 0-.18-.004-.276-.012a.53.53 0 0 1-.264-.096.596.596 0 0 1-.228-.3c-.04-.12-.06-.244-.06-.372a.939.939 0 0 1 .096-.456.421.421 0 0 1 .156-.204.422.422 0 0 1 .168-.096c.08-.032.148-.056.204-.072.168-.04.344-.06.528-.06.184-.008.364-.012.54-.012h2.088l.324.048a1.013 1.013 0 0 1 .504.168.54.54 0 0 1 .156.144.714.714 0 0 1 .12.336c.016.112.032.236.048.372.016.224.024.448.024.672v4.788c.008.112.012.248.012.408v.492c0 .168-.004.316-.012.444-.008.08-.02.164-.036.252a.934.934 0 0 1-.084.252.64.64 0 0 1-.144.216.712.712 0 0 1-.252.156 1.064 1.064 0 0 1-.408.084.864.864 0 0 1-.312-.06.416.416 0 0 1-.216-.204 1.878 1.878 0 0 1-.192-.852v-.528ZM21.386 3.988a.833.833 0 0 0 .24-.012c.096-.024.184-.036.264-.036.072-.008.2-.012.384-.012.184-.008.392-.012.624-.012.24-.008.492-.012.756-.012h.756c.24-.008.456-.012.648-.012H25.97c.176 0 .356.004.54.012V3.34c0-.216-.008-.404-.024-.564h-1.848c-.264 0-.516.004-.756.012h-1.08c-.256 0-.528-.004-.816-.012a8.606 8.606 0 0 1-.876-.072c-.152-.016-.264-.104-.336-.264a1.418 1.418 0 0 1-.084-.564c0-.184.064-.324.192-.42.136-.096.276-.164.42-.204.176-.048.344-.072.504-.072l.528-.024c.112 0 .224.004.336.012h3.252a.51.51 0 0 1 .156 0h.348c.08 0 .156.004.228.012h.444c.072 0 .148.004.228.012h.096c.04 0 .08.008.12.024a.466.466 0 0 0 .06.024.879.879 0 0 1 .444.36c.072.12.12.252.144.396.024.144.036.284.036.42 0 .384.004.8.012 1.248.008.448.004.864-.012 1.248-.008.112-.016.264-.024.456 0 .184-.012.38-.036.588-.016.2-.04.392-.072.576a1.445 1.445 0 0 1-.132.42.734.734 0 0 1-.276.288.855.855 0 0 1-.732.096.585.585 0 0 1-.288-.252 1.32 1.32 0 0 1-.156-.396 2.624 2.624 0 0 1-.036-.432c0-.152.004-.304.012-.456.016-.152.024-.3.024-.444h-5.052l-.06-.024a2.706 2.706 0 0 0-.12-.084 1.65 1.65 0 0 1-.156-.12.738.738 0 0 1-.12-.156.847.847 0 0 1-.084-.384c0-.16.032-.284.096-.372a.392.392 0 0 1 .18-.168c.064-.024.128-.044.192-.06Zm-.192 5.616a3.147 3.147 0 0 1-.384-.048 1.707 1.707 0 0 1-.324-.12.725.725 0 0 1-.24-.228.76.76 0 0 1-.084-.384c0-.16.052-.3.156-.42a.602.602 0 0 1 .24-.144c.096-.032.188-.056.276-.072a1.3 1.3 0 0 1 .228-.024h.12l6.564.012c.208 0 .396.004.564.012a.715.715 0 0 1 .72.684c0 .12-.036.232-.108.336a.579.579 0 0 1-.288.204c-.16.064-.328.108-.504.132-.168.024-.336.04-.504.048-.584.024-1.16.032-1.728.024a117.66 117.66 0 0 0-3.348 0c-.544.008-.996.004-1.356-.012ZM36.377.928c.136 0 .272.004.408.012.136.008.268.032.396.072.192.056.316.18.372.372.056.184.084.364.084.54v1.092c0 .064-.008.148-.024.252a2.442 2.442 0 0 1-.048.324c-.024.112-.06.22-.108.324a.421.421 0 0 1-.156.204.948.948 0 0 1-.324.12 1.877 1.877 0 0 1-.3 0h-4.98v.504h5.196c.072 0 .14.004.204.012.12.008.228.044.324.108a.453.453 0 0 1 .216.288c.04.16.032.312-.024.456a.505.505 0 0 1-.288.312c-.096.04-.196.068-.3.084a3.327 3.327 0 0 1-.276.012H31.385c-.168 0-.34-.004-.516-.012a.577.577 0 0 1-.42-.252 1.022 1.022 0 0 1-.192-.54 7.298 7.298 0 0 1-.024-.276c0-.112-.004-.228-.012-.348V3.712a1.877 1.877 0 0 1 0-.3.6.6 0 0 1 .132-.3.665.665 0 0 1 .432-.252c.192-.04.376-.06.552-.06.04 0 .104.004.192.012.096.008.172.008.228 0h4.5v-.516h-4.62a.808.808 0 0 0-.132.012h-.132c-.048 0-.1.004-.156.012h-.144c-.168 0-.304-.016-.408-.048-.136-.032-.248-.124-.336-.276a.793.793 0 0 1-.084-.588.503.503 0 0 1 .276-.324c.144-.072.26-.116.348-.132a.744.744 0 0 1 .18-.024h.624c.128 0 .284.004.468.012h1.224c.216-.008.412-.012.588-.012h2.424Zm.804 5.952c.128-.008.26-.004.396.012.144.008.276.036.396.084.12.048.216.12.288.216a.6.6 0 0 1 .12.396c0 .2-.068.352-.204.456-.136.096-.3.168-.492.216-.184.04-.38.064-.588.072h-.492c-.072 0-.148.004-.228.012H35.453c-.232 0-.464-.004-.696-.012.008.248.016.468.024.66.008.184-.004.38-.036.588a1.915 1.915 0 0 1-.12.432.717.717 0 0 1-.288.348.74.74 0 0 1-.42.12.866.866 0 0 1-.432-.108.625.625 0 0 1-.24-.276 2.155 2.155 0 0 1-.108-.348 1.127 1.127 0 0 1-.012-.288c.008-.104.008-.2 0-.288v-.84h-.696c-.208 0-.412.004-.612.012H30.57c-.184 0-.36-.024-.528-.072a.664.664 0 0 1-.396-.312.782.782 0 0 1-.132-.432.633.633 0 0 1 .18-.408.509.509 0 0 1 .228-.144c.096-.032.188-.052.276-.06.096-.016.176-.024.24-.024h.12l6.624-.012Z"/><path stroke="#000" d="M4.44 2.296c0-.08.004-.192.012-.336.008-.144.036-.288.084-.432.048-.144.12-.268.216-.372.104-.104.252-.156.444-.156.168 0 .316.044.444.132.096.064.168.18.216.348.056.16.092.34.108.54.024.2.036.4.036.6 0 .2-.004.364-.012.492V7.78c0 .144-.008.312-.024.504a5.269 5.269 0 0 1-.084.576c-.032.192-.08.348-.144.468a.702.702 0 0 1-.12.18 2.352 2.352 0 0 1-.108.12.64.64 0 0 1-.216.144c-.072.032-.148.06-.228.084a3.029 3.029 0 0 1-.348.048h-2.52c-.192 0-.376-.016-.552-.048a1.086 1.086 0 0 1-.468-.216.8.8 0 0 1-.24-.3 2.405 2.405 0 0 1-.108-.372 2.475 2.475 0 0 1-.024-.324V2.176c0-.112.012-.236.036-.372a1.7 1.7 0 0 1 .132-.372.856.856 0 0 1 .24-.288.543.543 0 0 1 .36-.12c.4 0 .66.172.78.516.04.112.064.224.072.336l.024.336v1.812c.008.224.012.384.012.48H3.336c.216 0 .424-.004.624-.012s.352-.024.456-.048l.024-.552V2.296Zm3.228 3.828a2.373 2.373 0 0 0-.336-.024 5.011 5.011 0 0 1-.324-.036.947.947 0 0 1-.372-.096.83.83 0 0 1-.276-.216.708.708 0 0 1-.144-.324 1.11 1.11 0 0 1 .036-.42.665.665 0 0 1 .096-.204c.056-.072.108-.128.156-.168a.908.908 0 0 1 .336-.156c.128-.016.26-.02.396-.012.144.008.284.004.42-.012h.036v-.288a1.456 1.456 0 0 0 0-.36v-.252c0-.208-.004-.412-.012-.612 0-.208.004-.412.012-.612v-.504c.008-.128.02-.252.036-.372.016-.128.044-.244.084-.348A.73.73 0 0 1 7.98.832a.578.578 0 0 1 .384-.156h.024a.657.657 0 0 1 .456.18.92.92 0 0 1 .264.384c.064.152.104.312.12.48.016.16.024.304.024.432v7.32a1.895 1.895 0 0 1-.096.528.57.57 0 0 1-.396.372.985.985 0 0 1-.288.048.575.575 0 0 1-.456-.192.724.724 0 0 1-.192-.348 4.852 4.852 0 0 1-.06-.384.227.227 0 0 0-.012-.072V9.34a3.293 3.293 0 0 1-.024-.408c0-.144-.004-.288-.012-.432a2.787 2.787 0 0 1-.012-.252V7.408c0-.12-.004-.24-.012-.36V6.256a.352.352 0 0 0-.024-.132ZM4.44 8.44l-.012-2.484-2.076.012c-.008.168-.012.376-.012.624.008.248.012.456.012.624v1.236L4.44 8.44ZM17.593 6.064c-.04 0-.128-.004-.264-.012a5.683 5.683 0 0 0-.3-.012H16.8a1.62 1.62 0 0 1-.192-.036.789.789 0 0 1-.192-.024 2.369 2.369 0 0 1-.18-.06.807.807 0 0 1-.252-.204 5.918 5.918 0 0 1-.108-.156.371.371 0 0 1-.036-.168.972.972 0 0 1 .012-.336.69.69 0 0 1 .132-.288l.06-.096.084-.084c.048-.04.1-.068.156-.084.056-.024.108-.044.156-.06.088-.016.168-.024.24-.024H17.617v-.864c0-.096-.004-.184-.012-.264a2.535 2.535 0 0 1-.012-.252v-.564c0-.192.008-.384.024-.576a3 3 0 0 1 .024-.372c.024-.128.056-.248.096-.36a.778.778 0 0 1 .168-.276.515.515 0 0 1 .36-.144h.024a.77.77 0 0 1 .408.096.66.66 0 0 1 .252.24c.072.096.12.208.144.336.032.128.052.256.06.384.024.208.036.424.036.648V8.38c0 .272.004.552.012.84.008.28-.032.548-.12.804a.712.712 0 0 1-.156.252 1.1 1.1 0 0 1-.396.156.61.61 0 0 1-.12.012.6.6 0 0 1-.444-.168 1.045 1.045 0 0 1-.24-.384 2.081 2.081 0 0 1-.108-.492 4.75 4.75 0 0 1-.024-.444V7.492c.008-.192.012-.376.012-.552 0-.184-.004-.352-.012-.504v-.372Zm-4.14 2.244a3.467 3.467 0 0 1-.012-.288V3.532c0-.128-.008-.26-.024-.396a8.623 8.623 0 0 0-.036-.168c-.008-.072-.032-.116-.072-.132-.04-.024-.088-.032-.144-.024a.875.875 0 0 1-.144-.012.591.591 0 0 0-.168 0 .51.51 0 0 1-.156 0h-.564a3.471 3.471 0 0 1-.408 0 3.471 3.471 0 0 0-.408 0 1.456 1.456 0 0 1-.18.012 1.034 1.034 0 0 0-.168-.012c-.088 0-.18-.004-.276-.012a.53.53 0 0 1-.264-.096.596.596 0 0 1-.228-.3c-.04-.12-.06-.244-.06-.372a.939.939 0 0 1 .096-.456.421.421 0 0 1 .156-.204.422.422 0 0 1 .168-.096c.08-.032.148-.056.204-.072.168-.04.344-.06.528-.06.184-.008.364-.012.54-.012h2.088l.324.048a1.013 1.013 0 0 1 .504.168.54.54 0 0 1 .156.144.714.714 0 0 1 .12.336c.016.112.032.236.048.372.016.224.024.448.024.672v4.788c.008.112.012.248.012.408v.492c0 .168-.004.316-.012.444-.008.08-.02.164-.036.252a.934.934 0 0 1-.084.252.64.64 0 0 1-.144.216.712.712 0 0 1-.252.156 1.064 1.064 0 0 1-.408.084.864.864 0 0 1-.312-.06.416.416 0 0 1-.216-.204 1.878 1.878 0 0 1-.192-.852v-.528ZM21.386 3.988a.833.833 0 0 0 .24-.012c.096-.024.184-.036.264-.036.072-.008.2-.012.384-.012.184-.008.392-.012.624-.012.24-.008.492-.012.756-.012h.756c.24-.008.456-.012.648-.012H25.97c.176 0 .356.004.54.012V3.34c0-.216-.008-.404-.024-.564h-1.848c-.264 0-.516.004-.756.012h-1.08c-.256 0-.528-.004-.816-.012a8.606 8.606 0 0 1-.876-.072c-.152-.016-.264-.104-.336-.264a1.418 1.418 0 0 1-.084-.564c0-.184.064-.324.192-.42.136-.096.276-.164.42-.204.176-.048.344-.072.504-.072l.528-.024c.112 0 .224.004.336.012h3.252a.51.51 0 0 1 .156 0h.348c.08 0 .156.004.228.012h.444c.072 0 .148.004.228.012h.096c.04 0 .08.008.12.024a.466.466 0 0 0 .06.024.879.879 0 0 1 .444.36c.072.12.12.252.144.396.024.144.036.284.036.42 0 .384.004.8.012 1.248.008.448.004.864-.012 1.248-.008.112-.016.264-.024.456 0 .184-.012.38-.036.588-.016.2-.04.392-.072.576a1.445 1.445 0 0 1-.132.42.734.734 0 0 1-.276.288.855.855 0 0 1-.732.096.585.585 0 0 1-.288-.252 1.32 1.32 0 0 1-.156-.396 2.624 2.624 0 0 1-.036-.432c0-.152.004-.304.012-.456.016-.152.024-.3.024-.444h-5.052l-.06-.024a2.706 2.706 0 0 0-.12-.084 1.65 1.65 0 0 1-.156-.12.738.738 0 0 1-.12-.156.847.847 0 0 1-.084-.384c0-.16.032-.284.096-.372a.392.392 0 0 1 .18-.168c.064-.024.128-.044.192-.06Zm-.192 5.616a3.147 3.147 0 0 1-.384-.048 1.707 1.707 0 0 1-.324-.12.725.725 0 0 1-.24-.228.76.76 0 0 1-.084-.384c0-.16.052-.3.156-.42a.602.602 0 0 1 .24-.144c.096-.032.188-.056.276-.072a1.3 1.3 0 0 1 .228-.024h.12l6.564.012c.208 0 .396.004.564.012a.715.715 0 0 1 .72.684c0 .12-.036.232-.108.336a.579.579 0 0 1-.288.204c-.16.064-.328.108-.504.132-.168.024-.336.04-.504.048-.584.024-1.16.032-1.728.024a117.66 117.66 0 0 0-3.348 0c-.544.008-.996.004-1.356-.012ZM36.377.928c.136 0 .272.004.408.012.136.008.268.032.396.072.192.056.316.18.372.372.056.184.084.364.084.54v1.092c0 .064-.008.148-.024.252a2.442 2.442 0 0 1-.048.324c-.024.112-.06.22-.108.324a.421.421 0 0 1-.156.204.948.948 0 0 1-.324.12 1.877 1.877 0 0 1-.3 0h-4.98v.504h5.196c.072 0 .14.004.204.012.12.008.228.044.324.108a.453.453 0 0 1 .216.288c.04.16.032.312-.024.456a.505.505 0 0 1-.288.312c-.096.04-.196.068-.3.084a3.327 3.327 0 0 1-.276.012H31.385c-.168 0-.34-.004-.516-.012a.577.577 0 0 1-.42-.252 1.022 1.022 0 0 1-.192-.54 7.298 7.298 0 0 1-.024-.276c0-.112-.004-.228-.012-.348V3.712a1.877 1.877 0 0 1 0-.3.6.6 0 0 1 .132-.3.665.665 0 0 1 .432-.252c.192-.04.376-.06.552-.06.04 0 .104.004.192.012.096.008.172.008.228 0h4.5v-.516h-4.62a.808.808 0 0 0-.132.012h-.132c-.048 0-.1.004-.156.012h-.144c-.168 0-.304-.016-.408-.048-.136-.032-.248-.124-.336-.276a.793.793 0 0 1-.084-.588.503.503 0 0 1 .276-.324c.144-.072.26-.116.348-.132a.744.744 0 0 1 .18-.024h.624c.128 0 .284.004.468.012h1.224c.216-.008.412-.012.588-.012h2.424Zm.804 5.952c.128-.008.26-.004.396.012.144.008.276.036.396.084.12.048.216.12.288.216a.6.6 0 0 1 .12.396c0 .2-.068.352-.204.456-.136.096-.3.168-.492.216-.184.04-.38.064-.588.072h-.492c-.072 0-.148.004-.228.012H35.453c-.232 0-.464-.004-.696-.012.008.248.016.468.024.66.008.184-.004.38-.036.588a1.915 1.915 0 0 1-.12.432.717.717 0 0 1-.288.348.74.74 0 0 1-.42.12.866.866 0 0 1-.432-.108.625.625 0 0 1-.24-.276 2.155 2.155 0 0 1-.108-.348 1.127 1.127 0 0 1-.012-.288c.008-.104.008-.2 0-.288v-.84h-.696c-.208 0-.412.004-.612.012H30.57c-.184 0-.36-.024-.528-.072a.664.664 0 0 1-.396-.312.782.782 0 0 1-.132-.432.633.633 0 0 1 .18-.408.509.509 0 0 1 .228-.144c.096-.032.188-.052.276-.06.096-.016.176-.024.24-.024h.12l6.624-.012Z" mask="url(#a)"/></svg>